<svg width="24" height="24" viewBox="0 0 24 24" fill="none" xmlns="http://www.w3.org/2000/svg">
<g id="Chat">
<g id="Group 3">
<mask id="mask0_10337_16" style="mask-type:luminance" maskUnits="userSpaceOnUse" x="0" y="0" width="24" height="24">
<path id="Clip 2" fill-rule="evenodd" clip-rule="evenodd" d="M0.0834961 0.0836487H23.3676V23.3686H0.0834961V0.0836487Z" fill="white"/>
</mask>
<g mask="url(#mask0_10337_16)">
<path id="Fill 1" fill-rule="evenodd" clip-rule="evenodd" d="M5.61764 20.3149C6.24597 20.3149 6.83855 20.5532 7.4658 20.8057C11.3084 22.5823 15.853 21.7741 18.8137 18.8145C22.7202 14.9058 22.7202 8.54773 18.8137 4.64123C16.9222 2.74973 14.4067 1.70865 11.7287 1.70865C9.04964 1.70865 6.53305 2.75082 4.64264 4.64232C1.6808 7.60198 0.874803 12.1466 2.63522 15.9523C2.88872 16.5796 3.13355 17.1906 3.13355 17.8254C3.13355 18.4591 2.9158 19.0972 2.72405 19.6606C2.56589 20.1242 2.32647 20.8241 2.4803 20.9779C2.63089 21.1339 3.33505 20.888 3.7998 20.7287C4.35772 20.5381 4.99039 20.3192 5.61764 20.3149ZM11.7016 23.3688C10.0463 23.3688 8.38014 23.0189 6.82122 22.2974C6.36189 22.1132 5.9318 21.9399 5.62305 21.9399C5.26772 21.9421 4.78997 22.1067 4.32847 22.266C3.38164 22.591 2.20297 22.9961 1.33089 22.1273C0.462053 21.2574 0.862886 20.082 1.18572 19.1362C1.34497 18.6704 1.50855 18.1894 1.50855 17.8254C1.50855 17.5264 1.36447 17.1451 1.14347 16.5958C-0.885614 12.2137 0.0525531 6.93248 3.4943 3.4929C5.6913 1.29482 8.61522 0.0836487 11.7276 0.0836487C14.8401 0.0836487 17.7651 1.29373 19.9621 3.49182C24.5034 8.03315 24.5034 15.4215 19.9621 19.9628C17.7358 22.1901 14.7382 23.3688 11.7016 23.3688Z" fill="#FAFBFD"/>
</g>
</g>
<path id="Fill 4" fill-rule="evenodd" clip-rule="evenodd" d="M16.0047 13.2599C15.4067 13.2599 14.917 12.7756 14.917 12.1766C14.917 11.5775 15.3969 11.0932 15.9949 11.0932H16.0047C16.6027 11.0932 17.088 11.5775 17.088 12.1766C17.088 12.7756 16.6027 13.2599 16.0047 13.2599Z" fill="#FAFBFD"/>
<path id="Fill 6" fill-rule="evenodd" clip-rule="evenodd" d="M11.6614 13.2599C11.0634 13.2599 10.5737 12.7756 10.5737 12.1766C10.5737 11.5775 11.0526 11.0932 11.6516 11.0932H11.6614C12.2594 11.0932 12.7447 11.5775 12.7447 12.1766C12.7447 12.7756 12.2594 13.2599 11.6614 13.2599Z" fill="#FAFBFD"/>
<path id="Fill 8" fill-rule="evenodd" clip-rule="evenodd" d="M7.31814 13.2599C6.72014 13.2599 6.23047 12.7756 6.23047 12.1766C6.23047 11.5775 6.71039 11.0932 7.30839 11.0932H7.31814C7.91614 11.0932 8.40147 11.5775 8.40147 12.1766C8.40147 12.7756 7.91614 13.2599 7.31814 13.2599Z" fill="#FAFBFD"/>
</g>
</svg>
