<?xml version="1.0" encoding="UTF-8" standalone="no"?>
<svg
   xmlns:dc="http://purl.org/dc/elements/1.1/"
   xmlns:cc="http://creativecommons.org/ns#"
   xmlns:rdf="http://www.w3.org/1999/02/22-rdf-syntax-ns#"
   xmlns:svg="http://www.w3.org/2000/svg"
   xmlns="http://www.w3.org/2000/svg"
   xmlns:sodipodi="http://sodipodi.sourceforge.net/DTD/sodipodi-0.dtd"
   xmlns:inkscape="http://www.inkscape.org/namespaces/inkscape"
   version="1.1"
   x="0"
   y="0"
   width="2212.925"
   height="1708.925"
   viewBox="0, 0, 2212.925, 1708.925"
   id="svg4347"
   inkscape:version="0.91 r13725"
   sodipodi:docname="chedder2.svg">
  <metadata
     id="metadata4506">
    <rdf:RDF>
      <cc:Work
         rdf:about="">
        <dc:format>image/svg+xml</dc:format>
        <dc:type
           rdf:resource="http://purl.org/dc/dcmitype/StillImage" />
      </cc:Work>
    </rdf:RDF>
  </metadata>
  <sodipodi:namedview
     pagecolor="#ffffff"
     bordercolor="#666666"
     borderopacity="1"
     objecttolerance="10"
     gridtolerance="10"
     guidetolerance="10"
     inkscape:pageopacity="0"
     inkscape:pageshadow="2"
     inkscape:window-width="1916"
     inkscape:window-height="1035"
     id="namedview4504"
     showgrid="false"
     inkscape:zoom="0.12381802"
     inkscape:cx="-290.74928"
     inkscape:cy="854.46252"
     inkscape:window-x="4"
     inkscape:window-y="1"
     inkscape:window-maximized="1"
     inkscape:current-layer="g14" />
  <defs
     id="defs4349">
    <clipPath
       id="Clip_1">
      <path
         d="M50.373,58.738 L510.92,58.738 L510.92,392.088 L50.373,392.088 L50.373,58.738 z"
         id="path4352" />
    </clipPath>
    <clipPath
       id="Clip_2">
      <path
         d="M-0,0.005 L2212.929,0.005 L2212.929,1708.925 L-0,1708.925 L-0,0.005 z"
         id="path4355" />
    </clipPath>
    <clipPath
       id="Clip_3">
      <path
         d="M-0,0.005 L2212.929,0.005 L2212.929,1708.925 L-0,1708.925 L-0,0.005 z"
         id="path4358" />
    </clipPath>
  </defs>
  <g
     id="g10">
    <g
       clip-path="url(#Clip_2)"
       id="g14">
      <g
         id="g5048"
         transform="matrix(3.1272866,0,0,3.8118546,-2200.2225,14.779264)">
        <path
           id="path74"
           d="m 769.917,190.91 c 0,0 -2.038,140.713 16.296,166.114 l 317.856,-90.73 -16.303,-169.11 -317.849,93.726"
           inkscape:connector-curvature="0"
           style="fill:#fde064" />
        <path
           id="path78"
           d="M 788.866,228.792 C 763.88,208.26 749.544,184.574 749.544,159.332 l 0,130.393 c 0,24.364 13.29,47.285 36.669,67.299 l 0,-127.406 2.653,-0.826"
           inkscape:connector-curvature="0"
           style="fill:#fab20b" />
        <path
           id="path82"
           d="m 749.545,148.117 0,11.215 c 0,-3.78 0.412,-7.506 1.045,-11.215 l -1.045,0 z"
           inkscape:connector-curvature="0"
           style="fill:#f7960f" />
        <path
           id="path86"
           d="m 1055.166,300.932 c -21.964,0 -43.374,-1.099 -64.028,-3.138 l -1.178,3.138 0,127.133 c 21.025,2.11 42.821,3.262 65.206,3.262 168.795,0 305.624,-63.395 305.624,-141.602 l 0,-130.393 c 0,78.196 -136.829,141.6 -305.624,141.6"
           inkscape:connector-curvature="0"
           style="fill:#fab20b" />
        <path
           id="path90"
           d="M 1359.744,148.117 C 1347.411,75.159 1215.813,17.722 1055.166,17.722 c -160.646,0 -292.244,57.437 -304.576,130.395 -0.633,3.709 -1.045,7.435 -1.045,11.215 0,25.242 14.335,48.928 39.321,69.46 l 258.145,-80.675 -55.873,149.677 c 20.654,2.039 42.064,3.138 64.028,3.138 168.795,0 305.624,-63.404 305.624,-141.6 0,-3.78 -0.415,-7.506 -1.046,-11.215"
           inkscape:connector-curvature="0"
           style="fill:#fbc829" />
        <path
           id="path94"
           d="m 1360.79,159.332 0,0 c 0,-3.78 -0.415,-7.507 -1.046,-11.215 l 1.046,0 0,11.215"
           inkscape:connector-curvature="0"
           style="fill:#f79610" />
        <path
           id="path98"
           d="m 1111.197,237.766 c -15.197,0 -27.501,-9.58 -27.501,-21.393 0,-11.814 12.304,-21.394 27.501,-21.394 15.196,0 27.501,9.58 27.501,21.394 0,11.813 -12.305,21.393 -27.501,21.393"
           inkscape:connector-curvature="0"
           style="fill:#f8a512" />
        <path
           id="path102"
           d="m 874.851,154.234 c -12.947,0 -23.432,-7.752 -23.432,-17.315 0,-9.571 10.485,-17.322 23.432,-17.322 12.936,0 23.422,7.751 23.422,17.322 0,9.563 -10.486,17.315 -23.422,17.315"
           inkscape:connector-curvature="0"
           style="fill:#f8a512" />
        <path
           id="path106"
           d="m 996.077,117.557 c -12.374,0 -22.411,-8.667 -22.411,-19.362 0,-10.678 10.037,-19.345 22.411,-19.345 12.384,0 22.421,8.667 22.421,19.345 0,10.695 -10.037,19.362 -22.421,19.362"
           inkscape:connector-curvature="0"
           style="fill:#f8a512" />
        <path
           id="path110"
           d="m 1241.6,217.392 c -9.57,0 -17.323,-6.38 -17.323,-14.255 0,-7.884 7.753,-14.265 17.323,-14.265 9.554,0 17.315,6.381 17.315,14.265 0,7.875 -7.761,14.255 -17.315,14.255"
           inkscape:connector-curvature="0"
           style="fill:#f8a512" />
        <path
           id="path114"
           d="m 1145.835,142.008 c -11.821,0 -21.393,-6.838 -21.393,-15.284 0,-8.437 9.572,-15.275 21.393,-15.275 11.812,0 21.392,6.838 21.392,15.275 0,8.446 -9.58,15.284 -21.392,15.284"
           inkscape:connector-curvature="0"
           style="fill:#f8a512" />
        <path
           id="path118"
           d="m 1273.179,111.449 c -6.749,0 -12.226,-5.476 -12.226,-12.226 0,-6.75 5.477,-12.225 12.226,-12.225 6.751,0 12.226,5.475 12.226,12.225 0,6.75 -5.475,12.226 -12.226,12.226"
           inkscape:connector-curvature="0"
           style="fill:#f8a512" />
        <path
           id="path122"
           d="m 1116.286,78.85 c -14.625,0 -26.483,-7.303 -26.483,-16.303 0,-9.009 11.858,-16.304 26.483,-16.304 14.634,0 26.49,7.295 26.49,16.304 0,9 -11.856,16.303 -26.49,16.303"
           inkscape:connector-curvature="0"
           style="fill:#f8a512" />
        <path
           id="path126"
           d="m 1022.567,50.32 c -10.124,0 -18.341,-4.561 -18.341,-10.186 0,-5.625 8.217,-10.186 18.341,-10.186 10.126,0 18.335,4.561 18.335,10.186 0,5.625 -8.209,10.186 -18.335,10.186"
           inkscape:connector-curvature="0"
           style="fill:#f8a512" />
        <path
           id="path130"
           d="m 781.123,188.872 c -10.687,0 -19.352,-9.124 -19.352,-20.374 0,-11.258 8.665,-20.381 19.352,-20.381 10.688,0 19.354,9.123 19.354,20.381 0,11.25 -8.666,20.374 -19.354,20.374"
           inkscape:connector-curvature="0"
           style="fill:#f8a512" />
        <path
           id="path134"
           d="m 1067.392,400.767 c -14.633,0 -26.49,-10.037 -26.49,-22.412 0,-12.375 11.857,-22.412 26.49,-22.412 14.625,0 26.482,10.037 26.482,22.412 0,12.375 -11.857,22.412 -26.482,22.412"
           inkscape:connector-curvature="0"
           style="fill:#f79310" />
        <path
           id="path138"
           d="m 1193.717,347.795 c -12.375,0 -22.411,-8.208 -22.411,-18.342 0,-10.125 10.036,-18.334 22.411,-18.334 12.375,0 22.413,8.209 22.413,18.334 0,10.134 -10.038,18.342 -22.413,18.342"
           inkscape:connector-curvature="0"
           style="fill:#f79310" />
        <path
           id="path142"
           d="m 1323.092,335.57 c -8.437,0 -15.275,-7.304 -15.275,-16.296 0,-9.008 6.838,-16.302 15.275,-16.302 8.438,0 15.285,7.294 15.285,16.302 0,8.992 -6.847,16.296 -15.285,16.296"
           inkscape:connector-curvature="0"
           style="fill:#f79310" />
        <path
           id="path146"
           d="m 1319.022,254.069 c -8.537,0 -16.091,-3.523 -20.711,-8.937 14.64,-8.893 27.065,-18.618 36.88,-28.985 5.675,3.921 9.294,9.865 9.294,16.521 0,11.83 -11.4,21.401 -25.463,21.401"
           inkscape:connector-curvature="0"
           style="fill:#f79310" />
        <path
           id="path150"
           d="m 1298.311,245.132 c -2.995,-3.509 -4.759,-7.813 -4.759,-12.464 0,-11.813 11.4,-21.385 25.47,-21.385 6.14,0 11.772,1.825 16.169,4.864 -9.815,10.367 -22.24,20.092 -36.88,28.985"
           inkscape:connector-curvature="0"
           style="fill:#f8a512" />
        <path
           id="path154"
           d="m 1066.372,325.383 c -11.812,0 -21.392,-9.58 -21.392,-21.392 0,-1.065 0.077,-2.112 0.227,-3.134 3.306,0.05 6.626,0.075 9.959,0.075 10.89,0 21.661,-0.265 32.256,-0.779 0.225,1.245 0.344,2.528 0.344,3.838 0,11.812 -9.581,21.392 -21.394,21.392"
           inkscape:connector-curvature="0"
           style="fill:#f79310" />
        <path
           id="path158"
           d="m 1055.166,300.932 c -3.332,0 -6.652,-0.025 -9.959,-0.075 1.517,-10.335 10.417,-18.268 21.165,-18.268 10.504,0 19.243,7.574 21.05,17.564 -10.595,0.514 -21.366,0.779 -32.256,0.779"
           inkscape:connector-curvature="0"
           style="fill:#f8a512" />
        <path
           id="path162"
           d="m 770.937,221.471 c -8.438,0 -15.284,-5.933 -15.284,-13.245 0,-4.09 2.141,-7.748 5.504,-10.178 4.587,7.471 10.463,14.689 17.509,21.604 -2.267,1.156 -4.909,1.819 -7.729,1.819"
           inkscape:connector-curvature="0"
           style="fill:#f79310" />
        <path
           id="path166"
           d="m 778.666,219.652 c -7.045,-6.915 -12.921,-14.133 -17.509,-21.604 2.65,-1.915 6.06,-3.069 9.78,-3.069 8.438,0 15.276,5.934 15.276,13.246 0,4.868 -3.031,9.125 -7.547,11.427"
           inkscape:connector-curvature="0"
           style="fill:#f8a512" />
      </g>
    </g>
  </g>
</svg>
