<?xml version="1.0" encoding="UTF-8"?>
<!DOCTYPE svg PUBLIC "-//W3C//DTD SVG 1.1//EN" "http://www.w3.org/Graphics/SVG/1.1/DTD/svg11.dtd">
<svg version="1.1" xmlns="http://www.w3.org/2000/svg" xmlns:xlink="http://www.w3.org/1999/xlink" x="0" y="0" width="653.118" height="519.667" viewBox="0, 0, 653.118, 519.667">
  <g id="Layer_1">
    <path d="M326.559,433.122 C318.886,433.122 311.277,433.158 303.736,433.227 C305.676,428.993 308.192,426.825 308.192,426.825 L298.159,432.342 C298.159,424.606 305.552,412.832 305.552,412.832 C297.417,417.594 291.231,431.002 291.231,431.002 L292.664,417.863 C288.412,422.741 286.126,428.801 284.911,433.47 C251.547,434.033 219.757,435.264 190.321,437.057 L193.272,429.1 L185.915,435.086 C186.202,430.149 189.928,425.213 189.928,425.213 C184.514,428.398 180.85,433.122 180.85,433.122 L180.85,422.839 L177.665,434.131 C173.206,425.531 165.562,421.231 165.562,421.231 C169.87,428.353 171.167,434.354 171.465,438.305 C69.361,445.62 0,459.934 0,476.394 C0,500.295 146.205,519.667 326.559,519.667 C506.913,519.667 653.118,500.295 653.118,476.394 C653.118,452.496 506.913,433.122 326.559,433.122" fill="#0F9328" id="path18280"/>
    <path d="M68.481,46.913 L66.517,66.803 L68.959,91.647 L80.027,106.718 L89.344,112.49 L99.198,116.252 L104.454,118.223 L90.061,160.148 L72.024,197.832 L67.247,206.671 L55.183,214.017 L46.941,218.855 L38.043,218.198 L26.397,225.066 L21.5,239.459 L22.505,248.62 L22.216,252.418 L18.341,266.289 L18.932,284.727 L29.406,302.71 L47.24,317.754 L72.241,324.239 L78.144,325.231 L78.144,326.817 C78.144,326.817 80.736,334.945 89.642,338.119 C89.642,338.119 96.152,341.89 109.769,341.02 L118.766,340.165 L112.516,352.81 L95.137,387.449 L88.209,403.036 L77.818,405.993 C77.818,405.993 62.35,415.697 57.452,426.806 L52.376,438.989 L58.647,444.304 L83.133,451.888 L110.844,454.994 L127.924,450.575 L135.031,440.864 L136.584,427.463 L180.718,372.817 L223.598,401.608 L225.808,433.913 L223.837,441.497 L207.294,463.714 L202.561,474.882 C202.561,474.882 219.657,484.377 231.183,486.707 C242.71,489.036 260.984,489.931 277.647,481.63 L285.733,476.589 C285.733,476.589 284.753,465.147 282.723,455.352 L279.618,446.346 L289.555,406.799 L354.688,408.65 L378.099,405.545 C378.099,405.545 444.151,395.87 465.173,385.896 L497.244,372.423 C497.244,372.423 514.444,400.408 518.445,410.024 L524.895,429.194 L520.296,444.781 L514.742,473.628 L517.908,476.395 C517.908,476.395 533.315,479.421 546.693,479.421 C560.071,479.421 575.984,471.119 575.984,471.119 L579.541,463.296 C579.541,463.296 583.602,442.811 585.214,427.701 C586.826,412.592 587.245,384.941 586.229,370.488 C585.214,356.035 581.034,332.565 581.034,332.565 L570.463,282.637 L561.743,245.73 L541.617,194.309 L548.605,192.696 L586.11,159.252 L604.385,129.212 L613.462,107.533 L619.219,76.597 L619.256,50.319 L616.628,43.213 L610.357,41.958 L602.091,45.84 L604.862,51.674 L606.535,55.694 C606.535,55.694 602.593,88.004 593.516,104.368 C584.438,120.732 570.283,144.083 544.663,155.848 C544.663,155.848 521.132,167.553 503.933,171.196 C486.732,174.84 471.325,178.901 471.325,178.901 L428.504,180.991 L376.606,180.513 L306.313,170.36 L259.611,157.759 L235.841,149.458 L239.571,132.965 L243.022,132.318 L260.773,128.017 L275.556,117.865 L290.666,100.247 L298.43,79.344 L299.433,55.157 L297.594,49.543 L280.573,52.887 L269.943,58.681 L263.373,64.653 L256.565,73.551 L251.727,80.479 L240.684,93.424 C240.684,93.424 236.678,97.142 233.99,98.037 L227.063,106.996 C227.063,106.996 222.762,112.097 217.805,112.025 C212.849,111.952 205.204,109.982 203.353,105.741 C201.502,101.501 197.918,87.407 197.918,87.407 L201.979,85.376 L198.635,82.39 L188.271,78.15 L174.806,78.09 L166.325,80.837 L163.757,79.046 C163.757,79.046 157.188,76.716 153.724,76.716 C150.26,76.716 142.078,79.703 142.078,79.703 C142.078,79.703 133.956,83.405 133.12,85.854 C132.284,88.303 127.626,96.664 126.67,102.695 L124.3,103.293 C124.3,103.293 119.026,97.44 114.726,89.497 L109.888,76.179 L104.394,71.282 C104.394,71.282 97.108,61.786 92.032,58.442 C86.955,55.097 68.481,46.913 68.481,46.913" fill="#FFFFFF" id="path18282"/>
    <path d="M211.917,248.64 C211.917,248.64 210.433,248.237 207.375,244.321 C204.317,240.407 197.982,233.935 192.408,230.06 C186.834,226.185 161.751,210.02 129.581,204.366 C129.581,204.366 107.125,199.11 84.192,203.251 C84.192,203.251 59.905,208.826 48.199,218.939 C48.199,218.939 41.75,216.316 34.583,218.779 C27.416,221.242 20.648,228.016 21.524,242.27 L22.877,251.029 C22.877,251.029 20.807,255.489 19.454,262.257 C18.1,269.025 16.187,287.978 25.983,299.841 C25.983,299.841 38.963,316.882 59.188,321.261 L78.144,324.765 C78.144,324.765 77.753,327.454 81.848,333.157 C81.848,333.157 91.316,341.35 103.781,341.009 C103.781,341.009 123.756,341.328 135.786,336.152 C135.786,336.152 155.54,328.03 165.892,321.421 C165.892,321.421 181.817,311.387 191.612,295.86 C191.612,295.86 208.493,266.557 211.917,248.64" fill="#FFD5B8" id="path18284"/>
    <path d="M25.987,259.451 C25.987,259.451 11.968,306.014 66.912,318.615 C66.912,318.615 121.225,332.223 166.453,294.328 L151.558,305.973 L124.723,318.952 L98.923,324.208 L75.592,325.034 L52.977,319.669 L36.176,310.591 L25.505,298.17 L17.702,281.288 L19.822,261.142 L21.922,253.896 L23.355,251.666 z" fill="#F9A369" id="path18286"/>
    <path d="M159.854,323.101 C159.854,323.101 199.256,310.75 231.984,132.62 L232.222,131.864 L239.571,132.964 L237.866,141.36 L231.595,167.936 L219.561,219.536 C219.561,219.536 209.17,257.817 208.244,260.325 C207.318,262.834 198.062,284.841 194.777,290.485 C191.492,296.129 176.174,314.821 168.828,319.928 L163.244,324.198 L160.377,325.034 z" fill="#C4C4C4" id="path18288"/>
    <path d="M153.151,304.62 C153.151,304.62 156.734,311.945 157.531,315.688 C158.327,319.43 160.715,332.251 151.877,337.029 C151.877,337.029 143.338,342.058 134.518,335.276 C134.518,335.276 125.999,327.556 122.773,320.467 L122.773,319.283 C122.773,319.283 144.232,311.865 153.151,304.62" fill="#FF0000" id="path18290"/>
    <path d="M210.205,247.405 C209.395,246.488 207.403,244.225 205.462,242.021 C181.167,316.417 159.854,323.101 159.854,323.101 L160.377,325.034 L163.243,324.198 L168.828,319.928 C176.173,314.821 191.492,296.128 194.776,290.485 C198.061,284.841 207.318,262.833 208.244,260.325 C208.576,259.426 210.125,253.926 211.976,247.242 z" fill="#F9A369" id="path18292"/>
    <path d="M152.035,305.916 C152.035,305.916 159.182,329.031 147.327,333.479 C147.327,333.479 139.228,336.577 130.019,329.374 L130.684,332.046 L137.851,337.381 L145.177,338.823 L153.458,336.346 L157.599,330.055 L157.599,320.261 L155.688,312.696 L155.051,308.635 z" fill="#9E080F" id="path18294"/>
    <path d="M326.071,433.122 C318.118,433.122 310.234,433.16 302.424,433.234 C471.739,434.84 605.337,453.55 605.337,476.394 C605.337,499.24 471.739,517.949 302.424,519.555 C310.234,519.629 318.118,519.667 326.071,519.667 C506.424,519.667 652.629,500.295 652.629,476.394 C652.629,452.496 506.424,433.122 326.071,433.122" fill="#036313" id="path18296"/>
    <path d="M603.772,4.975 C603.772,4.975 609.903,13.017 613.088,17.556 C616.274,22.095 619.618,32.686 620.175,37.941 C620.733,43.197 619.538,49.01 619.22,50.443 C618.902,51.876 616.528,51.674 616.528,51.674 L614.442,44.55 L614.681,54.584 L612.047,45.347 L612.047,50.602 L609.107,44.949 L609.228,50.745 L606.001,49.726 L599.79,36.189 L598.516,23.21 L600.428,10.947 z" fill="#723B04" id="path18298"/>
    <path d="M602.091,5.282 C602.091,5.282 613.685,21.708 617.11,51.041 L619.984,52.307 L621.292,33.622 L615.191,18.642 L608.826,10.482 z" fill="#4C2605" id="path18300"/>
    <path d="M153.104,161.494 C153.104,161.494 147.895,175.938 131.89,175.938 C131.89,175.938 119.329,174.013 119.816,163.389 L117.556,169.25 L121.379,177.372 L126.276,180.238 L136.906,180.238 L142.998,178.805 L151.12,173.191 L153.553,167.578 z" fill="#C4C4C4" id="path18302"/>
    <path d="M195.138,163.781 C195.138,163.781 192.301,185.229 175.726,183.464 C159.15,181.698 157.575,163.345 158.418,158.619 L156.615,169.728 L159.688,179.044 L165.453,185.136 L175.876,189.462 L183.848,188.122 L190.656,183.822 L195.553,174.041 L196.871,169.847 z" fill="#C4C4C4" id="path18304"/>
    <path d="M125.44,55.898 C125.44,55.898 126.395,62.228 129.262,66.289 C132.129,70.35 137.265,77.039 137.265,77.039 L139.415,79.787 L133.323,86.844 C133.323,86.844 128.004,96.052 126.722,102.969 L121.618,101.286 L112.898,85.281 C112.898,85.281 108.957,77.517 109.196,67.962 C109.196,67.962 108.479,43.356 121.737,25.798 L123.29,46.103 z" fill="#723B04" id="path18306"/>
    <path d="M121.618,30.058 C121.618,30.058 117.318,37.066 118.432,52.832 C119.548,68.599 134.04,86.435 134.04,86.435 L139.415,80.225 L135.557,75.765 L126.555,62.228 L124.3,41.843 L123.37,25.798 z" fill="#4C2605" id="path18308"/>
    <path d="M199.66,87.072 C199.66,87.072 225.773,74.411 237.12,25.798 C237.12,25.798 241.729,41.098 240.464,64.975 C240.464,64.975 240.225,82.533 233.417,98.061 C233.417,98.061 227.684,107.02 221.831,110.961 C221.831,110.961 213.35,112.991 207.975,109.408 C207.975,109.408 200.928,108.333 198.301,89.581 C198.301,89.581 197.792,88.159 199.66,87.072" fill="#723B04" id="path18310"/>
    <path d="M239.571,43.436 C239.571,43.436 239.858,94.673 206.072,108.448 C206.072,108.448 213.373,111.152 216.387,111.534 L222.821,110.245 C222.821,110.245 234.412,102.064 237.259,86.844 C237.259,86.844 243.944,66.132 239.571,43.436" fill="#4C2605" id="path18312"/>
    <path d="M74.083,57.83 C74.083,57.83 74.915,61.213 77.124,66.886 C77.124,66.886 81.723,75.845 88.173,80.861 C88.173,80.861 96.594,85.878 99.222,92.089 C99.222,92.089 103.112,97.696 102.032,106.717 C102.032,106.717 101.909,110.185 98.147,115.859 C98.147,115.859 89.129,112.514 82.858,107.736 C82.858,107.736 68.047,101.465 66.554,78.353 C66.554,78.353 65.547,66.132 74.083,57.83" fill="#C4C4C4" id="path18314"/>
    <path d="M299.111,63.663 C299.111,63.663 290.304,62.112 281.911,68.917 C273.518,75.723 266.082,91.611 266.082,91.611 C266.082,91.611 265.786,98.181 262.92,105.706 C260.053,113.231 255.04,121.263 244.171,123.469 C244.171,123.469 232.7,128.997 258.5,128.4 C258.5,128.4 268.533,123.981 278.328,114.545 C288.122,105.109 296.483,89.581 297.797,81.459 C297.797,81.459 300.305,69.397 299.111,63.663" fill="#C4C4C4" id="path18316"/>
    <path d="M528.367,430.666 L529.641,432.763 C529.641,432.763 530.264,438.834 530.473,439.49 C530.682,440.147 530.951,440.894 531.727,440.147 C532.503,439.401 536.116,435.161 536.116,435.161 L538.117,432.413 L540.446,437.907 L541.402,440.459 L547.508,432.836 L548.181,431.488 L550.151,437.221 L550.509,439.699 C550.509,439.699 554.839,437.519 555.974,435.907 C557.109,434.295 558.273,432.903 558.273,432.903 L560.155,437.012 L560.662,439.401 C560.662,439.401 564.972,436.766 565.858,435.326 C566.744,433.884 566.216,433.817 566.216,433.817 L569.418,438.084 L569.716,438.117 L572.726,435.877 L573.354,435.326 L575.984,437.66 L582.64,439.52 L579.445,460.811 C579.445,460.811 577.056,470.128 574.667,471.322 C572.278,472.517 557.945,478.967 548.509,478.489 C539.073,478.011 520.918,476.1 520.918,476.1 L515.423,474.786 C515.423,474.786 514.945,462.483 517.334,454.003 C519.723,445.522 524.62,429.715 524.62,429.715 z" fill="#AA6C22" id="path18318"/>
    <path d="M528.367,430.667 C528.367,430.667 520.018,461.059 520.201,475.503 C520.249,479.325 518.876,475.797 518.876,475.797 L515.423,474.786 C515.423,474.786 516.259,458.781 517.215,454.719 C518.17,450.658 523.545,435.326 523.545,435.326 L524.74,431.708 z" fill="#FFB25F" id="path18320"/>
    <path d="M228.677,441.815 L228.882,443.633 L227.901,449.631 L231.267,445.723 L237.955,437.201 L241.251,431.886 C241.251,431.886 242.335,434.335 242.693,436.604 C243.052,438.874 243.45,440.586 243.49,441.781 C243.53,442.975 244.501,446.018 244.923,446.717 C245.344,447.416 245.918,448.269 245.918,448.269 L251.333,441.86 L254.359,438.953 L257.464,447.274 L258.54,449.631 L266.781,442.735 L272.479,451.397 L277.291,446.245 L282.388,452.968 L285.733,474.986 C285.733,474.986 282.588,478.767 277.451,480.839 C272.315,482.909 258.929,489.299 239.787,487.566 C239.787,487.566 227.644,486.85 220.158,482.988 C212.673,479.126 202.561,474.11 202.561,474.11 C202.561,474.11 210.961,458.025 214.743,452.808 C214.743,452.808 223.025,443.691 224.737,442.019 C226.449,440.347 227.455,439.869 227.455,439.869 z" fill="#AA6C22" id="path18322"/>
    <path d="M277.264,446.346 C277.264,446.346 286.206,485.173 235.684,484.797 L236.602,487.861 L266.861,485.377 L282.787,479.644 L287.087,475.185 L282.468,456.393 L280.239,448.271 z" fill="#562F08" id="path18324"/>
    <path d="M228.677,441.815 C228.677,441.815 215.022,455.555 212.036,478.608 L203.197,474.308 L207.856,463.916 L225.533,440.864 z" fill="#FFB25F" id="path18326"/>
    <path d="M88.731,402.563 L88.296,406.724 L83.033,414.167 L88.731,409.888 L95.101,406.942 L97.387,406.598 L93.986,412.596 L91.63,417.576 L91.757,418.886 L95.181,416.02 L101.471,413.631 L106.031,412.749 L106.54,412.854 L105.054,420.001 L103.701,424.063 L109.036,418.807 C109.036,418.807 113.177,416.497 114.849,416.179 C116.521,415.86 119.534,416.488 119.534,416.488 L117.238,420.32 L112.688,427.375 L112.142,428.282 L116.68,427.725 L121.378,426.929 L124.811,426.204 L123.255,430.988 L126.595,428.907 L129.034,427.862 L130.102,432.822 C130.102,432.822 131.332,440.864 130.695,447.632 C130.695,447.632 125.917,454.162 117.715,454.162 C109.514,454.162 90.164,453.844 85.386,452.41 C80.608,450.976 64.205,446.597 64.205,446.597 L53.535,440.864 L53.535,436.564 L61.498,419.557 L73.76,407.738 L81.484,404.155 z" fill="#AA6C22" id="path18328"/>
    <path d="M128.738,428.146 C128.738,428.146 126.518,453.658 74.777,446.346 L72.726,447.662 L75.273,449.385 L102.029,454.96 L124.007,454.96 L130.878,450.022 C130.878,450.022 131.877,437.484 128.738,428.146" fill="#562F08" id="path18330"/>
    <path d="M87.916,406.605 C87.916,406.605 71.451,405.212 56.879,441.552 L53.535,439.43 L58.193,427.606 L69.062,411.481 L78.26,405.993 L85.784,404.075 z" fill="#FFB25F" id="path18332"/>
    <path d="M616.527,51.674 C616.527,51.674 628.52,131.147 539.065,185.792 L541.402,192.004 L544.268,194.572 L554.481,187.106 L578.064,167.04 L598.018,140.822 L613.845,104.989 L619.219,68.26 L619.219,53.688 z" fill="#C4C4C4" id="path18334"/>
    <path d="M157.57,132.62 L151.717,139.15 L148.217,149.661 L152.894,155.753 L156.734,155.753 L159.854,140.105 L160.317,133.455 z" fill="#00B1FF" id="path18336"/>
    <path d="M192.089,136.642 L184.325,139.269 L180.623,151.572 L187.789,157.545 L193.762,158.619 L196.871,155.036 L195.195,142.733 z" fill="#00B1FF" id="path18338"/>
    <path d="M581.748,439.271 C581.748,439.271 577.343,467.626 536.828,476.163 L533.698,479.325 L550.181,479.325 C550.181,479.325 567.262,476.697 570.008,474.666 C572.756,472.636 578.251,468.455 578.967,466.067 C579.684,463.678 583.148,443.731 583.148,443.731 z" fill="#562F08" id="path18340"/>
    <path d="M397.771,399.775 L397.054,404.911 C397.054,404.911 403.206,409.988 407.208,412.198 L418.615,417.155 L422.138,417.871 C422.138,417.871 422.436,423.067 424.527,425.456 C426.617,427.845 430.141,429.935 432.589,429.696 C435.038,429.457 440.293,425.695 440.831,423.664 C441.368,421.634 443.698,419.006 443.698,419.006 L453.193,417.453 C453.193,417.453 454.865,423.246 458.688,425.635 C462.51,428.024 469.079,426.65 469.676,424.142 C470.274,421.634 471.349,413.631 471.349,413.631 L481.979,409.928 C481.979,409.928 488.728,417.453 494.043,417.095 C499.358,416.737 503.296,413.731 503.598,408.017 C503.598,408.017 504.255,404.255 502.106,399.477 C502.106,399.477 507.361,395.048 509.571,391.708 L502.942,379.589 L497.507,372.423 L490.997,374.752 C490.997,374.752 475.589,382.277 464.063,385.801 C464.063,385.801 420.048,401.03 397.771,399.775" fill="#FFC0C0" id="path18342"/>
    <path d="M443.438,409.992 C443.438,411.826 437.779,413.313 430.797,413.313 C423.815,413.313 418.156,411.826 418.156,409.992 C418.156,408.157 423.815,406.67 430.797,406.67 C437.779,406.67 443.438,408.157 443.438,409.992" fill="#FFF3F3" id="path18344"/>
    <path d="M441.9,416.576 C441.9,416.576 434.381,428.741 425.542,424.202 L427.513,427.427 L434.739,429.099 L439.637,425.695 L441.9,420.201 z" fill="#FF6666" id="path18346"/>
    <path d="M468.758,411.64 C468.758,411.64 468.601,424.023 460.718,424.56 L461.136,426.711 L467.167,426.711 L472.125,422.231 L471.349,413.631 z" fill="#FF6666" id="path18348"/>
    <path d="M501.198,399.165 C501.198,399.165 502.105,409.487 496.909,411.709 C496.909,411.709 492.012,414.784 486.219,411.64 L487.234,414.885 L494.819,416.576 L499.298,415.662 L502.165,411.709 L503.479,407.361 L502.881,403.061 C502.881,403.061 503.098,401.241 501.198,399.165" fill="#FF6666" id="path18350"/>
    <path d="M159.173,350.122 C159.173,350.122 182.614,360.918 195.274,364.501 C207.936,368.084 222.11,370.871 222.11,370.871 L224.26,396.591 L224.976,401.608 L211.917,394.6 C211.917,394.6 196.439,383.213 192.075,380.586 C187.71,377.958 179.19,372.862 177.676,370.632 C176.164,368.403 168.679,360.839 168.679,360.839 z" fill="#C4C4C4" id="path18352"/>
    <path d="M295.234,387.344 C295.234,387.344 386.486,395.893 481.711,351.491 L496.193,369.748 L496.91,372.901 L476.962,381.142 C476.962,381.142 428.916,398.582 390.828,404.075 C390.828,404.075 362.416,408.854 328.852,408.973 C328.852,408.973 298.872,408.734 289.556,407.659 L293.258,390.818 z" fill="#C4C4C4" id="path18354"/>
    <path d="M376.832,405.818 L372.214,428.201 L356.607,449.693 C356.607,449.693 389.256,466.097 417.284,453.356 C417.284,453.356 420.982,433.301 420.151,417.701 L408.521,412.446 L393.233,402.572 z" fill="#000000" id="path18356"/>
    <path d="M233.301,99.038 C234.816,98.15 236.163,97.022 237.463,95.861 C238.752,94.686 239.989,93.456 241.173,92.178 C242.357,90.9 243.492,89.578 244.589,88.226 C245.696,86.882 246.764,85.507 247.801,84.108 C249.879,81.308 251.802,78.423 253.706,75.483 C255.645,72.508 257.732,69.618 260.002,66.852 C262.281,64.095 264.773,61.49 267.478,59.092 C270.187,56.7 273.125,54.518 276.312,52.709 C279.501,50.909 282.924,49.47 286.487,48.496 C290.048,47.519 293.74,47.007 297.425,46.942 L299.03,46.913 L299.587,48.431 C299.743,48.857 299.845,49.175 299.961,49.539 C300.071,49.892 300.176,50.243 300.275,50.594 C300.474,51.296 300.654,51.997 300.82,52.699 C301.152,54.104 301.426,55.516 301.652,56.934 C302.108,59.769 302.352,62.631 302.41,65.497 C302.469,68.362 302.341,71.233 302.022,74.083 C301.692,76.932 301.175,79.76 300.471,82.541 C299.076,88.106 296.875,93.457 294.071,98.435 C291.238,103.402 287.791,107.982 283.93,112.132 C283.447,112.651 282.959,113.164 282.463,113.67 L281.732,114.414 L280.959,115.178 C279.927,116.171 278.861,117.105 277.778,118.018 C275.61,119.84 273.353,121.545 271.014,123.13 C266.345,126.309 261.294,128.969 255.94,130.834 C250.604,132.72 244.9,133.695 239.254,133.404 C237.83,133.335 236.443,133.143 235.053,132.897 C233.669,132.633 232.28,132.32 230.953,131.702 C230.624,131.543 230.298,131.36 229.992,131.125 C229.69,130.891 229.399,130.592 229.228,130.195 C229.05,129.798 229.069,129.322 229.218,128.956 C229.361,128.582 229.591,128.281 229.833,128.012 C230.837,126.967 232.072,126.304 233.301,125.674 C232.722,126.053 232.158,126.453 231.622,126.882 C231.089,127.309 230.576,127.773 230.18,128.3 C229.783,128.819 229.548,129.461 229.828,129.91 C230.096,130.371 230.696,130.686 231.293,130.913 C232.521,131.36 233.879,131.55 235.222,131.683 C236.57,131.807 237.941,131.854 239.279,131.827 C244.701,131.717 250.004,130.352 254.98,128.309 C257.47,127.277 259.882,126.056 262.208,124.69 C264.534,123.323 266.798,121.847 268.968,120.237 C271.139,118.631 273.228,116.912 275.219,115.095 C276.214,114.188 277.18,113.249 278.113,112.301 L278.797,111.59 L279.5,110.838 C279.959,110.346 280.411,109.846 280.857,109.344 C284.423,105.313 287.553,100.921 290.082,96.221 C292.646,91.54 294.582,86.542 295.872,81.386 C297.147,76.227 297.747,70.902 297.666,65.584 C297.622,62.926 297.405,60.269 297.025,57.642 C296.833,56.329 296.595,55.024 296.308,53.736 C296.165,53.092 296.009,52.453 295.839,51.823 C295.754,51.508 295.665,51.196 295.573,50.889 C295.485,50.594 295.376,50.253 295.298,50.029 L297.459,51.519 C294.129,51.506 290.806,51.876 287.579,52.678 C284.352,53.475 281.225,54.695 278.264,56.269 C272.31,59.385 267.043,63.873 262.416,68.952 C260.085,71.484 257.898,74.171 255.843,76.964 C253.786,79.815 251.585,82.611 249.28,85.291 C248.126,86.632 246.942,87.948 245.721,89.229 C244.49,90.501 243.223,91.739 241.912,92.926 C240.599,94.112 239.247,95.256 237.818,96.298 C236.388,97.33 234.919,98.338 233.301,99.038" fill="#000000" id="path18358"/>
    <path d="M61.501,231.899 C59.289,229.454 56.949,227.187 54.413,225.236 C51.893,223.287 49.188,221.621 46.342,220.64 C44.923,220.149 43.475,219.841 42.041,219.746 C40.605,219.663 39.184,219.786 37.811,220.143 C36.44,220.502 35.108,221.055 33.855,221.804 C32.596,222.537 31.399,223.431 30.281,224.446 C29.218,225.356 28.291,226.511 27.459,227.743 C26.619,228.97 25.916,230.301 25.321,231.683 C24.129,234.451 23.451,237.461 23.209,240.549 C22.966,243.641 23.177,246.81 23.689,249.971 C24.179,253.144 25.043,256.284 25.987,259.451 C24.174,256.682 22.743,253.661 21.641,250.483 C20.564,247.299 19.906,243.92 19.829,240.463 C19.748,237.012 20.293,233.486 21.532,230.172 C22.801,226.866 24.635,223.763 27.416,221.241 C28.735,220.075 30.175,218.999 31.762,218.116 C33.352,217.244 35.083,216.548 36.904,216.177 C38.722,215.805 40.611,215.728 42.43,215.986 C44.254,216.227 45.997,216.78 47.61,217.519 C50.837,219.017 53.543,221.224 55.835,223.691 C58.098,226.189 60.067,228.91 61.501,231.899" fill="#000000" id="path18360"/>
    <path d="M93.194,258.336 C93.179,256.401 93.388,254.467 93.7,252.545 C94.013,250.622 94.489,248.723 95.068,246.84 C96.263,243.097 98.045,239.447 100.639,236.277 C103.211,233.111 106.718,230.518 110.704,229.145 C112.686,228.443 114.764,228.05 116.832,227.884 C118.898,227.729 120.986,227.828 122.977,228.081 C125.026,228.359 127.016,228.809 128.977,229.468 C130.923,230.146 132.816,231.014 134.574,232.107 C138.099,234.284 141.055,237.296 143.236,240.696 C145.43,244.099 146.921,247.846 147.846,251.663 C148.289,253.578 148.636,255.505 148.82,257.446 C149.002,259.383 149.085,261.328 148.934,263.257 C148.249,259.466 147.231,255.787 145.833,252.299 C144.446,248.816 142.695,245.515 140.472,242.643 C138.254,239.772 135.569,237.344 132.489,235.613 C129.425,233.87 125.97,232.803 122.441,232.347 C120.634,232.097 118.875,232.015 117.114,232.114 C115.36,232.201 113.637,232.507 111.979,233.008 C108.659,234.009 105.651,235.942 103.156,238.518 C100.648,241.087 98.646,244.242 97.02,247.613 C95.383,250.991 94.135,254.6 93.194,258.336" fill="#000000" id="path18362"/>
    <path d="M144.725,340.165 C143.159,340.165 141.415,339.956 139.548,339.4 C132.341,337.253 126.037,330.811 120.81,320.255 L123.379,318.983 C128.221,328.762 133.915,334.7 140.302,336.633 C146.359,338.466 150.954,335.877 151,335.851 L151.064,335.817 C153.692,334.458 155.408,332.413 156.311,329.563 C159.323,320.05 151.855,305.548 151.779,305.402 L154.321,304.077 C154.653,304.714 162.412,319.792 159.044,330.429 C157.919,333.981 155.686,336.645 152.408,338.348 C152.004,338.577 149.047,340.165 144.725,340.165" fill="#000000" id="path18364"/>
    <path d="M129.19,336.601 C123.122,338.181 116.924,339.339 110.679,339.839 C107.558,340.095 104.423,340.174 101.304,339.984 C98.188,339.794 95.087,339.324 92.099,338.445 C89.118,337.561 86.253,336.21 83.818,334.246 C81.366,332.31 79.415,329.726 78.144,326.817 C79.212,329.803 81.004,332.57 83.396,334.739 C85.787,336.913 88.69,338.486 91.726,339.577 C94.77,340.678 97.964,341.294 101.163,341.644 C104.367,341.99 107.592,342.059 110.802,341.946 C117.227,341.685 123.59,340.723 129.853,339.34 C131.419,338.989 132.98,338.617 134.533,338.19 C134.956,338.073 135.367,337.959 135.785,337.839 C134.658,337.237 133.558,336.515 132.482,335.686 C131.389,336.003 130.293,336.313 129.19,336.601" fill="#000000" id="path18366"/>
    <path d="M221.058,206.436 C217.86,218.703 214.717,230.983 211.234,243.149 C210.358,246.188 209.492,249.228 208.591,252.255 C208.141,253.768 207.685,255.28 207.215,256.783 C206.748,258.27 206.259,259.768 205.754,261.25 C203.726,267.181 201.389,272.999 198.661,278.615 C195.96,284.242 192.874,289.679 189.338,294.801 C185.81,299.926 181.817,304.718 177.427,309.115 C173.045,313.521 168.229,317.496 163.079,321 C162.019,321.724 160.942,322.42 159.854,323.101 C159.927,324.587 159.883,326.065 159.688,327.5 C167.143,323.218 174.106,318.036 180.289,312.012 C189.571,302.957 196.925,292.069 202.531,280.481 C205.317,274.669 207.685,268.679 209.729,262.595 C210.24,261.073 210.728,259.551 211.203,258.01 C211.671,256.483 212.122,254.956 212.569,253.427 C213.461,250.369 214.328,247.306 215.146,244.233 C216.795,238.089 218.366,231.929 219.894,225.764 C221.434,219.6 222.888,213.417 224.306,207.227 C225.719,201.037 227.138,194.85 228.472,188.643 C229.808,182.436 231.131,176.229 232.418,170.014 C234.95,157.574 237.429,145.124 239.632,132.62 C233.411,157.235 227.351,181.873 221.058,206.436" fill="#000000" id="path18368"/>
    <path d="M19.107,257.204 C17.675,261.536 16.661,266.046 16.287,270.652 C15.909,275.253 16.186,279.947 17.241,284.48 C18.285,289.014 20.1,293.368 22.538,297.3 C24.967,301.241 27.969,304.78 31.308,307.904 C34.65,311.03 38.325,313.754 42.201,316.116 C44.14,317.297 46.132,318.387 48.173,319.383 C49.195,319.881 50.228,320.354 51.282,320.8 C51.814,321.023 52.333,321.236 52.902,321.447 L53.009,321.486 L53.2,321.55 L53.402,321.609 L53.806,321.728 L54.614,321.961 C58.93,323.191 63.315,324.186 67.74,324.93 C76.59,326.412 85.617,326.896 94.554,326.225 C103.491,325.564 112.329,323.826 120.832,321.111 C129.329,318.37 137.507,314.71 145.181,310.222 C152.837,305.718 160.11,300.513 166.453,294.328 C163.161,297.286 159.593,299.911 155.935,302.378 C152.276,304.845 148.492,307.118 144.604,309.187 C136.829,313.324 128.66,316.701 120.222,319.102 C103.374,324.004 85.465,324.878 68.324,321.639 C64.039,320.835 59.8,319.788 55.63,318.515 L54.848,318.274 L54.459,318.151 L54.3,318.1 C54.299,318.1 54.289,318.097 54.259,318.085 L54.172,318.053 C53.707,317.871 53.203,317.662 52.718,317.45 C51.739,317.023 50.766,316.564 49.805,316.082 C47.881,315.116 46,314.058 44.173,312.917 C36.887,308.359 30.367,302.442 26.005,295.188 C23.835,291.569 22.21,287.646 21.283,283.551 C20.347,279.459 20.108,275.213 20.469,271.001 C20.828,266.785 21.778,262.604 23.137,258.545 C23.415,257.715 23.714,256.892 24.025,256.073 C23.115,254.307 22.333,252.465 21.671,250.566 C20.718,252.732 19.854,254.943 19.107,257.204" fill="#000000" id="path18370"/>
    <path d="M219.854,109.304 C219.361,109.39 218.301,109.541 216.94,109.541 C212.802,109.541 207.208,108.215 204.049,101.898 L204.023,101.848 C203.992,101.789 201.064,96.203 200.625,89.033 C203.237,87.702 209.126,84.171 215.695,76.754 C222.507,69.062 231.248,55.679 236.777,34.016 C239.617,53.825 242.514,95.428 219.854,109.304 M239.101,22.356 L236.764,12.074 L234.888,22.45 C230.013,49.414 220.126,65.181 212.69,73.66 C207.963,79.05 203.604,82.254 200.806,83.984 C200.671,83.809 200.532,83.637 200.391,83.467 C199.752,82.699 199.05,81.983 198.306,81.306 C196.813,79.959 195.129,78.8 193.319,77.853 C189.696,75.96 185.536,74.977 181.405,75.016 C177.268,75.036 173.205,76.053 169.559,77.733 C168.336,78.302 167.159,78.945 166.025,79.65 C165.685,79.468 165.348,79.28 165.017,79.085 C164.027,78.497 163.092,77.872 162.134,77.203 C160.99,76.482 159.844,76.037 158.653,75.657 C157.466,75.285 156.252,75.024 155.022,74.851 C152.563,74.509 150.035,74.547 147.551,74.976 C146.307,75.186 145.082,75.517 143.88,75.923 C142.682,76.34 141.52,76.865 140.399,77.463 C140.276,77.531 140.156,77.604 140.035,77.674 L140.618,76.432 C140.57,76.408 135.709,73.995 131.431,66.341 C127.425,59.171 123.131,45.841 125.433,23.049 L126.246,14.998 L121.543,21.584 C121.194,22.073 112.936,33.763 108.962,50.013 C107.058,57.797 106.496,65.274 107.233,72.351 C104.778,68.835 101.967,65.551 98.887,62.536 C94.724,58.469 90.051,54.907 85.048,51.908 C80.047,48.9 74.72,46.45 69.229,44.515 L66.846,43.675 L66.21,46.137 C65.941,47.174 65.73,48.121 65.519,49.111 C65.312,50.091 65.13,51.074 64.956,52.057 C64.611,54.023 64.321,55.997 64.082,57.979 C63.616,61.943 63.371,65.939 63.394,69.95 C63.437,73.96 63.725,77.99 64.444,81.979 C65.147,85.967 66.271,89.921 67.967,93.668 C68.817,95.539 69.824,97.348 70.984,99.06 L71.427,99.697 L71.861,100.303 C72.194,100.764 72.525,101.169 72.871,101.567 C73.559,102.359 74.277,103.096 75.017,103.801 C76.497,105.212 78.071,106.488 79.707,107.66 C81.339,108.835 83.031,109.911 84.767,110.892 C90.72,114.24 97.094,116.631 103.615,118.236 C102.517,121.908 101.332,125.548 100.082,129.168 C96.935,138.254 93.381,147.195 89.647,156.071 C85.905,164.945 81.966,173.749 77.938,182.533 L66.998,206.224 C65.714,206.738 64.44,207.279 63.181,207.855 C57.558,210.426 52.226,213.633 47.302,217.384 C47.405,217.429 47.508,217.472 47.61,217.519 C48.905,218.12 50.112,218.839 51.246,219.639 C55.517,216.512 60.099,213.802 64.894,211.549 C72.705,207.866 81.109,205.444 89.697,204.241 C93.991,203.635 98.333,203.334 102.683,203.287 C107.033,203.231 111.393,203.444 115.734,203.888 C120.076,204.333 124.4,205.01 128.689,205.882 L130.296,206.22 L130.697,206.306 L130.87,206.34 L130.967,206.357 L131.163,206.391 L131.962,206.539 C133.032,206.741 134.104,206.963 135.174,207.195 C137.314,207.663 139.452,208.16 141.579,208.702 C150.091,210.867 158.47,213.606 166.595,216.965 C174.725,220.304 182.6,224.311 189.929,229.186 C193.591,231.624 197.104,234.296 200.388,237.236 C203.681,240.164 206.744,243.369 209.452,246.869 C206.918,243.24 204.003,239.871 200.832,236.761 C197.649,233.66 194.209,230.822 190.61,228.207 C183.399,222.982 175.54,218.693 167.43,215.026 C159.298,211.393 150.885,208.408 142.309,205.98 C140.163,205.376 138.008,204.802 135.834,204.291 C134.747,204.033 133.657,203.787 132.557,203.556 L131.728,203.387 L131.516,203.346 L131.414,203.326 C131.422,203.328 131.423,203.328 131.379,203.318 L130.971,203.222 L129.337,202.847 C124.973,201.873 120.559,201.095 116.108,200.554 C111.657,200.013 107.17,199.708 102.672,199.68 C98.174,199.659 93.668,199.932 89.193,200.508 C81.955,201.436 74.797,203.204 67.962,205.843 C72.825,198.901 77.181,191.625 81.282,184.216 C85.969,175.681 90.252,166.916 94.047,157.927 C97.837,148.939 101.147,139.72 103.675,130.265 C104.675,126.492 105.547,122.681 106.24,118.838 C106.47,118.887 106.7,118.938 106.93,118.985 C106.706,118.901 106.484,118.813 106.26,118.729 C106.428,117.791 106.589,116.852 106.735,115.911 C107.102,113.491 107.411,111.063 107.597,108.625 C107.691,107.405 107.767,106.186 107.817,104.967 C107.849,103.745 107.878,102.527 107.845,101.307 C106.757,106.896 105.354,112.363 103.754,117.759 C101.177,116.735 98.639,115.643 96.168,114.425 C92.671,112.754 89.319,110.818 86.149,108.672 C82.991,106.513 80.018,104.098 77.467,101.372 C76.834,100.69 76.229,99.987 75.679,99.269 C75.407,98.911 75.139,98.543 74.917,98.201 L74.528,97.596 L74.163,97.01 C73.205,95.439 72.399,93.774 71.701,92.06 C70.31,88.625 69.42,84.97 68.856,81.255 C68.312,77.533 68.072,73.744 68.103,69.944 C68.116,66.143 68.376,62.33 68.82,58.536 C69.038,56.638 69.306,54.745 69.625,52.862 C69.783,51.921 69.959,50.983 70.141,50.05 C70.157,49.968 70.174,49.885 70.19,49.803 C74.579,51.407 78.852,53.314 82.94,55.566 C87.794,58.242 92.389,61.394 96.605,65.022 C100.804,68.629 104.606,72.719 107.949,77.192 C110.046,87.958 115.323,97.688 123.688,106.016 L126.722,102.969 C112.726,89.036 108.146,71.606 113.108,51.161 C115.008,43.335 118.017,36.529 120.539,31.698 C119.462,64.875 132.777,76.491 137.325,79.476 C137.291,79.502 137.256,79.526 137.222,79.553 C136.231,80.341 135.292,81.188 134.438,82.107 C132.727,83.943 131.307,86.005 130.188,88.18 C129.066,90.356 128.22,92.634 127.624,94.952 C127.034,97.272 126.66,99.625 126.575,101.996 C128.535,97.693 130.51,93.547 133.083,89.927 C135.625,86.303 138.752,83.255 142.46,81.236 C146.155,79.208 150.414,78.209 154.775,78.211 C155.864,78.21 156.958,78.274 158.042,78.404 C159.114,78.54 160.224,78.739 161.159,79.066 C162.251,79.495 163.402,79.904 164.568,80.189 C164.72,80.226 164.874,80.262 165.028,80.296 C163.167,81.551 161.446,82.988 159.919,84.618 C163.617,83.241 167.146,81.866 170.725,80.906 C174.29,79.931 177.871,79.34 181.436,79.314 C185,79.283 188.546,79.826 192.001,80.954 C194.687,81.831 197.316,83.023 199.882,84.537 C198.486,85.342 197.659,85.681 197.638,85.689 L196.253,86.233 L196.274,87.721 C196.396,96.42 199.909,103.265 200.215,103.845 C204.577,112.541 212.564,113.841 216.94,113.841 C219.361,113.841 221.058,113.451 221.129,113.434 L221.453,113.358 L221.739,113.189 C229.526,108.557 235.264,100.797 238.793,90.124 C241.554,81.774 242.977,71.615 243.021,59.928 C243.095,40.172 239.264,23.075 239.101,22.356" fill="#000000" id="path18372"/>
    <path d="M135.557,121.374 C135.557,121.374 146.378,114.366 159.919,115.004 L160.879,106.722 C160.879,106.722 148.138,106.244 135.557,114.685 z" fill="#000000" id="path18374"/>
    <path d="M191.456,110.385 L188.271,118.985 C188.271,118.985 197.667,124.082 203.241,131.089 L205.471,125.037 C205.471,125.037 199.101,115.163 191.456,110.385" fill="#000000" id="path18376"/>
    <path d="M178.078,187.406 C177.209,187.406 176.305,187.332 175.392,187.187 C170.296,186.376 165.767,183.536 162.641,179.188 C158.55,173.498 157.186,165.726 158.695,156.71 C159.196,154.242 159.662,151.894 160.08,149.667 C163.478,134.828 168.791,126.795 175.925,125.723 C174.276,128.074 171.412,133.521 171.668,142.755 C172.012,155.14 181.388,166.196 195.138,163.781 C194.887,171.443 192.647,178.183 188.761,182.516 C185.849,185.76 182.255,187.406 178.078,187.406 M133.288,178.858 C132.626,178.858 131.935,178.836 131.234,178.791 C127.638,178.563 124.797,177.179 122.789,174.679 C120.166,171.413 119.207,166.496 120.088,160.835 C123.01,142.053 138.041,130.375 147.78,126.785 C145.427,130.739 140.396,140.506 141.688,149.921 C141.688,149.921 143.255,158.761 153.104,161.495 C149.549,173.597 143.431,178.858 133.288,178.858 M154.876,153.634 C154.816,153.631 154.755,153.638 154.696,153.628 C152.62,153.29 151.578,149.083 152.368,144.232 C153.158,139.382 155.482,135.724 157.558,136.062 C157.604,136.07 157.647,136.089 157.692,136.1 C157.434,139.917 156.707,144.397 155.866,148.855 C155.515,150.385 155.185,151.98 154.876,153.634 M189.993,139.635 C190.36,139.579 190.726,139.576 191.089,139.61 C192.681,144.014 193.908,149.344 194.678,155.454 C194.049,155.931 193.335,156.255 192.553,156.375 C189.203,156.887 185.914,153.556 185.207,148.933 C184.5,144.311 186.643,140.148 189.993,139.635 M186.736,189.736 C186.637,189.728 186.54,189.716 186.441,189.707 C188.465,188.662 190.32,187.216 191.961,185.387 C197.72,178.968 200.414,168.287 199.167,156.816 C196.75,134.573 188.687,121.294 177.6,121.294 C171.287,121.294 166.094,124.825 162.053,131.817 C161.883,128.503 161.157,125.91 159.657,124.076 C158.148,122.23 155.987,121.294 153.234,121.294 C142.183,121.294 119.591,136.055 115.839,160.174 C114.77,167.044 116.048,173.151 119.436,177.371 C120.014,178.091 120.649,178.743 121.331,179.333 C120.728,179.29 120.124,179.239 119.522,179.174 C115.12,178.691 110.705,177.589 106.731,175.363 C108.512,176.774 110.5,177.955 112.59,178.928 C114.682,179.903 116.877,180.675 119.119,181.286 C121.362,181.897 123.652,182.346 125.967,182.66 C127.125,182.816 128.29,182.939 129.462,183.024 C130.53,183.098 131.565,183.151 132.687,183.148 C132.888,183.152 133.091,183.158 133.288,183.158 C142.991,183.158 149.869,178.93 154.352,170.045 C155.284,175.23 157.247,179.051 159.15,181.698 C162.951,186.984 168.479,190.441 174.717,191.434 C175.129,191.499 175.539,191.549 175.948,191.591 C175.984,191.595 176.021,191.603 176.058,191.608 C177.251,191.765 178.443,191.878 179.632,191.948 C182.012,192.088 184.385,192.065 186.737,191.885 C191.438,191.527 196.051,190.53 200.374,188.9 C195.85,189.841 191.245,190.093 186.736,189.736" fill="#000000" id="path18378"/>
    <path d="M74.083,57.83 C74.912,60.137 75.888,62.355 77.005,64.488 C78.115,66.622 79.347,68.674 80.722,70.609 C82.096,72.544 83.604,74.366 85.259,76.028 C86.089,76.858 86.944,77.658 87.846,78.401 C88.295,78.774 88.749,79.141 89.215,79.493 L89.92,80.011 L90.278,80.263 L90.484,80.407 L90.69,80.559 C92.725,82.131 94.521,83.877 96.162,85.802 C97.79,87.726 99.236,89.823 100.368,92.094 C101.498,94.36 102.319,96.804 102.639,99.314 C102.949,101.819 102.788,104.375 102.032,106.717 C102.157,104.265 101.921,101.861 101.259,99.592 C100.617,97.319 99.623,95.179 98.395,93.185 C97.165,91.191 95.72,89.329 94.124,87.601 C93.326,86.737 92.499,85.899 91.631,85.106 C90.772,84.308 89.872,83.533 88.961,82.844 L88.801,82.724 L88.635,82.605 L88.247,82.328 C87.991,82.14 87.737,81.95 87.486,81.756 C86.983,81.367 86.489,80.969 86.012,80.551 C85.06,79.714 84.145,78.834 83.295,77.899 C81.588,76.033 80.096,73.987 78.833,71.824 C77.572,69.66 76.527,67.385 75.718,65.039 C74.934,62.689 74.296,60.285 74.083,57.83" fill="#000000" id="path18380"/>
    <path d="M293.142,63.663 C292.274,63.892 291.435,64.196 290.615,64.542 C289.794,64.882 288.992,65.26 288.211,65.677 C286.65,66.508 285.156,67.447 283.759,68.511 C280.941,70.605 278.476,73.118 276.326,75.858 C274.204,78.622 272.353,81.593 270.847,84.745 L269.731,87.141 C269.348,87.969 268.957,88.785 268.549,89.599 C267.736,91.226 266.869,92.833 265.928,94.405 C264.026,97.531 261.815,100.527 259.133,103.115 C256.449,105.685 253.323,107.865 249.884,109.279 C248.172,109.996 246.411,110.575 244.619,110.981 C242.828,111.388 241.02,111.665 239.212,111.834 C235.59,112.139 231.976,112.068 228.404,111.691 C231.985,111.432 235.547,111.123 239.017,110.44 C242.486,109.79 245.86,108.77 248.953,107.245 C250.495,106.474 251.963,105.576 253.351,104.572 C254.735,103.562 256.026,102.425 257.22,101.19 C259.62,98.728 261.671,95.906 263.479,92.919 C264.395,91.431 265.248,89.897 266.054,88.334 C266.457,87.553 266.85,86.76 267.228,85.968 C267.603,85.176 267.999,84.327 268.431,83.524 C270.153,80.29 272.162,77.18 274.612,74.435 C277.03,71.668 279.853,69.252 282.978,67.349 C284.549,66.416 286.184,65.591 287.887,64.956 C289.589,64.327 291.347,63.822 293.142,63.663" fill="#000000" id="path18382"/>
    <path d="M244.171,123.468 C245.749,122.895 247.215,122.167 248.597,121.324 C249.979,120.486 251.277,119.548 252.482,118.516 C254.898,116.457 256.942,114.032 258.652,111.373 C260.364,108.711 261.75,105.821 262.919,102.804 C264.098,99.784 265.04,96.641 266.029,93.424 C266.225,96.786 265.877,100.172 265.069,103.479 C264.252,106.78 262.942,110.011 261.061,112.925 C259.189,115.836 256.732,118.421 253.823,120.318 C252.368,121.263 250.811,122.042 249.184,122.594 C247.555,123.124 245.868,123.518 244.171,123.468" fill="#000000" id="path18384"/>
    <path d="M396.262,404.375 C398.216,405.872 400.281,407.198 402.369,408.463 C404.464,409.719 406.622,410.854 408.807,411.906 C413.191,413.983 417.767,415.598 422.431,416.611 L423.426,416.827 L423.568,418.044 L423.616,418.447 C423.636,418.597 423.661,418.749 423.689,418.902 C423.744,419.206 423.812,419.512 423.889,419.815 C424.044,420.422 424.246,421.014 424.48,421.585 C424.95,422.727 425.585,423.775 426.372,424.654 C427.159,425.534 428.094,426.245 429.137,426.774 C429.658,427.041 430.211,427.255 430.781,427.432 L431.211,427.554 L431.387,427.594 L431.577,427.631 C431.83,427.677 432.08,427.701 432.327,427.707 C433.312,427.731 434.261,427.453 435.184,426.886 C436.104,426.324 436.968,425.5 437.742,424.551 C438.516,423.599 439.218,422.531 439.836,421.402 C440.147,420.839 440.438,420.259 440.708,419.67 C440.842,419.376 440.971,419.081 441.095,418.785 C441.213,418.499 441.344,418.168 441.425,417.935 L441.899,416.576 L443.379,416.443 L453.246,415.56 L455.04,415.4 L455.695,417.231 L455.819,417.58 L455.978,417.986 C456.09,418.259 456.21,418.532 456.339,418.802 C456.595,419.34 456.881,419.864 457.192,420.364 C457.814,421.364 458.541,422.263 459.352,422.98 C460.99,424.419 462.873,425.053 465.038,424.742 C465.197,424.717 465.452,424.665 465.656,424.605 C465.865,424.539 466.064,424.466 466.251,424.376 C466.621,424.193 466.948,423.958 467.249,423.656 C467.853,423.06 468.333,422.153 468.649,421.09 C468.971,420.031 469.137,418.835 469.193,417.615 C469.219,417.004 469.227,416.385 469.204,415.764 C469.193,415.454 469.175,415.145 469.152,414.837 C469.13,414.542 469.095,414.198 469.065,413.971 L468.758,411.639 L471.008,411.391 C471.425,411.345 471.941,411.269 472.412,411.192 C472.895,411.112 473.377,411.023 473.858,410.925 C474.819,410.73 475.774,410.499 476.716,410.242 C478.594,409.721 480.422,409.058 482.064,408.183 L483.822,407.247 L484.772,408.867 C484.814,408.94 484.926,409.107 485.014,409.232 L485.308,409.641 C485.51,409.912 485.725,410.181 485.949,410.443 C486.395,410.967 486.874,411.465 487.38,411.927 C488.393,412.852 489.517,413.627 490.716,414.194 C491.915,414.76 493.198,415.097 494.514,415.161 C495.171,415.193 495.836,415.162 496.502,415.072 C496.835,415.022 497.169,414.965 497.5,414.885 L497.625,414.856 L497.656,414.848 L497.671,414.846 C497.631,414.859 497.772,414.813 497.584,414.875 L497.593,414.872 C497.584,414.877 497.604,414.869 497.615,414.865 C497.67,414.848 497.74,414.821 497.807,414.793 C497.945,414.737 498.088,414.671 498.229,414.599 C499.371,414.019 500.396,413.135 501.144,412.057 C501.899,410.979 502.361,409.684 502.574,408.308 C502.786,406.929 502.731,405.47 502.502,404.021 C502.277,402.568 501.86,401.127 501.378,399.698 L501.198,399.164 L501.6,398.893 C502.308,398.413 503.024,397.874 503.713,397.327 C504.403,396.776 505.078,396.203 505.731,395.605 C507.053,394.424 508.283,393.136 509.366,391.708 C508.524,393.294 507.432,394.746 506.267,396.126 C505.674,396.809 505.057,397.47 504.418,398.114 C503.774,398.758 503.128,399.375 502.42,399.985 L502.641,399.178 C503.327,400.595 503.888,402.086 504.294,403.645 C504.695,405.203 504.927,406.846 504.835,408.533 C504.753,410.215 504.286,411.941 503.399,413.47 C502.516,415.005 501.236,416.301 499.694,417.225 C499.501,417.341 499.301,417.452 499.09,417.558 C498.982,417.611 498.876,417.662 498.753,417.715 L498.641,417.76 L498.469,417.816 L498.316,417.863 C497.908,417.992 497.488,418.096 497.065,418.19 C496.217,418.369 495.342,418.475 494.461,418.481 C492.699,418.504 490.923,418.15 489.299,417.497 C487.665,416.852 486.192,415.911 484.876,414.829 C484.217,414.286 483.597,413.703 483.015,413.083 C482.722,412.774 482.441,412.454 482.167,412.123 C482.029,411.957 481.895,411.789 481.761,411.614 C481.622,411.429 481.511,411.282 481.344,411.032 L484.051,411.716 C482.08,412.863 480.022,413.688 477.943,414.353 C476.901,414.686 475.852,414.968 474.794,415.212 C474.264,415.336 473.732,415.448 473.197,415.552 C472.651,415.656 472.147,415.748 471.537,415.834 L473.481,413.254 C473.553,413.702 473.592,414.037 473.634,414.422 C473.674,414.795 473.705,415.166 473.728,415.537 C473.773,416.281 473.793,417.028 473.771,417.781 C473.724,419.287 473.554,420.823 473.113,422.389 C472.673,423.939 471.942,425.573 470.63,426.944 C469.984,427.626 469.188,428.201 468.335,428.624 C467.908,428.834 467.467,429.003 467.024,429.141 C466.572,429.274 466.161,429.369 465.645,429.447 C464.038,429.679 462.239,429.591 460.582,429.071 C458.913,428.561 457.411,427.644 456.187,426.545 C454.956,425.443 453.969,424.18 453.156,422.859 C452.75,422.197 452.386,421.518 452.059,420.823 C451.896,420.474 451.741,420.122 451.596,419.762 L451.385,419.213 C451.314,419.015 451.26,418.862 451.177,418.594 L453.625,420.264 L443.745,420.974 L445.699,419.481 C445.537,419.905 445.398,420.221 445.24,420.577 C445.085,420.924 444.924,421.264 444.758,421.602 C444.425,422.277 444.069,422.94 443.688,423.593 C442.922,424.895 442.061,426.164 441.021,427.345 C439.981,428.521 438.766,429.633 437.259,430.479 C435.772,431.323 433.912,431.84 432.092,431.679 C431.641,431.642 431.195,431.573 430.764,431.473 L430.443,431.392 L430.111,431.297 L429.541,431.104 C428.786,430.829 428.044,430.498 427.337,430.091 C425.919,429.289 424.645,428.2 423.646,426.925 C422.638,425.653 421.896,424.218 421.388,422.739 C421.131,422 420.942,421.244 420.8,420.483 C420.731,420.102 420.674,419.719 420.631,419.331 C420.611,419.136 420.593,418.942 420.58,418.743 C420.567,418.535 420.558,418.365 420.555,418.099 L421.692,419.532 C416.833,418.133 412.24,416.022 407.973,413.461 C405.831,412.192 403.786,410.773 401.821,409.268 C400.837,408.516 399.877,407.735 398.951,406.918 C398.023,406.102 397.11,405.27 396.262,404.375" fill="#000000" id="path18386"/>
    <path d="M304.37,292.895 C304.37,292.895 309.387,296.718 313.926,295.523 C318.465,294.328 322.765,287.639 328.02,283.1 C333.276,278.562 345.697,274.74 352.148,277.129 C358.598,279.517 363.375,280.951 362.898,287.639 C362.42,294.328 361.942,302.928 369.348,303.406 C376.753,303.884 384.636,309.962 378.664,321.734 C372.692,333.507 371.02,337.501 363.375,338.728 C355.731,339.956 351.192,336.611 346.653,339.718 C342.114,342.822 337.814,355.722 328.259,357.873 C318.704,360.022 303.176,357.873 298.756,349.87 C294.337,341.866 299.354,336.373 295.054,330.639 C290.754,324.905 285.737,323.233 278.331,322.995 C270.926,322.756 268.537,318.695 274.27,306.75 C280.004,294.806 294.815,290.267 304.37,292.895" fill="#000000" id="path18388"/>
    <path d="M313.926,247.985 C313.926,247.985 309.387,248.701 307.715,255.628 C306.042,262.556 304.37,272.112 297.204,274.023 C290.037,275.934 277.137,273.514 273.793,263.257 C270.448,253.001 270.209,254.673 260.893,255.628 C251.576,256.584 237.96,255.868 239.632,240.34 C241.304,224.812 244.171,223.14 251.098,216.929 C258.026,210.718 267.104,205.94 268.298,199.968 C269.493,193.996 271.882,189.537 284.065,190.811 C296.248,192.085 299.354,197.579 300.071,203.073 C300.787,208.568 299.115,213.584 307.237,213.346 C315.359,213.107 318.226,210.014 327.303,208.933 C336.381,207.851 341.159,218.601 334.47,224.812 C327.781,231.023 324.788,230.307 325.926,237.952 C327.065,245.596 331.125,256.663 322.765,257.937 C314.404,259.212 318.963,243.577 313.926,247.985" fill="#000000" id="path18390"/>
    <path d="M495.48,268.529 C495.48,268.529 501.753,259.69 509.366,262.079 C516.98,264.467 515.785,266.14 518.413,271.873 C521.041,277.606 525.102,274.704 533.701,276.394 C542.302,278.084 549.707,289.789 549.707,296 C549.707,302.211 548.752,315.589 542.302,316.067 C535.852,316.545 523.907,311.1 519.369,317.525 C514.83,323.951 520.324,331.595 513.397,335.536 C506.469,339.478 499.063,336.373 495.48,327.295 C491.897,318.217 490.98,319.328 482.361,318.534 C473.741,317.74 467.769,310.334 474.219,301.495 C480.669,292.656 484.73,293.612 490.941,291.223 C497.152,288.834 499.541,283.101 498.108,279.518 C496.675,275.934 489.878,273.676 495.48,268.529" fill="#000000" id="path18392"/>
    <path d="M88.297,406.725 L85.503,410.706 L82.679,414.664 L82.238,414.281 C83.28,413.222 84.387,412.261 85.548,411.349 C86.709,410.44 87.925,409.594 89.212,408.855 C90.496,408.112 91.845,407.462 93.264,406.965 C94.681,406.471 96.175,406.12 97.712,406.056 L99.237,405.993 L98.227,407.174 C97.551,407.966 96.901,408.859 96.312,409.753 C95.72,410.654 95.176,411.586 94.694,412.543 C93.734,414.459 93.004,416.486 92.703,418.555 L91.367,417.776 C92.518,416.888 93.679,416.131 94.899,415.409 C96.115,414.694 97.373,414.044 98.678,413.482 C99.982,412.917 101.338,412.449 102.742,412.12 C104.145,411.792 105.601,411.603 107.079,411.646 L108.271,411.68 L107.947,412.832 C106.915,416.495 105.911,420.167 104.856,423.824 L103.186,422.997 C103.719,422.317 104.246,421.752 104.819,421.176 C105.388,420.609 105.983,420.069 106.604,419.561 C107.849,418.544 109.201,417.645 110.663,416.932 C112.122,416.218 113.699,415.694 115.335,415.471 C116.968,415.242 118.648,415.316 120.252,415.677 L121.495,415.959 L120.784,416.998 L116.853,422.758 L112.891,428.498 L112.262,427.401 C113.31,427.345 114.377,427.261 115.433,427.163 C116.491,427.063 117.549,426.956 118.602,426.819 C120.705,426.543 122.807,426.2 124.82,425.615 L125.84,425.319 L125.41,426.263 L123.255,430.988 L122.79,430.537 L128.835,427.947 L129.034,427.862 L129.077,428.065 C129.432,429.748 129.759,431.437 130.102,433.122 C129.649,431.463 129.179,429.808 128.738,428.146 L128.98,428.263 L123.081,431.168 L122.283,431.561 L122.616,430.716 L124.522,425.886 L125.112,426.534 C123.033,427.224 120.908,427.652 118.779,428.015 C116.646,428.372 114.514,428.631 112.349,428.81 L110.928,428.927 L111.719,427.713 L115.521,421.866 L119.354,416.04 L119.886,417.36 C118.472,417.067 117.017,417.028 115.596,417.251 C114.174,417.475 112.785,417.939 111.476,418.587 C110.165,419.235 108.933,420.062 107.792,421.005 C107.222,421.477 106.674,421.979 106.152,422.505 C105.638,423.025 105.119,423.597 104.702,424.135 L101.746,427.955 L103.032,423.309 C104.047,419.64 105.114,415.986 106.152,412.324 L107.019,413.509 C104.45,413.421 101.841,414.135 99.377,415.14 C98.142,415.649 96.936,416.247 95.765,416.908 C94.602,417.569 93.439,418.306 92.394,419.085 L90.737,420.319 L91.057,418.306 C91.424,416.002 92.272,413.839 93.348,411.842 C93.887,410.842 94.484,409.88 95.13,408.952 C95.782,408.022 96.456,407.141 97.238,406.274 L97.754,407.393 C96.374,407.42 94.983,407.671 93.634,408.089 C92.284,408.506 90.971,409.078 89.705,409.746 C88.442,410.421 87.214,411.175 86.033,412.003 C84.856,412.832 83.707,413.729 82.652,414.695 L82.212,414.313 L85.239,410.507 z" fill="#000000" id="path18394"/>
    <path d="M228.882,443.633 C228.67,445.68 228.442,447.725 228.203,449.768 L227.712,449.545 L231.151,445.045 C232.302,443.549 233.446,442.048 234.572,440.539 C235.699,439.025 236.826,437.529 237.849,435.971 C238.868,434.421 239.854,432.801 240.677,431.196 L241.563,429.467 L242.21,431.291 C242.716,432.713 243.147,434.123 243.514,435.582 C243.867,437.045 244.195,438.514 244.173,440.157 C244.169,440.354 244.151,440.597 244.131,440.77 C244.12,440.875 244.117,440.932 244.114,440.996 L244.11,441.22 C244.114,441.523 244.148,441.841 244.204,442.164 C244.317,442.811 244.509,443.471 244.744,444.122 C245.214,445.421 245.85,446.73 246.542,447.919 L245.022,447.762 L249.46,443.001 C250.938,441.414 252.416,439.825 253.913,438.254 L254.998,437.115 L255.413,438.611 C255.921,440.448 256.464,442.29 257.044,444.107 C257.338,445.014 257.628,445.922 257.945,446.814 C258.264,447.698 258.598,448.603 259.003,449.371 L257.925,449.179 C259.34,448.03 260.757,446.884 262.186,445.751 C263.613,444.618 265.029,443.47 266.467,442.347 L266.863,442.039 L267.105,442.44 L269.814,446.903 C270.714,448.394 271.598,449.894 272.479,451.397 C271.449,449.993 270.421,448.586 269.41,447.17 L266.385,442.914 L267.023,443.006 C265.674,444.234 264.303,445.435 262.944,446.65 C261.585,447.867 260.216,449.069 258.843,450.269 L258.199,450.832 L257.766,450.078 C257.239,449.162 256.878,448.266 256.508,447.356 C256.147,446.449 255.807,445.539 255.493,444.622 C254.861,442.79 254.273,440.956 253.712,439.098 L255.212,439.456 C253.762,441.07 252.293,442.666 250.825,444.264 L246.424,449.06 L245.544,450.018 L244.904,448.902 C244.131,447.555 243.495,446.21 242.974,444.751 C242.72,444.023 242.502,443.271 242.369,442.472 C242.304,442.073 242.26,441.661 242.258,441.231 C242.258,441.123 242.26,441.016 242.266,440.906 C242.272,440.788 242.283,440.661 242.293,440.582 C242.315,440.393 242.324,440.27 242.33,440.102 C242.352,439.463 242.279,438.77 242.181,438.08 C242.083,437.387 241.946,436.688 241.79,435.991 C241.475,434.601 241.08,433.196 240.636,431.847 L242.17,431.942 C241.238,433.682 240.191,435.255 239.074,436.817 C237.957,438.372 236.767,439.861 235.559,441.316 C234.347,442.772 233.122,444.212 231.89,445.646 C230.647,447.071 229.403,448.494 228.141,449.903 L227.455,450.669 L227.65,449.681 C228.047,447.662 228.456,445.646 228.882,443.633" fill="#000000" id="path18396"/>
    <path d="M529.641,432.764 C529.837,434.288 530.073,435.807 530.353,437.311 C530.496,438.061 530.663,438.808 530.869,439.526 C530.922,439.704 530.979,439.881 531.042,440.05 C531.038,440.033 531.086,440.158 531.082,440.127 C531.083,440.125 531.091,440.128 531.092,440.129 C531.092,440.121 531.07,440.12 531.107,440.115 C531.175,440.104 531.323,440.037 531.455,439.942 C531.591,439.849 531.727,439.737 531.86,439.616 C532.395,439.13 532.88,438.544 533.358,437.962 C533.835,437.377 534.291,436.769 534.739,436.154 C535.635,434.925 536.486,433.649 537.32,432.384 L537.981,431.38 L538.502,432.485 C539.704,435.038 540.932,437.579 542.108,440.142 L540.758,439.891 C541.389,439.242 542.019,438.558 542.628,437.872 C543.238,437.184 543.833,436.484 544.405,435.772 C544.973,435.057 545.533,434.34 546.036,433.601 C546.534,432.866 547.005,432.095 547.278,431.364 L548.262,428.725 L549.052,431.43 L550.204,435.367 C550.593,436.677 550.954,437.997 551.33,439.311 L550.171,438.664 C550.498,438.566 550.926,438.395 551.297,438.222 C551.681,438.045 552.058,437.848 552.424,437.632 C553.159,437.199 553.853,436.696 554.494,436.134 C555.774,435.006 556.862,433.657 557.659,432.133 L558.484,430.555 L559.206,432.155 C559.464,432.728 559.692,433.281 559.915,433.854 C560.135,434.421 560.342,434.998 560.531,435.584 C560.721,436.17 560.89,436.766 561.018,437.386 C561.141,438.01 561.248,438.645 561.207,439.372 L560.172,438.639 C560.722,438.417 561.315,438.118 561.858,437.804 C562.407,437.485 562.936,437.131 563.426,436.74 C564.399,435.962 565.261,435.023 565.66,433.907 L566.011,432.924 L566.624,433.728 C567.741,435.191 568.849,436.662 569.947,438.141 L569.418,438.084 C570.687,437.13 571.965,436.191 573.244,435.252 L573.373,435.157 L573.474,435.255 L575.985,437.661 L573.239,435.528 L573.47,435.532 C572.281,436.583 571.091,437.633 569.891,438.67 L569.617,438.905 L569.361,438.613 C568.151,437.225 566.949,435.83 565.756,434.426 L566.721,434.248 C566.511,434.963 566.157,435.618 565.733,436.2 C565.307,436.785 564.814,437.303 564.281,437.764 C563.748,438.227 563.183,438.64 562.596,439.014 C562.001,439.39 561.416,439.721 560.741,440.026 L559.683,440.508 L559.708,439.293 C559.718,438.827 559.616,438.274 559.482,437.736 C559.344,437.194 559.17,436.648 558.982,436.103 C558.792,435.559 558.58,435.017 558.357,434.48 C558.133,433.945 557.892,433.402 557.647,432.893 L559.194,432.917 C558.338,434.638 557.167,436.229 555.714,437.512 C554.991,438.156 554.209,438.733 553.377,439.232 C552.961,439.483 552.533,439.712 552.091,439.921 C551.637,440.131 551.222,440.312 550.678,440.48 L549.785,440.755 L549.518,439.833 C549.138,438.519 548.742,437.21 548.375,435.894 L547.256,431.947 L549.031,432.013 C548.638,433.026 548.105,433.844 547.556,434.648 C547.001,435.441 546.417,436.196 545.802,436.922 C545.189,437.648 544.558,438.353 543.914,439.043 C543.268,439.734 542.619,440.406 541.934,441.076 L541.067,441.926 L540.585,440.825 C539.452,438.242 538.37,435.636 537.263,433.042 L538.445,433.143 C537.547,434.415 536.6,435.63 535.621,436.834 C534.626,438.026 533.645,439.224 532.386,440.246 C532.225,440.372 532.056,440.492 531.866,440.603 C531.674,440.71 531.468,440.824 531.153,440.849 C530.999,440.863 530.776,440.81 530.63,440.675 C530.562,440.612 530.505,440.543 530.46,440.456 C530.402,440.344 530.424,440.374 530.383,440.269 C530.326,440.074 530.279,439.88 530.236,439.687 C530.069,438.916 529.981,438.146 529.899,437.378 C529.74,435.84 529.672,434.302 529.641,432.764" fill="#000000" id="path18398"/>
    <path d="M128.058,257.455 C128.058,262.334 124.116,266.289 119.253,266.289 C114.391,266.289 110.45,262.334 110.45,257.455 C110.45,252.575 114.391,248.62 119.253,248.62 C124.116,248.62 128.058,252.575 128.058,257.455" fill="#D1A180" id="path18400"/>
    <path d="M119.233,248.749 C114.597,248.749 110.825,252.52 110.825,257.156 C110.825,261.793 114.597,265.565 119.233,265.565 C123.869,265.565 127.64,261.793 127.64,257.156 C127.64,252.52 123.869,248.749 119.233,248.749 M119.233,269.865 C112.226,269.865 106.525,264.164 106.525,257.156 C106.525,250.15 112.226,244.449 119.233,244.449 C126.24,244.449 131.94,250.15 131.94,257.156 C131.94,264.164 126.24,269.865 119.233,269.865" fill="#000000" id="path18402"/>
    <path d="M53.112,247.38 C53.112,252.259 49.171,256.215 44.309,256.215 C39.446,256.215 35.504,252.259 35.504,247.38 C35.504,242.501 39.446,238.545 44.309,238.545 C49.171,238.545 53.112,242.501 53.112,247.38" fill="#D1A180" id="path18404"/>
    <path d="M44.309,238.972 C39.673,238.972 35.901,242.744 35.901,247.38 C35.901,252.015 39.673,255.787 44.309,255.787 C48.944,255.787 52.716,252.015 52.716,247.38 C52.716,242.744 48.944,238.972 44.309,238.972 M44.309,260.087 C37.302,260.087 31.6,254.387 31.6,247.38 C31.6,240.373 37.302,234.672 44.309,234.672 C51.315,234.672 57.016,240.373 57.016,247.38 C57.016,254.387 51.315,260.087 44.309,260.087" fill="#000000" id="path18406"/>
    <path d="M616.355,16.902 C611.11,8.007 604.808,2.504 604.543,2.274 L601.914,0 L600.733,3.268 C590.397,31.859 601.41,48.632 604.369,52.425 C601.958,97.806 581.175,124.828 564.1,139.528 C545.407,155.622 526.954,160.906 526.77,160.958 L526.85,161.245 L525.729,161.647 C455.064,186.999 380.38,181.578 330.172,172.565 C275.661,162.78 237.413,146.766 237.033,146.606 L235.172,151.006 C235.556,151.168 274.202,167.359 329.207,177.246 C347.115,180.464 364.796,182.675 382.104,183.872 C379.571,185.257 376.962,187.457 376.276,190.812 C374.842,197.818 371.975,203.312 377.708,208.807 C383.442,214.301 386.07,217.168 382.247,222.662 C378.425,228.157 369.348,231.74 363.614,238.191 C357.881,244.641 357.243,250.373 358.996,255.868 C360.747,261.362 363.896,265.901 372.833,263.99 C381.769,262.079 392.042,255.629 398.253,260.168 C404.464,264.707 406.853,264.711 408.286,274.622 C409.719,284.534 411.63,286.206 420.947,286.206 C430.263,286.206 439.102,285.932 439.102,276.394 C439.102,266.856 435.281,256.106 443.641,255.629 C452.002,255.151 456.302,274.262 466.096,264.229 C475.891,254.195 465.858,247.507 468.963,238.429 C472.069,229.351 481.864,232.457 482.341,221.707 C482.819,210.957 474.458,200.207 476.369,192.085 C477.886,185.639 480.767,180.401 481.892,178.512 C497.029,175.589 511.601,171.679 525.523,166.791 L529.999,164.949 C535.364,163.147 550.939,157.112 567.049,143.294 C578.494,133.477 587.798,121.758 594.703,108.46 C603.317,91.871 608.191,72.785 609.187,51.732 L609.228,50.745 L608.572,50.015 C608.537,49.976 605.04,46.026 602.892,38.548 C601.064,32.183 599.896,21.977 604.03,8.475 C609.925,14.759 623.237,31.724 616.721,51.096 L616.528,51.674 L616.632,52.272 C616.668,52.482 620.215,73.545 612.735,101.343 C605.958,126.522 588.49,162.485 543.821,191.945 L543.434,192.162 C543.111,191.671 542.786,191.185 542.458,190.695 C541.758,189.652 541.049,188.62 540.333,187.593 C538.903,185.541 537.446,183.516 535.968,181.513 C536.738,183.881 537.479,186.254 538.181,188.63 C538.532,189.819 538.875,191.008 539.205,192.197 C539.391,192.872 539.575,193.552 539.753,194.229 L539.635,194.295 C539.738,194.525 539.843,194.761 539.948,194.993 C540.01,195.243 540.079,195.496 540.137,195.741 L540.259,195.689 C541.876,199.317 543.562,203.258 545.293,207.515 C555.681,233.058 569.817,275.381 578.161,331.944 L578.2,332.149 C578.241,332.321 582.309,349.588 584.031,374.772 C585.61,397.867 585.483,432.521 575.952,466.697 C575.165,467.688 571.787,471.45 564.102,474.037 C558.459,475.936 549.673,477.442 536.828,476.164 C537.119,473.581 537.81,467.804 538.36,465.969 C539.076,463.58 539.555,454.025 539.674,450.561 C539.794,447.097 538.838,445.067 536.688,448.888 C534.538,452.711 534.657,452.472 534.179,452.352 C533.701,452.233 532.03,453.666 531.552,458.086 C531.135,461.943 528.626,472.346 527.995,474.934 C524.641,474.342 521.067,473.578 517.254,472.611 C517.471,467.415 518.898,451.379 527.991,431.488 L528.367,430.667 L528.105,429.803 C528.019,429.516 519.189,400.714 500.12,370.918 L499.393,369.782 C499.272,369.594 499.154,369.401 499.031,369.215 L498.969,369.119 L498.965,369.121 C497.822,367.417 496.593,365.821 495.323,364.276 C493.561,362.143 491.714,360.115 489.819,358.148 C487.922,356.182 485.976,354.278 483.992,352.422 C482.007,350.567 479.99,348.752 477.922,347.003 C479.711,349.036 481.433,351.12 483.114,353.232 C484.793,355.345 486.422,357.491 487.982,359.676 C489.541,361.861 491.033,364.084 492.403,366.352 C493.329,367.894 494.204,369.462 494.97,371.04 C491.073,372.828 481.846,376.88 468.476,381.627 C468.645,380.677 468.77,377.453 464.266,372.684 C458.851,366.95 457.577,371.21 450.251,368.921 C442.925,366.631 442.925,364.057 438.147,358.655 C433.369,353.254 427,349.087 418.718,355.629 C410.436,362.173 415.533,363.127 411.073,370.454 C406.614,377.779 401.518,376.187 392.281,377.779 C383.044,379.372 383.592,383.831 380.769,389.883 C377.948,395.935 370.941,397.527 354.696,396.253 C342.743,395.316 332.812,402.73 328.394,406.714 C316.633,406.796 304.498,406.342 292.114,405.192 L298.757,367.189 L287.597,404.749 L287.438,404.733 L286.986,406.817 C286.943,407.013 282.638,426.803 277.461,445.627 L277.264,446.346 L277.51,447.048 C277.559,447.192 282.376,461.126 283.719,475.458 C281.089,477.261 273.434,481.972 262.119,484.379 C255.263,485.839 246.269,486.581 235.684,484.798 C236.139,481.6 237.102,474.486 237.031,471.88 C236.938,468.473 236.765,468 236.765,468 C236.765,468 237.362,462.147 236.765,461.191 C236.168,460.235 234.615,461.191 233.54,463.819 C232.625,466.055 226.001,478.328 224.049,481.93 C218.233,480.046 212.068,477.377 205.615,473.683 C207.876,468.549 215.105,453.79 227.835,442.558 L228.677,441.816 L227.41,401.008 L227.274,400.918 L218.013,335.536 L222.338,397.591 L182.526,370.761 L158.888,349.87 L178.012,372.702 L134.162,426.689 L134.305,427.717 C134.321,427.827 135.755,438.734 129.846,446.082 C126.713,449.979 121.982,452.21 115.784,452.712 C114.411,452.711 94.852,452.696 74.52,447.024 C76.252,442.464 82.547,425.808 82.444,424.881 C82.325,423.805 79.816,425.836 78.741,426.792 C77.667,427.747 77.308,426.075 77.308,426.075 C73.358,431.111 66.557,440.547 64.316,443.67 C61.215,442.478 58.164,441.131 55.23,439.604 C57.685,432.442 67.919,406.604 87.699,406.604 C87.77,406.604 87.844,406.604 87.916,406.605 L89.425,406.621 L105.014,374.628 C108.629,378.615 116.954,387.108 119.79,384.149 C123.453,380.327 115.49,370.135 119.233,367.189 C122.975,364.242 130.46,366.631 131.416,361.277 C132.372,355.921 130.142,354.846 125.364,353.572 C121.712,352.598 119.121,349.277 118.102,347.766 L121.38,341.039 L117.085,338.945 L86.432,401.855 C60.948,402.996 50.488,438.567 50.047,440.11 L49.526,441.936 L51.188,442.857 C78.187,457.803 114.39,457.505 115.919,457.489 L116.075,457.481 C123.678,456.885 129.564,454.057 133.57,449.076 C139.634,441.534 139.41,431.424 139.148,428.13 L181.581,375.886 L222.71,403.603 L223.832,439.73 C207.919,454.197 200.675,473.036 200.37,473.844 L199.663,475.714 L201.38,476.74 C219.251,487.41 235.212,490.625 247.956,490.625 C253.817,490.625 258.997,489.944 263.369,488.997 C278.494,485.722 287.337,478.761 287.706,478.467 L288.695,477.676 L288.596,476.414 C287.525,462.7 283.331,449.404 282.262,446.187 C286.409,431.026 289.967,415.417 291.196,409.905 C349.707,415.421 402.776,405.63 437.156,396.371 C468.763,387.859 490.779,378.228 497.218,375.264 C513.365,401.009 521.711,425.539 523.265,430.343 C512.09,455.214 512.423,473.726 512.442,474.51 L512.488,476.3 L514.217,476.759 C527.028,480.158 537.505,481.444 546.033,481.444 C571.784,481.443 579.72,469.713 580.145,469.053 L580.338,468.752 L580.435,468.407 C590.276,433.403 590.41,397.933 588.79,374.342 C587.106,349.831 583.223,332.662 582.873,331.148 C574.445,274.071 560.157,231.347 549.65,205.547 C548.327,202.298 547.035,199.242 545.779,196.362 C566.071,183.088 582.678,167.414 595.138,149.736 C605.406,135.168 612.9,119.225 617.41,102.351 C624.481,75.906 622.005,55.82 621.435,52.051 C625.033,40.789 623.282,28.65 616.355,16.902" fill="#000000" id="path18408"/>
  </g>
</svg>
