<?xml version="1.0" encoding="UTF-8"?>
<!DOCTYPE svg PUBLIC "-//W3C//DTD SVG 1.1//EN" "http://www.w3.org/Graphics/SVG/1.1/DTD/svg11.dtd">
<svg version="1.1" xmlns="http://www.w3.org/2000/svg" xmlns:xlink="http://www.w3.org/1999/xlink" x="0" y="0" width="802" height="1337" viewBox="0, 0, 802, 1337">
  <g id="Layer_1">
    <path d="M204.019,1285.87 C187.183,1286.77 164.51,1301.28 183.364,1317.95 C194.99,1328.23 215.387,1322.22 227.608,1316.36" fill="#FBEBCE"/>
    <path d="M204.019,1285.87 C187.183,1286.77 164.51,1301.28 183.364,1317.95 C194.99,1328.23 215.387,1322.22 227.608,1316.36" fill-opacity="0" stroke="#432F1F" stroke-width="16" stroke-linecap="round" stroke-linejoin="round"/>
    <path d="M583.733,1204.57 C583.733,1204.57 799.516,1026.22 547.222,737.755 L284.058,737.755 C282.87,739.114 281.691,740.471 280.523,741.825 C33.793,1027.89 247.547,1204.57 247.547,1204.57" fill="#AFC399"/>
    <path d="M583.733,1204.57 C583.733,1204.57 799.516,1026.22 547.222,737.755 L284.058,737.755 C282.87,739.114 281.691,740.471 280.523,741.825 C33.793,1027.89 247.547,1204.57 247.547,1204.57" fill-opacity="0" stroke="#432F1F" stroke-width="16" stroke-linecap="round" stroke-linejoin="round"/>
    <path d="M70.604,773.739 C66.887,777.458 60.857,777.458 57.141,773.739 L44.414,716.587 C40.697,712.87 40.697,706.841 44.414,703.124 L57.141,645.972 C60.857,642.255 66.887,642.255 70.604,645.972 L83.332,703.124 C87.048,706.841 87.048,712.87 83.332,716.587 L70.604,773.739" fill="#DDAE43"/>
    <path d="M70.604,773.739 C66.887,777.458 60.857,777.458 57.141,773.739 L44.414,716.587 C40.697,712.87 40.697,706.841 44.414,703.124 L57.141,645.972 C60.857,642.255 66.887,642.255 70.604,645.972 L83.332,703.124 C87.048,706.841 87.048,712.87 83.332,716.587 L70.604,773.739 z" fill-opacity="0" stroke="#DDAE43" stroke-width="11.18" stroke-linecap="round" stroke-linejoin="round"/>
    <path d="M8.028,715.74 C4.777,712.491 4.777,707.221 8.028,703.973 L57.99,689.917 C61.239,686.666 66.507,686.666 69.755,689.917 L119.717,703.973 C122.968,707.221 122.968,712.491 119.717,715.74 L69.755,729.796 C66.507,733.046 61.239,733.046 57.99,729.796 L8.028,715.74" fill="#DDAE43"/>
    <path d="M8.028,715.74 C4.777,712.491 4.777,707.221 8.028,703.973 L57.99,689.917 C61.239,686.666 66.507,686.666 69.755,689.917 L119.717,703.973 C122.968,707.221 122.968,712.491 119.717,715.74 L69.755,729.796 C66.507,733.046 61.239,733.046 57.99,729.796 L8.028,715.74 z" fill-opacity="0" stroke="#DDAE43" stroke-width="11.18" stroke-linecap="round" stroke-linejoin="round"/>
    <path d="M414.628,915.744 L415.927,928.235 L416.662,916.488 C416.098,916.282 415.418,916.034 414.628,915.744" fill="#AFC399"/>
    <path d="M415.645,870.401 L395.645,814.401 L319.645,766.401 C319.645,766.401 340.137,729.788 413.633,729.788 C487.129,729.788 511.645,766.401 511.645,766.401 L435.645,814.401 L415.645,870.401" fill="#F7E7CB"/>
    <path d="M415.645,870.401 L395.645,814.401 L319.645,766.401 C319.645,766.401 340.137,729.788 413.633,729.788 C487.129,729.788 511.645,766.401 511.645,766.401 L435.645,814.401 L415.645,870.401 M544.392,765.9 C544.392,765.9 546.392,821.613 466.392,843.9 M286.898,765.9 C286.898,765.9 284.898,821.613 364.898,843.9" fill-opacity="0" stroke="#432F1F" stroke-width="16" stroke-linecap="round" stroke-linejoin="round"/>
    <path d="M545.279,169.772 C545.279,169.772 717.635,181.004 723.308,362.774 C728.345,524.156 620.869,524.046 620.869,524.046" fill="#997E73"/>
    <path d="M545.279,169.772 C545.279,169.772 717.635,181.004 723.308,362.774 C728.345,524.156 620.869,524.046 620.869,524.046" fill-opacity="0" stroke="#432F1F" stroke-width="16" stroke-linecap="round" stroke-linejoin="round"/>
    <path d="M285.645,169.772 C285.645,169.772 113.289,181.004 107.615,362.774 C102.579,524.156 210.055,524.046 210.055,524.046" fill="#997E73"/>
    <path d="M285.645,169.772 C285.645,169.772 113.289,181.004 107.615,362.774 C102.579,524.156 210.055,524.046 210.055,524.046" fill-opacity="0" stroke="#432F1F" stroke-width="16" stroke-linecap="round" stroke-linejoin="round"/>
    <path d="M677.855,537.469 C704.191,534.861 735.98,535.605 741.049,503.758 C747.707,461.866 709.058,448.149 673.641,453.19" fill="#FBEBCE"/>
    <path d="M677.855,537.469 C704.191,534.861 735.98,535.605 741.049,503.758 C747.707,461.866 709.058,448.149 673.641,453.19" fill-opacity="0" stroke="#432F1F" stroke-width="16" stroke-linecap="round" stroke-linejoin="round"/>
    <path d="M152.677,537.469 C126.342,534.861 94.551,535.605 89.483,503.758 C82.825,461.866 121.474,448.149 156.891,453.19" fill="#FBEBCE"/>
    <path d="M152.677,537.469 C126.342,534.861 94.551,535.605 89.483,503.758 C82.825,461.866 121.474,448.149 156.891,453.19" fill-opacity="0" stroke="#432F1F" stroke-width="16" stroke-linecap="round" stroke-linejoin="round"/>
    <path d="M594.126,198.317 C535.126,153.455 454.351,146.842 381.202,151.003 C312.39,154.915 240.512,172.285 195.008,227.302 C146.943,285.414 143.62,362.845 147.047,434.217 C153.053,559.304 184.893,763.67 346.953,778.534 C411.751,784.477 417.568,786.292 482.478,781.19 C654.626,767.658 680.566,534.201 684.681,403.611 C686.835,335.288 661.158,261.673 611.347,213.149 C605.851,207.793 600.101,202.86 594.126,198.317" fill="#FBEBCE"/>
    <path d="M560.029,532.241 C557.098,546.208 569.265,559.004 585.294,563.65 C600.846,568.165 618.62,569.255 631.717,560.687 C644.698,552.193 654.433,541.014 649.141,527.322 C644.779,516.075 635.369,505.26 620.749,501.137 C592.413,493.152 564.565,510.583 560.029,532.241" fill="#F7CCAD"/>
    <path d="M181.183,532.168 C178.01,547.286 191.181,561.138 208.533,566.171 C225.37,571.058 244.61,572.238 258.789,562.961 C272.842,553.766 283.382,541.665 277.653,526.843 C272.931,514.665 262.744,502.96 246.915,498.494 C216.239,489.851 186.094,508.722 181.183,532.168" fill="#F7CCAD"/>
    <path d="M596.004,196.384 C567.115,173.974 531.433,158.735 489.354,153.604 C445.687,148.279 400.833,149.778 356.979,151.807 C294.457,154.699 228.8,182.93 190.534,232.141 C146.38,288.925 143.58,366.498 146.858,434.783 C152.571,553.751 181.94,763.984 346.766,779.101 C411.563,785.044 417.379,786.859 482.29,781.757 C654.44,768.226 680.377,534.766 684.494,404.172 C687.101,321.441 656.399,243.238 596.004,196.384 z M416.533,474.946 C415.001,473.676 413.269,469.251 412.077,464.345" fill-opacity="0" stroke="#432F1F" stroke-width="16" stroke-linecap="round" stroke-linejoin="round"/>
    <path d="M524.681,417.957 C522.592,414.883 519.719,412.625 515.929,411.67 C496.33,406.735 487.296,437.854 496.839,453.084 C515.872,483.465 540.26,440.918 524.681,417.957" fill="#432F1F"/>
    <path d="M330.634,417.957 C328.544,414.883 325.67,412.625 321.879,411.67 C302.282,406.735 293.247,437.854 302.792,453.084 C321.823,483.465 346.212,440.918 330.634,417.957" fill="#432F1F"/>
    <path d="M687.139,388.091 C568.705,359.061 496.841,242.101 496.841,242.101 C502.702,320.063 508.965,350.061 508.965,350.061 C394.788,296.064 370.62,177.604 370.62,173.104 C370.62,173.104 393.246,77.429 529.602,147.605 C710.021,240.458 687.139,388.091 687.139,388.091" fill="#FFFFFE"/>
    <path d="M697.186,388.091 C604.462,364.156 531.604,280.453 508.882,251.804 C504.044,245.704 501.48,242.101 501.48,242.101 C507.045,320.063 512.994,350.061 512.994,350.061 C432.959,304.573 416.621,177.604 416.621,173.104 C416.621,173.104 418.105,77.429 547.589,147.605 C718.915,240.458 697.186,388.091 697.186,388.091" fill="#997E73"/>
    <path d="M369.12,173.104 C369.12,177.604 403.201,311.063 514.195,350.061 C514.195,350.061 504.695,318.563 500.113,242.101 C500.113,242.101 577.692,360.561 697.603,388.091" fill-opacity="0" stroke="#432F1F" stroke-width="16" stroke-linecap="round" stroke-linejoin="round"/>
    <path d="M672.353,126.846 C638.014,76.948 530.349,9.593 418.502,8.58 L418.502,8.55 C417.488,8.55 416.474,8.557 415.462,8.563 C414.448,8.557 413.435,8.55 412.42,8.55 L412.42,8.58 C300.573,9.593 192.908,76.948 158.569,126.846 C123.607,177.648 117.528,291.559 117.528,291.559 C117.528,291.559 157.048,259.625 223.933,230.595 C282.118,205.341 386.303,208.649 412.42,209.937 L412.42,210.276 C412.42,210.276 413.492,210.202 415.462,210.094 C417.435,210.202 418.502,210.276 418.502,210.276 L418.502,209.937 C444.621,208.649 548.805,205.341 606.989,230.595 C673.875,259.625 713.396,291.559 713.396,291.559 C713.396,291.559 707.316,177.648 672.353,126.846" fill="#AFC399"/>
    <path d="M672.353,126.846 C638.014,76.948 530.349,9.593 418.502,8.58 L418.502,8.55 C417.488,8.55 416.474,8.557 415.462,8.563 C414.448,8.557 413.435,8.55 412.42,8.55 L412.42,8.58 C300.573,9.593 192.908,76.948 158.569,126.846 C123.607,177.648 117.528,291.559 117.528,291.559 C117.528,291.559 157.048,259.625 223.933,230.595 C282.118,205.341 386.303,208.649 412.42,209.937 L412.42,210.276 C412.42,210.276 413.492,210.202 415.462,210.094 C417.435,210.202 418.502,210.276 418.502,210.276 L418.502,209.937 C444.621,208.649 548.805,205.341 606.989,230.595 C673.875,259.625 713.396,291.559 713.396,291.559 C713.396,291.559 707.316,177.648 672.353,126.846 z" fill-opacity="0" stroke="#432F1F" stroke-width="16" stroke-linecap="round" stroke-linejoin="round"/>
    <path d="M558.589,86.377 C539.458,47.019 479.472,9.372 417.156,8.573 L417.156,8.55 C416.591,8.55 416.027,8.556 415.462,8.56 C414.896,8.556 414.333,8.55 413.767,8.55 L413.767,8.573 C351.451,9.372 291.466,47.019 272.333,86.377 C252.854,126.449 249.467,231.784 249.467,231.784 C249.467,231.784 271.485,206.595 308.751,183.696 C341.168,163.776 399.217,166.385 413.767,167.4 L413.767,167.668 C413.767,167.668 414.364,167.611 415.462,167.524 C416.56,167.611 417.156,167.668 417.156,167.668 L417.156,167.4 C431.707,166.385 489.754,163.776 522.172,183.696 C559.437,206.595 581.457,231.784 581.457,231.784 C581.457,231.784 578.069,126.449 558.589,86.377" fill="#FFFFFE"/>
    <path d="M558.589,86.377 C539.458,47.019 479.472,9.372 417.156,8.573 L417.156,8.55 C416.591,8.55 416.027,8.556 415.462,8.56 C414.896,8.556 414.333,8.55 413.767,8.55 L413.767,8.573 C351.451,9.372 291.466,47.019 272.333,86.377 C252.854,126.449 249.467,231.784 249.467,231.784 C249.467,231.784 271.485,206.595 308.751,183.696 C341.168,163.776 399.217,166.385 413.767,167.4 L413.767,167.668 C413.767,167.668 414.364,167.611 415.462,167.524 C416.56,167.611 417.156,167.668 417.156,167.668 L417.156,167.4 C431.707,166.385 489.754,163.776 522.172,183.696 C559.437,206.595 581.457,231.784 581.457,231.784 C581.457,231.784 578.069,126.449 558.589,86.377 z" fill-opacity="0" stroke="#432F1F" stroke-width="16" stroke-linecap="round" stroke-linejoin="round"/>
    <path d="M711.913,298.576 C641.337,149.971 440.834,151.299 415.462,152.077 C390.089,151.299 189.586,149.971 119.011,298.576 C119.011,298.576 221.321,239.521 415.462,238.795 C609.603,239.521 711.913,298.576 711.913,298.576" fill="#AFC399"/>
    <path d="M711.913,298.576 C641.337,149.971 440.834,151.299 415.462,152.077 C390.089,151.299 189.586,149.971 119.011,298.576 C119.011,298.576 221.321,239.521 415.462,238.795 C609.603,239.521 711.913,298.576 711.913,298.576 z" fill-opacity="0" stroke="#432F1F" stroke-width="16" stroke-linecap="round" stroke-linejoin="round"/>
    <path d="M343.667,632.638 C373.112,688.431 464.548,679.601 488.792,632.638" fill-opacity="0" stroke="#432F1F" stroke-width="14" stroke-linecap="round" stroke-linejoin="round"/>
    <path d="M84.059,1026.42 L746.819,1026.42 L746.819,1293.75 L84.059,1293.75 z" fill="#DDC293"/>
    <path d="M84.059,1293.75 L746.819,1293.75 L746.819,1026.42 L84.059,1026.42 z" fill-opacity="0" stroke="#432F1F" stroke-width="16" stroke-linecap="round" stroke-linejoin="round"/>
    <path d="M662.219,860.279 L168.658,860.279 L83.885,1028.69 L746.993,1028.69 L662.219,860.279" fill="#DDC293"/>
    <path d="M662.219,860.279 L168.658,860.279 L83.885,1028.69 L746.993,1028.69 L662.219,860.279 z" fill-opacity="0" stroke="#432F1F" stroke-width="16" stroke-linecap="round" stroke-linejoin="round"/>
    <path d="M669.496,945.279 L488.537,945.279 L494.537,1000.69 L698.993,1000.69 L669.496,945.279" fill="#FFFFFE"/>
    <path d="M669.496,945.279 L488.537,945.279 L494.537,1000.69 L698.993,1000.69 L669.496,945.279 z" fill-opacity="0" stroke="#432F1F" stroke-width="16" stroke-linecap="round" stroke-linejoin="round"/>
    <path d="M448.767,860.279 L382.111,860.279 L370.663,1028.69 L460.214,1028.69 L448.767,860.279" fill="#A78660"/>
    <path d="M448.767,860.279 L382.111,860.279 L370.663,1028.69 L460.214,1028.69 L448.767,860.279 z" fill-opacity="0" stroke="#432F1F" stroke-width="16" stroke-linecap="round" stroke-linejoin="round"/>
    <path d="M741.537,1102.79 C740.871,1102.89 740.224,1103.01 739.606,1103.15 C715.689,1108.51 728.991,1133.51 742.052,1143.78 C747.426,1148.01 753.444,1150.79 759.112,1154.07 C747.88,1147.56 711.431,1142.1 703.253,1156.06 C694.537,1170.95 724.166,1185.6 735.404,1187.14 C723.984,1185.91 686.74,1175.41 691.213,1198.87 C693.968,1213.33 716.213,1220.3 728.046,1224.9 C720.924,1224.14 711.468,1220.79 706.556,1227.17 C692.501,1245.42 737.728,1265.95 752.958,1252.82 C771.923,1236.47 777.538,1210.54 783.178,1187.32 C786.536,1173.5 793.988,1157.86 793.06,1143.42 C791.291,1115.92 768.464,1098.79 741.537,1102.79" fill="#FBEBCE"/>
    <path d="M741.537,1102.79 C740.871,1102.89 740.224,1103.01 739.606,1103.15 C715.689,1108.51 728.991,1133.51 742.052,1143.78 C747.426,1148.01 753.444,1150.79 759.112,1154.07 C747.88,1147.56 711.431,1142.1 703.253,1156.06 C694.537,1170.95 724.166,1185.6 735.404,1187.14 C723.984,1185.91 686.74,1175.41 691.213,1198.87 C693.968,1213.33 716.213,1220.3 728.046,1224.9 C720.924,1224.14 711.468,1220.79 706.556,1227.17 C692.501,1245.42 737.728,1265.95 752.958,1252.82 C771.923,1236.47 777.538,1210.54 783.178,1187.32 C786.536,1173.5 793.988,1157.86 793.06,1143.42 C791.291,1115.92 768.464,1098.79 741.537,1102.79 z" fill-opacity="0" stroke="#432F1F" stroke-width="16" stroke-linecap="round" stroke-linejoin="round"/>
    <path d="M286.208,1290.25 C288.808,1281.66 291.305,1272.72 296.854,1265.45 C306.729,1252.51 328.015,1286.78 329.274,1293.21 C324.658,1269.65 374.988,1280.24 355.312,1309.44 C338.256,1334.75 292.627,1328.07 267.286,1328.54 C238.259,1329.08 199.074,1312.53 203.471,1276.59 C204.908,1264.84 211.475,1242.31 227.602,1247.56 C236.522,1250.47 249.051,1277.21 250.875,1285.9 C249.687,1272.86 254.791,1254.64 270.391,1260.31 C281.535,1264.36 285.472,1282.83 285.053,1293.98 C285.447,1292.75 285.829,1291.5 286.208,1290.25" fill="#FBEBCE"/>
    <path d="M286.208,1290.25 C288.808,1281.66 291.305,1272.72 296.854,1265.45 C306.729,1252.51 328.015,1286.78 329.274,1293.21 C324.658,1269.65 374.988,1280.24 355.312,1309.44 C338.256,1334.75 292.627,1328.07 267.286,1328.54 C238.259,1329.08 199.074,1312.53 203.471,1276.59 C204.908,1264.84 211.475,1242.31 227.602,1247.56 C236.522,1250.47 249.051,1277.21 250.875,1285.9 C249.687,1272.86 254.791,1254.64 270.391,1260.31 C281.535,1264.36 285.472,1282.83 285.053,1293.98 C285.447,1292.75 285.829,1291.5 286.208,1290.25 z" fill-opacity="0" stroke="#432F1F" stroke-width="16" stroke-linecap="round" stroke-linejoin="round"/>
    <path d="M391.656,1085.55 L403.548,1077.8 L415.439,1085.55 L427.332,1077.8 L439.222,1085.55 L451.113,1077.8 L461.306,1084.44 L461.306,1026.42 L369.571,1026.42 L369.571,1084.44 L379.765,1077.8 L391.656,1085.55" fill="#A78660"/>
    <path d="M391.656,1085.55 L403.548,1077.8 L415.439,1085.55 L427.332,1077.8 L439.222,1085.55 L451.113,1077.8 L461.306,1084.44 L461.306,1026.42 L369.571,1026.42 L369.571,1084.44 L379.765,1077.8 L391.656,1085.55 z" fill-opacity="0" stroke="#432F1F" stroke-width="16" stroke-linecap="round" stroke-linejoin="round"/>
    <path d="M337.309,267.58 C324.258,246.953 304.686,258.708 300.234,271.882" fill-opacity="0" stroke="#432F1F" stroke-width="12" stroke-linecap="round" stroke-linejoin="round"/>
  </g>
</svg>
