<svg width="460" height="285" xmlns="http://www.w3.org/2000/svg">

 <metadata id="imagebot_20">image/svg+xml</metadata>
 <g id="imagebot_2" label="Layer 1">
  <path transform="translate(-26.1599 -169.388) matrix(1 0 0 1 0 -552.362)" label="Layer 1" fill="#97dff1" fill-rule="evenodd" stroke-width="1px" id="imagebot_19" d="M143.36149,943.6195C143.36149,943.6195 182.41574,959.8404 192.25441,976.9317C196.41909,984.1664 200.43175,996.5237 194.05441,1001.9103C188.81077,1006.3393 180.08507,1000.2913 174.05313,997.016C157.58528,988.0741 143.62033,974.008 133.10842,958.4952C130.80582,955.0972 128.59564,947.0378 128.59564,947.0378C140.03339,944.6598 130.84465,939.5229 143.36149,943.6195z"/>
  <path transform="translate(-26.1599 -169.388) matrix(1 0 0 1 0 -552.362)" label="Layer 1" fill="#6adff1" fill-rule="evenodd" stroke-width="1px" id="imagebot_18" d="M190.03541,954.406C196.68604,956.4553 199.94441,968.115 201.43178,976.1669C202.22443,980.458 203.78194,987.1709 199.90222,989.1682C194.72871,991.8315 189.21258,984.3114 184.6066,980.7556C170.54701,969.9017 147.94435,942.0878 147.94435,942.0878C147.75098,942.6679 182.39284,952.051 190.03541,954.406z"/>
  <path transform="translate(-26.1599 -169.388) matrix(1 0 0 1 0 -552.362)" label="Layer 1" fill="#1d51c7" fill-rule="nonzero" stroke="#000000" stroke-width="1px" id="imagebot_17" d="M27.82646,854.5667C31.10496,851.4243 37.42724,847.0778 44.1493,835.2391C56.79191,812.9732 52.01025,784.2397 87.47939,760.9082C108.19545,747.2812 119.22449,739.96814 144.22693,738.54394C186.65992,736.12685 241.82593,741.76642 284.79293,762.0281C319.93213,778.5986 372.74276,838.5063 372.74276,838.5063C379.3265,856.0843 380.01852,872.0761 372.74276,885.9227C372.74276,885.9227 321.85847,927.6435 291.93201,940.175C261.36936,952.9729 227.68133,959.7988 194.54875,960.1065C176.575,960.2734 159.08437,946.4196 141.52862,950.277C137.80782,951.0945 136.80375,959.2133 132.19979,956.8791C106.72394,943.9627 97.36953,927.6902 78.65501,913.8121C69.16894,906.7775 49.05896,876.786 50.00512,878.2749C50.00512,877.4326 36.30621,876.5986 33.94471,872.9214C32.92055,871.3267 39.78987,868.1014 37.55419,863.239C36.8961,861.8076 34.72569,861.7536 33.17993,861.4497C31.17883,861.0562 27.06168,861.4497 27.06168,861.4497C27.06168,861.4497 26.15991,856.164 27.82646,854.5667z"/>
  <path transform="translate(-26.1599 -169.388) matrix(1 0 0 1 0 -552.362)" label="Layer 1" fill="#ffff00" fill-rule="nonzero" stroke="#000000" stroke-width="1px" id="imagebot_16" d="M372.74276,839.3856L386.21448,844.671C386.21448,844.671 362.31174,811.4837 357.44714,794.9137C350.68483,771.8797 332.00088,751.2954 307.96036,739.04629C295.48202,732.68831 281.56331,729.11176 267.72783,726.94101C239.595,722.52703 210.56476,721.75005 182.31225,725.31866C162.68372,727.79796 125.11358,741.16628 125.11358,741.16628C125.11358,741.16628 181.3625,737.10964 208.40614,741.30295C237.62978,745.8343 254.62917,748.5323 288.59129,764.0741C315.22521,776.2623 369.83881,833.4775 372.74276,839.3856z"/>
  <path transform="translate(-26.1599 -169.388) matrix(1 0 0 1 0 -552.362)" label="Layer 1" fill="#6e8823" fill-rule="evenodd" stroke="#000000" stroke-width="1px" id="imagebot_15" d="M372.26283,838.6796C382.79397,842.9156 393.28024,846.1643 403.28683,838.86C393.56002,856.463 398.2853,871.925 402.56922,887.4523C402.56922,887.4523 393.92556,880.8542 388.80316,880.5692C381.93879,880.1873 369.44628,887.6896 369.44628,887.6896C375.37248,875.4892 377.5251,856.7407 372.26283,838.6796z"/>
  <path transform="translate(-26.1599 -169.388) matrix(1 0 0 1 0 -552.362)" label="Layer 1" fill="#12317d" fill-rule="evenodd" stroke="#000000" stroke-width="1px" id="imagebot_14" d="M402.3974,838.8499C402.00717,840.6737 429.34664,814.8625 445.39697,807.1502C456.09826,802.0081 466.08098,796.0498 479.81212,797.9729C482.13972,798.2989 486.25593,801.8833 484.40081,803.3263C473.31042,811.9535 463.50727,826.9704 458.52781,841.5189C452.19769,860.0136 449.27131,878.9377 454.77036,900.0425C456.78267,907.7656 457.25954,913.866 459.45951,923.5216C460.65332,928.7613 466.51611,944.3322 462.98693,944.8109C456.68043,945.6662 424.91613,908.0875 423.21831,909.6309L402.79832,887.1025C398.69861,870.8502 394.05862,855.6205 402.3974,838.8499z"/>
  <path transform="translate(-26.1599 -169.388) matrix(1 0 0 1 0 -552.362)" label="Layer 1" fill="#599ed0" fill-rule="evenodd" stroke="#000000" stroke-width="1px" id="imagebot_13" d="M477.51778,805.6207C465.1308,815.5926 451.73955,827.9258 446.92653,839.271C439.79421,856.0832 434.38987,871.2765 439.03738,894.2961C441.85287,908.2415 448.70499,920.1381 452.95072,933.8677C454.71771,939.5817 420.5458,909.9124 413.50525,893.0449C403.75566,869.6872 411.79349,854.0155 417.32916,841.5182C419.79039,835.9618 424.70897,831.7385 429.33656,827.7993C440.32452,818.446 452.05067,808.3702 466.04606,804.8559C469.76306,803.9226 480.50304,803.2175 477.51778,805.6207z"/>
  <path transform="translate(-26.1599 -169.388) matrix(1 0 0 1 0 -552.362)" label="Layer 1" fill="#97dff1" fill-rule="evenodd" stroke="#000000" stroke-width="1px" id="imagebot_12" d="M369.9259,887.2281C369.9259,887.2281 385.40744,884.383 388.80316,889.7466C395.45472,900.2529 383.96604,914.3337 377.44599,925.2803C360.55397,953.6406 333.03901,970.9376 304.67724,974.6373C273.82397,978.6621 242.96702,966.6126 212.13872,962.4008C206.55281,961.6377 195.39102,960.0391 195.39102,960.0391C195.39102,960.0391 265.80047,951.5461 297.82453,937.5235C324.66738,925.7696 369.9259,887.2281 369.9259,887.2281z"/>
  <path transform="translate(-26.1599 -169.388) matrix(1 0 0 1 0 -552.362)" label="Layer 1" fill="#0a0000" fill-opacity="0.68944" fill-rule="evenodd" stroke-width="1px" d="M27.82646,854.5667C31.10496,851.4243 37.42724,847.0778 44.1493,835.2391C56.79191,812.9732 52.01025,784.2397 87.47939,760.9082C136.16061,743.22971 182.82037,889.2207 50.00512,878.2749C50.00512,877.4326 36.30621,876.5986 33.94471,872.9214C32.92055,871.3267 39.78987,868.1014 37.55419,863.239C36.8961,861.8076 34.72569,861.7536 33.17993,861.4497C31.17883,861.0562 27.06168,861.4497 27.06168,861.4497C27.06168,861.4497 26.15991,856.164 27.82646,854.5667z" id="imagebot_11"/>
  <path transform="translate(-26.1599 -169.388) matrix(1 0 0 1 0 -552.362)" label="Layer 1" fill="#2457a3" fill-opacity="0.69565" fill-rule="evenodd" stroke-width="1px" id="imagebot_10" d="M97.42155,803.3263C93.33053,808.0019 74.46807,823.1913 83.28152,815.4685C93.99407,806.0815 77.0468,823.3462 72.75651,822.9647C67.80944,822.5248 61.8469,818.4668 62.33595,812.3151C63.80738,793.8059 71.52868,797.7236 72.18377,788.7955C72.81501,780.1924 88.12058,779.1401 96.65677,780.3829C100.99694,781.0148 106.54793,783.7213 107.3637,788.0307C108.49474,794.0056 101.42585,798.7499 97.42155,803.3263z"/>
  <path transform="translate(-26.1599 -169.388) matrix(1 0 0 1 0 -552.362)" label="Layer 1" fill="#aa4400" fill-rule="nonzero" stroke="#000000" stroke-width="3.5" stroke-linecap="round" stroke-linejoin="round" stroke-miterlimit="4" stroke-dashoffset="0" d="M92.45117,784.9715A11.08933,10.70694 0 0 0 81.36133,795.6786A11.08933,10.70694 0 0 0 92.45117,806.3856A11.08933,10.70694 0 0 0 103.53906,795.6786A11.08933,10.70694 0 0 0 92.45117,784.9715z" id="imagebot_9"/>
  <path transform="translate(-26.1599 -169.388) matrix(1 0 0 1 0 -552.362)" label="Layer 1" fill="#b9f0f5" fill-rule="evenodd" stroke-width="1px" id="imagebot_5" d="M79.83158,914.9844C83.65549,914.9844 94.96583,901.4728 101.96306,894.1433C108.35559,887.4471 121.96475,889.2003 135.19231,879.4507C150.24229,868.3578 142.44305,842.4164 141.66431,823.7362C140.92029,805.8891 141.84916,783.8627 131.07192,771.2055C128.21893,767.8549 120.81813,770.0622 118.07064,773.4999C108.03232,786.0599 118.85186,805.6738 120.36498,821.6811C121.2597,831.1463 127.76045,841.038 124.37082,849.9207C122.90669,853.7575 118.89815,856.7202 114.95424,857.865C110.77209,859.0789 106.2451,855.0814 102.01024,856.0962C93.61288,858.1086 88.87085,868.0022 80.72102,870.8562C74.65298,872.9812 67.69837,870.5352 61.47684,872.1566C57.31627,873.2409 49.82013,877.6789 49.82013,877.6789C57.85607,891.1119 69.61957,906.9915 79.83158,914.9844z"/>
  <path transform="translate(-26.1599 -169.388) matrix(1 0 0 1 0 -552.362)" label="Layer 1" fill="#280b0b" fill-opacity="0.96894" fill-rule="evenodd" stroke="#000000" stroke-width="1px" id="imagebot_4" d="M120.36498,856.861C116.19993,866.5585 129.92903,877.6175 139.48451,882.0988C144.56749,884.4826 151.173,883.5997 156.3097,881.334C164.22632,877.8422 170.09935,870.3295 174.66444,862.9793C184.31947,847.4338 192.60047,829.2707 192.25441,810.9742C192.14608,805.2464 186.13616,794.9137 186.13616,794.9137C186.13616,794.9137 139.49904,819.237 129.54236,841.5654C126.8637,847.5724 121.91219,853.2586 120.36498,856.861z"/>
  <title>Layer 1</title>

  <metadata id="imagebot_33">image/svg+xmllogoabril 2011M Mlogolentesglassesverdeblancogrisnegrologo de un website</metadata>
  <path transform="translate(2 7) matrix(0.587432 0 0 0.587432 -61.5112 -139.967)" label="Capa 1" fill="rgb(255, 255, 255)" stroke="rgb(0, 0, 0)" stroke-width="5.7" stroke-miterlimit="4" stroke-opacity="0.61497" id="imagebot_30" d="M 240.90349964904783 363.85179037231444 C 240.90349964904783 383.57020037231445 224.91857964904784 399.55512037231443 205.20016964904787 399.55512037231443 C 185.48176964904786 399.55512037231443 169.49684964904785 383.57020037231445 169.49684964904785 363.85179037231444 C 169.49684964904785 344.13339037231447 185.48176964904786 328.1484703723145 205.20016964904787 328.1484703723145 C 224.91857964904784 328.1484703723145 240.90349964904783 344.13339037231447 240.90349964904783 363.85179037231444 z"/>
  <path transform="translate(2 -2) matrix(0.595944 0 0 0.595944 -78.6295 -108.375)" label="Capa 1" opacity="0.83857" fill="rgb(0, 0, 0)" d="M 244.28591 306.53854 C 244.28591 313.28431 238.48085 318.75284 231.31996 318.75284 C 224.15907 318.75284 218.35402 313.28431 218.35402 306.53854 C 218.35402 299.79277 224.15907 294.32425 231.31996 294.32425 C 238.48085 294.32425 244.28591 299.79277 244.28591 306.53854 z" id="imagebot_27"/>
 </g>
</svg>