<?xml version="1.0" encoding="UTF-8" standalone="no"?>
<!-- Created with Inkscape (http://www.inkscape.org/) -->

<svg
   xmlns:dc="http://purl.org/dc/elements/1.1/"
   xmlns:cc="http://creativecommons.org/ns#"
   xmlns:rdf="http://www.w3.org/1999/02/22-rdf-syntax-ns#"
   xmlns:svg="http://www.w3.org/2000/svg"
   xmlns="http://www.w3.org/2000/svg"
   xmlns:sodipodi="http://sodipodi.sourceforge.net/DTD/sodipodi-0.dtd"
   xmlns:inkscape="http://www.inkscape.org/namespaces/inkscape"
   width="800"
   height="600"
   viewBox="0 0 800.00001 600.00001"
   id="svg2"
   version="1.1"
   inkscape:version="0.91 r13725"
   sodipodi:docname="fish-cartoon.svg">
  <defs
     id="defs4" />
  <sodipodi:namedview
     id="base"
     pagecolor="#ffffff"
     bordercolor="#666666"
     borderopacity="1.0"
     inkscape:pageopacity="0.0"
     inkscape:pageshadow="2"
     inkscape:zoom="1"
     inkscape:cx="368.15193"
     inkscape:cy="357.69734"
     inkscape:document-units="px"
     inkscape:current-layer="layer1"
     showgrid="false"
     inkscape:window-width="1366"
     inkscape:window-height="705"
     inkscape:window-x="-8"
     inkscape:window-y="-8"
     inkscape:window-maximized="1"
     units="px" />
  <metadata
     id="metadata7">
    <rdf:RDF>
      <cc:Work
         rdf:about="">
        <dc:format>image/svg+xml</dc:format>
        <dc:type
           rdf:resource="http://purl.org/dc/dcmitype/StillImage" />
        <dc:title></dc:title>
      </cc:Work>
    </rdf:RDF>
  </metadata>
  <g
     inkscape:label="Layer 1"
     inkscape:groupmode="layer"
     id="layer1"
     transform="translate(0,-452.36216)">
    <path
       style="fill:#fde239;fill-opacity:1;fill-rule:evenodd;stroke:#000000;stroke-width:0.48614854px;stroke-linecap:butt;stroke-linejoin:miter;stroke-opacity:1"
       d="m 119.7214,679.00942 c -7.24142,-0.28842 -15.50191,0.70653 -21.073779,5.29318 -5.772293,4.75163 -9.293347,12.81694 -9.425106,20.24646 -0.10735,6.05322 2.890125,12.35026 7.089518,16.75245 4.838217,5.07189 11.985737,8.5029 19.000237,9.17942 5.79644,0.55906 12.06856,-1.20251 16.88522,-4.4426 4.14949,-2.79129 8.03323,-8.23278 9.72541,-12.90738 2.21947,-6.13126 1.37733,-14.12813 -1.07025,-20.17376 -2.27129,-5.61019 -6.77866,-7.74123 -12.00652,-10.86477 -2.75144,-1.64391 -5.9134,-2.9551 -9.12473,-3.083 z"
       id="path4188"
       inkscape:connector-curvature="0"
       sodipodi:nodetypes="ssssssssss" />
    <path
       style="fill:#e28611;fill-opacity:1;fill-rule:evenodd;stroke:#000000;stroke-width:0.48614854px;stroke-linecap:butt;stroke-linejoin:miter;stroke-opacity:1"
       d="m 245.67833,568.18434 c 0,0 -47.02201,25.88812 -69.54114,41.29595 -18.40493,12.59284 -27.47292,20.55816 -46.63183,32.25994 -5.94803,3.63289 -16.71134,12.39797 -25.7029,17.61006 -9.99137,5.79165 -22.071288,8.05237 -31.215676,15.08221 -11.489742,8.83285 -19.34642,21.5398 -28.255419,32.92331 -6.236177,7.96831 -8.16094,7.27706 -13.591176,15.80369 -1.056693,1.65924 2.103692,4.41092 -0.268397,7.4578 -2.854299,3.66628 -11.139134,7.81155 -10.249517,11.67824 0.470204,2.04376 2.605653,4.72113 5.445474,5.07309 6.850528,0.84906 49.74976,33.77265 48.797556,34.808 0.445267,-0.43501 -46.935563,-34.04266 -52.100198,-26.22238 -3.049625,4.61774 -3.410509,12.98519 -0.620567,16.43989 3.086374,3.82176 4.4994,2.13201 6.730653,4.44867 8.005533,8.31199 6.022471,17.4229 10.233419,21.62816 21.717058,21.68774 43.260787,32.50882 66.925928,45.91035 24.71286,13.99482 51.34615,26.60594 78.49864,36.38127 21.30735,7.671 44.17507,10.35496 65.73708,17.29407 12.03808,3.87412 23.61327,9.03651 35.41991,13.55477 16.99005,6.50187 32.75448,19.40395 50.97013,19.50565 3.71772,0.0207 6.73022,-3.92812 10.44745,-3.8646 6.63882,0.11347 11.81411,8.31658 18.40684,7.5355 10.20421,-1.20896 20.78437,-8.67072 24.90344,-17.98925 2.65692,-6.01075 -7.04042,-14.97296 -2.29217,-19.55112 9.38493,-9.04869 27.5236,-10.22412 41.88759,-10.02947 7.37687,0.1 14.46098,3.46642 21.36152,5.73181 23.75098,7.79728 48.57128,12.71498 73.45461,15.33328 20.21288,2.12686 41.57738,6.23693 60.97992,0.23957 18.47268,-5.70993 40.0629,-15.25085 47.6068,-32.88907 6.53416,-15.2774 -0.16715,-34.48224 -8.03818,-49.12926 -3.53135,-6.5714 -16.45038,-15.28118 -16.45038,-15.28118 0,0 66.98594,31.71351 102.88481,31.51005 16.68337,-0.0946 36.56244,-2.83915 47.6413,-15.18477 11.14037,-12.41413 9.06924,-29.85197 7.36271,-46.36931 -2.2878,-22.14366 -18.45003,-42.47427 -23.78805,-64.09737 -3.94922,-15.9974 1.05668,-33.57989 -4.10052,-49.2369 -4.64134,-14.09087 -8.66394,-35.34668 -23.40586,-37.95088 -12.87542,-2.27447 -20.63646,15.91198 -30.76648,24.09967 -10.72196,8.66611 -19.67432,19.80155 -31.7599,26.48271 -8.72532,4.82353 -18.65793,7.43306 -28.47312,9.29688 -8.72888,1.65753 -26.6156,1.59448 -26.6156,1.59448 0,0 6.60568,-31.26937 3.21149,-48.24995 -4.78832,-23.95518 -14.26426,-47.7354 -28.73894,-67.51128 -11.4589,-15.6556 -24.90557,-35.17161 -44.22012,-38.05353 -11.22555,-1.67497 -23.83515,5.03935 -31.14655,13.6344 -8.34359,9.80841 -20.38686,35.79693 -27.735,32.58606 0,0 -30.642,-11.03252 -44.44112,-19.41917 -16.47351,-10.01208 -27.50521,-27.97214 -44.88822,-36.34353 -11.22911,-5.40778 -24.07546,-7.8176 -36.56028,-8.09415 -13.71052,-0.30369 -27.39318,3.14462 -40.51122,7.10214 -14.82686,4.47305 -30.81075,8.57224 -42.52704,18.6162 -6.77376,5.80692 -14.2717,22.5493 -14.2717,22.5493 z"
       id="path4147"
       inkscape:connector-curvature="0"
       sodipodi:nodetypes="cssssssssscsssssssssssssassssscssssssaaacssssssssssc" />
    <path
       style="fill:#ddbf0a;fill-opacity:1;fill-rule:evenodd;stroke:#000000;stroke-width:0.45013535px;stroke-linecap:butt;stroke-linejoin:miter;stroke-opacity:1"
       d="m 117.40021,688.74072 c -7.05984,1.13786 -15.243,4.53099 -18.488189,10.80684 -2.232186,4.31686 -0.832255,10.12841 1.433419,14.38803 2.39171,4.49655 6.90692,8.2121 11.80382,9.84839 5.08285,1.69844 11.19555,1.3971 16.14231,-0.73444 4.37106,-1.88345 8.12625,-5.67017 10.19913,-9.89198 1.83466,-3.73662 2.56061,-8.39993 1.33157,-12.34201 -1.16474,-3.73586 -4.28698,-6.92463 -7.69385,-8.93388 -4.29722,-2.53434 -9.75399,-3.94266 -14.72821,-3.14095 z"
       id="path4190"
       inkscape:connector-curvature="0"
       sodipodi:nodetypes="sssssssss" />
    <path
       style="fill:#fffafa;fill-rule:evenodd;stroke:none;stroke-width:0.48614854px;stroke-linecap:butt;stroke-linejoin:miter;stroke-opacity:1"
       d="m 600.56414,695.1692 c 0,0 5.76564,32.2503 5.95714,48.18111 0.23345,19.42306 -4.47075,22.05254 -6.7823,41.34178 -0.44237,3.69148 -1.11192,23.10165 -1.11192,23.10165 16.89847,0.0726 34.98366,3.02756 44.19361,10.40829 -0.74584,-24.19497 2.35953,-48.4463 4.43973,-71.17893 2.07143,-22.63659 -3.23768,-42.95703 9.06701,-67.05017 -17.0721,8.62726 -36.05891,17.05755 -55.76327,15.19627 z"
       id="path4149"
       inkscape:connector-curvature="0"
       sodipodi:nodetypes="cssccscc" />
    <path
       sodipodi:nodetypes="sacssaaasss"
       inkscape:connector-curvature="0"
       id="path4184"
       d="m 704.08791,648.60846 c -9.79763,-2.49882 -19.79991,10.64577 -28.34747,17.79173 -8.29279,6.93297 -20.5162,14.85836 -21.79302,23.95081 0,0 -5.52785,55.29807 -4.83526,73.06681 0.46355,11.89252 -7.61794,41.58424 0.11673,50.69705 9.0493,10.66166 52.73587,24.82735 75.9396,13.80774 15.57325,-7.39584 20.47752,-28.54204 24.58479,-45.1472 2.00548,-8.10784 1.27223,-16.84943 -0.35804,-25.03926 -2.24187,-11.26222 -9.46994,-21.18277 -12.74065,-32.04449 -5.86142,-19.46656 -4.91813,-28.94437 -10.97919,-51.51549 -2.69516,-10.03669 -11.60208,-23.021 -21.58749,-25.5677 z"
       style="fill:#000000;fill-rule:evenodd;stroke:#000000;stroke-width:0.48614854px;stroke-linecap:butt;stroke-linejoin:miter;stroke-opacity:1" />
    <path
       style="fill:#df5b09;fill-opacity:1;fill-rule:evenodd;stroke:#000000;stroke-width:0.48614854px;stroke-linecap:butt;stroke-linejoin:miter;stroke-opacity:1"
       d="m 693.84703,664.01445 c -10.97109,-1.41358 -18.86352,8.33857 -28.34747,17.79173 -7.78519,7.75992 -11.48745,44.4285 -11.86443,44.46393 0,0 -4.11379,35.46956 -3.42118,53.2383 0.46354,11.89252 -2.67807,26.23882 5.05661,35.35162 9.04929,10.66166 26.15323,14.38525 40.14257,12.90498 11.79437,-1.24801 25.2284,-7.32825 30.75494,-17.71562 8.28574,-15.57344 16.00574,-40.4208 11.6801,-60.39753 -4.42422,-20.43197 -12.50215,-41.30769 -22.41365,-60.06971 -5.19948,-9.84238 -10.4594,-24.13389 -21.58749,-25.5677 z"
       id="path4151"
       inkscape:connector-curvature="0"
       sodipodi:nodetypes="sscsssssss" />
    <path
       style="fill:#df5b09;fill-opacity:1;fill-rule:evenodd;stroke:none;stroke-width:1px;stroke-linecap:butt;stroke-linejoin:miter;stroke-opacity:1"
       d="m 589.93693,684.69391 c 6.57622,-20.65859 -9.48022,-49.70696 -21.19205,-68.00399 -10.76191,-16.81302 -25.71947,-31.73333 -43.19266,-38.6573 -9.88332,-3.91639 -21.55053,-8.99044 -30.99829,-3.86232 -14.95408,8.11688 -13.10484,28.59767 -13.08827,42.47632 0.0224,18.75743 -17.48105,33.60684 -23.37969,51.49746 -7.66478,23.24725 -15.56818,45.11249 -15.34645,71.77137 0.21166,25.44833 -1.08469,50.94302 0.46054,76.34624 1.21783,20.02087 -7.42717,43.24694 6.93332,59.7788 7.62855,8.78203 20.44771,12.11936 32.10331,13.14753 20.99861,1.85231 42.49955,1.20242 63.17999,-2.84986 21.77325,-4.26642 55.85396,-30.21759 56.68917,-51.08876 0.61047,-15.2556 -9.52123,-12.97633 -8.33353,-28.19857 1.97227,-25.27746 7.11185,-50.328 7.71772,-75.67363 0.27617,-11.55383 5.10541,-25.35042 -1.86593,-34.62199 -3.77968,-5.02682 -17.87699,-6.3499 -17.87699,-6.3499 0,0 7.18629,-2.55896 8.18981,-5.7114 z"
       id="path4153"
       inkscape:connector-curvature="0"
       sodipodi:nodetypes="sssssasassssssscs" />
    <path
       style="fill:#da4e08;fill-opacity:1;fill-rule:evenodd;stroke:none;stroke-width:1px;stroke-linecap:butt;stroke-linejoin:miter;stroke-opacity:1"
       d="m 284.67986,844.54484 c 0,0 28.8587,20.42157 45.38356,19.82484 18.15539,-0.65563 50.94702,-22.41149 50.94702,-22.41149 l -1.94645,-8.96137 4.86089,-3.54541 -4.18127,-4.54863 6.32377,-3.47702 -2.45348,-3.88742 5.7248,-3.21481 -3.31736,-4.21803 5.98971,-2.622 -3.91634,-3.95583 4.79178,-2.0976 -4.18127,-4.54864 5.72479,-3.2148 -3.65141,-3.36304 3.92788,-2.4282 -4.25039,-3.10083 4.99912,-6.44102 -6.71538,-0.60422 6.462,-6.37262 -4.91848,-1.39082 2.2692,-4.53722 -9.44533,1.29958 7.99399,-7.75203 -9.96365,-6.27006 6.05884,-4.06979 -4.3195,-1.65303 3.46714,-5.06162 -6.45046,-0.0114 1.07124,-4.01281 -7.31437,-0.34203 3.53626,-6.50943 -4.05458,-1.06021 -2.05029,-6.19025 -5.8515,-0.27361 -3.84723,-5.40364 -13.09674,-2.06345 c 0,0 -10.56115,-2.56895 -15.49263,-1.01464 -16.60268,5.23284 -28.06982,20.61164 -40.55736,32.63828 -3.63921,3.50488 -8.56272,8.75596 -12.4755,11.95913 -3.21393,2.63105 -5.28931,2.79009 -8.30427,5.64252 -7.96586,7.53648 -17.73883,27.61092 -17.73883,27.61092 0,0 15.44075,-15.42389 24.69608,-13.64582 12.42475,2.38695 21.30703,16.98722 23.82057,29.26402 1.69312,8.26964 -2.91656,16.9466 -7.02647,24.33914 -2.54332,4.57472 -10.5281,11.69644 -10.5281,11.69644 z"
       id="path4155"
       inkscape:connector-curvature="0"
       sodipodi:nodetypes="csccccccccccccccccccccccccccccccccccccsssscsssc" />
    <path
       style="fill:#000000;fill-rule:evenodd;stroke:#000000;stroke-width:0.48614854px;stroke-linecap:butt;stroke-linejoin:miter;stroke-opacity:1"
       d="m 383.45543,890.67987 c -7.4468,-9.82925 -20.64196,-6.15452 -33.01459,-7.14834 -7.31472,-0.58755 -21.81732,4.85808 -21.81732,4.85808 0,0 -10.31492,1.41361 -11.44262,4.00026 -3.37318,7.73712 -1.31161,2.76389 -7.95341,8.0363 -2.74604,2.17987 -16.68742,5.72645 -16.15505,9.17035 1.2572,8.13297 22.07128,14.80358 30.1358,16.80096 8.58184,2.1255 16.38384,-2.37023 25.03151,-0.5244 5.38618,1.14967 12.60547,7.33416 18.10251,6.95993 9.99275,-0.6803 10.15876,-8.11393 14.82753,-16.8844 3.28167,-6.16472 6.50925,-19.69388 2.28564,-25.26874 z"
       id="path4160"
       inkscape:connector-curvature="0"
       sodipodi:nodetypes="sscssssssss" />
    <path
       style="fill:#df5b09;fill-opacity:1;fill-rule:evenodd;stroke:none;stroke-width:1px;stroke-linecap:butt;stroke-linejoin:miter;stroke-opacity:1"
       d="m 331.88331,887.67141 c 19.4185,-7.6177 46.92456,7.41554 58.27495,0.94766 4.68429,-2.66928 10.0692,-12.11548 6.72503,-17.35218 -6.39939,-10.02094 -18.93,0.004 -35.82673,-2.74504 -21.49175,-3.49649 -66.99944,1.1549 -75.45521,-18.71017 -2.39731,-5.63195 6.36053,-9.12574 11.14711,-12.98658 35.71528,-28.80783 -8.39017,-62.13405 -35.75083,-61.29632 -15.75507,0.48239 -21.21752,39.05656 -23.34848,40.69817 -2.13096,1.64161 -31.48705,24.0023 -48.53983,34.00628 -9.96057,5.84334 -31.21567,15.0822 -31.21567,15.0822 0,0 32.44622,14.32248 49.6437,17.25118 38.79052,6.60596 77.0275,27.78624 87.588,32.53602 6.27573,2.82262 11.11999,-7.4615 16.6463,-11.53958 6.87719,-5.07494 12.13684,-12.76319 20.11166,-15.89164 z"
       id="path4162"
       inkscape:connector-curvature="0"
       sodipodi:nodetypes="ssasssssacssss" />
    <path
       style="fill:#ffffff;fill-rule:evenodd;stroke:none;stroke-width:1px;stroke-linecap:butt;stroke-linejoin:miter;stroke-opacity:1"
       d="m 112.27723,654.19237 c 2.66081,-0.456 21.24893,10.65568 31.06883,18.3251 6.17921,4.82601 11.8415,10.51864 16.19523,17.00894 5.43377,8.10039 8.41198,17.59484 11.92176,26.67618 3.05778,7.9118 6.51535,15.8149 7.93632,24.16817 2.43677,14.32481 -0.0491,29.07207 0.85226,43.57106 0.47907,7.70661 -3.38621,17.88121 2.41888,23.03954 2.83701,2.52094 8.09982,1.77751 11.43803,-0.0455 11.02694,-6.02211 14.69604,-20.37933 20.27298,-31.55533 7.6573,-15.34499 18.78413,-32.84793 17.17535,-50.55536 -1.57009,-17.2817 -15.70257,-31.12503 -25.38706,-45.58892 -4.64041,-6.93052 -15.58559,-19.60065 -15.58559,-19.60065 l -30.02917,-15.91457 c -5.69157,-3.63148 -11.06543,-7.5593 -17.92056,-10.1056 -17.9677,11.12977 -21.85941,14.30362 -30.35726,20.57702 z"
       id="path4164"
       inkscape:connector-curvature="0"
       sodipodi:nodetypes="csassssassscccc" />
    <path
       style="fill:#f9ab1a;fill-opacity:0.35403724;fill-rule:evenodd;stroke:none;stroke-width:1px;stroke-linecap:butt;stroke-linejoin:miter;stroke-opacity:1"
       d="m 121.75694,748.99147 c 22.73305,-2.67734 31.66281,-8.06193 37.05857,-25.83486 4.27931,-14.09544 -6.09564,-30.05557 -15.61923,-41.35949 -4.68105,-5.55613 -11.99195,-13.69492 -18.82605,-11.12862 -3.90232,1.46537 -4.59323,7.67806 -0.42084,7.78415 17.65403,0.44889 22.89266,19.79099 23.27777,22.87945 0.65339,5.23995 1.80292,12.32867 -0.84029,18.05105 -2.29807,4.97516 -6.67736,10.05461 -11.89221,12.56256 -5.89146,2.83334 -13.09962,2.64906 -19.57678,1.68376 -9.2428,-1.37743 -23.537691,-17.74174 -25.982036,-10.43803 -1.345894,4.02153 6.849782,14.05795 12.866676,18.67302 5.58931,4.2871 16.3791,7.5481 19.95442,7.12701 z"
       id="path4166"
       inkscape:connector-curvature="0"
       sodipodi:nodetypes="sssssssaasas" />
    <path
       style="fill:#f9ab1a;fill-opacity:1;fill-rule:evenodd;stroke:#000000;stroke-width:0.48614854px;stroke-linecap:butt;stroke-linejoin:miter;stroke-opacity:1"
       d="m 66.988391,791.70496 c -9.48462,-4.83897 -15.961303,-15.05368 -26.101288,-18.34276 -5.940677,-1.92698 -14.087666,3.82273 -18.752418,-0.29646 -3.292496,-2.90742 -2.618184,-9.43916 -1.712828,-12.99115 0.856075,-3.3586 1.506961,-5.53512 3.86606,-6.30254 6.929274,-2.2541 14.40166,5.42387 20.238375,8.23461 9.094053,4.37937 26.53974,17.99045 26.53974,17.99045 0,0 -19.923628,-16.8935 -30.812412,-24.07702 -4.910153,-3.23931 -10.674118,-5.26663 -15.47134,-8.51593 -1.904591,-1.29002 -6.018722,-2.03631 -5.763021,-4.62577 0.358421,-3.62966 5.869084,-7.36666 11.481291,-11.88672 6.586546,-5.3048 16.637996,5.6044 23.149339,8.53256 6.511352,2.92816 11.443872,4.65113 16.010953,8.5843 4.567081,3.93315 7.510397,9.38733 10.746897,14.43251 2.934743,4.57478 5.939538,9.20679 7.821144,14.29569 1.074193,2.9052 2.813455,6.12367 1.912078,9.08586 -1.414731,4.64925 -5.674407,9.17499 -10.458991,10.24864 -4.368584,0.98028 -8.712021,-2.33491 -12.693579,-4.36627 z"
       id="path4168"
       inkscape:connector-curvature="0"
       sodipodi:nodetypes="saasascassszzaasss" />
    <path
       style="fill:#000000;fill-rule:evenodd;stroke:#000000;stroke-width:0.48614854px;stroke-linecap:butt;stroke-linejoin:miter;stroke-opacity:1"
       d="m 305.65555,734.59228 c 1.86604,-2.2344 49.75114,-57.91962 70.53639,-85.79459 12.97618,-17.40229 26.65479,-34.68401 35.95433,-54.25597 4.67577,-9.84066 9.69882,-31.17916 9.69882,-31.17916 0,0 -1.14893,-10.49518 -4.29643,-14.42109 -10.47605,-13.06691 -27.80346,-20.00448 -43.97827,-24.69266 -14.33613,-4.15525 -28.62224,-5.66434 -42.9443,-4.30318 -21.6758,2.06005 -46.96079,11.40901 -62.55427,18.63476 -9.64198,4.46792 -17.51494,20.58267 -24.83803,31.00997 -3.0137,4.29121 8.01417,3.86716 8.01417,3.86716 l 115.97559,-32.96364 26.68872,24.46462 -12.81495,16.0187 z"
       id="path4174"
       inkscape:connector-curvature="0"
       sodipodi:nodetypes="csscssassccccc" />
    <path
       style="fill:#e45a14;fill-opacity:1;fill-rule:evenodd;stroke:none;stroke-width:0.48614854px;stroke-linecap:butt;stroke-linejoin:miter;stroke-opacity:1"
       d="m 389.22413,583.3126 20.90644,-14.11323 c 0,0 -19.01734,-0.88926 -17.15131,-3.12367 1.86603,-2.23441 10.98885,-9.06302 10.98885,-9.06302 l -22.93369,-4.84508 6.93428,-10.12326 c 0,0 -18.1768,0.14 -20.57269,1.1888 -2.39588,1.0488 -5.41834,-9.52335 -5.41834,-9.52335 l -17.84906,1.52352 -15.92853,1.16888 c 0,0 2.47473,-10.38648 0.0788,-9.33768 -2.3959,1.0488 -9.84849,3.60239 -14.64027,5.69999 l -15.57328,6.8172 c 0,0 6.07038,-10.45384 -0.51832,-7.56965 -6.58869,2.88421 -15.10101,3.06659 -20.89492,7.7292 -5.79391,4.66261 -17.18591,16.02845 -17.18591,16.02845 l -9.87156,16.37046 z"
       id="path4172"
       inkscape:connector-curvature="0"
       sodipodi:nodetypes="ccscccscccsscssccc" />
    <path
       style="fill:#df5b09;fill-opacity:1;fill-rule:evenodd;stroke:none;stroke-width:1px;stroke-linecap:butt;stroke-linejoin:miter;stroke-opacity:1"
       d="m 279.94572,760.03705 c 26.11998,-11.55201 31.7873,-43.30123 48.93628,-65.96532 17.13299,-22.64295 35.23125,-48.94197 50.89671,-72.60314 5.27696,-7.97036 14.19997,-14.53279 15.80369,-23.9287 0.84893,-4.97367 0.17931,-11.40884 -3.69745,-14.68328 -15.16175,-12.80618 -40.17439,-0.57869 -59.57463,-5.1074 -10.95603,-2.55753 -20.22951,-10.9252 -31.40023,-12.29933 -18.20398,-2.23931 -50.37824,5.20039 -54.57106,7.03579 -4.1928,1.8354 -31.92245,16.11253 -47.05467,25.5614 -14.12565,8.82035 -40.67232,28.96299 -40.67232,28.96299 0,0 26.66007,11.04424 37.24777,20.3932 12.46266,11.00457 21.5288,25.63982 29.07734,40.38509 3.4762,6.79037 4.06536,14.47234 7.23198,21.68591 4.54123,10.34489 -0.14642,24.89997 -2.09317,37.15296 -4.32298,27.20917 -45.10642,65.89933 -21.15947,79.9328 28.04865,16.43716 66.83878,-64.66966 71.02923,-66.52297 z"
       id="path4170"
       inkscape:connector-curvature="0"
       sodipodi:nodetypes="sssssaasacaasaas" />
    <path
       style="fill:#000000;fill-rule:evenodd;stroke:#000000;stroke-width:0.48614854px;stroke-linecap:butt;stroke-linejoin:miter;stroke-opacity:1"
       d="m 142.97085,633.52088 c 3.19068,0.72961 43.37889,24.8591 59.12519,43.51314 12.09716,14.331 23.77157,30.94453 25.15766,50.18506 1.33957,18.59478 -7.43267,34.47234 -14.73822,50.39578 -5.7328,12.49544 -13.06042,19.13157 -20.52648,33.03933 -2.29043,4.2666 -0.013,11.46618 -0.74217,16.67126 -0.7208,5.1454 -2.85481,8.45746 -1.84932,13.01104 0.72359,3.27692 4.76851,8.39194 4.76851,8.39194 l 3.35199,-14.93408 11.42651,6.33847 -5.96665,-10.14608 8.10916,2.12044 -0.58744,-6.12184 7.0379,6.13325 -4.50378,-10.07767 -1.58957,-3.55681 8.70811,1.85822 11.17313,-0.63838 -11.29983,-2.85004 -7.51016,-2.38263 16.22982,-2.14317 -8.97304,-2.45104 -1.8545,-4.14963 10.37834,-2.41678 -4.65354,-0.79802 6.14499,-5.29228 -8.48992,-1.67437 2.55293,-6.35837 1.57747,-17.93396 3.99699,-3.87602 7.42952,10.21449 c 0,0 -7.95937,-11.4001 -4.82628,-15.60671 3.1331,-4.20661 12.03703,-0.30776 12.03703,-0.30776 l -6.56562,-9.88388 6.45046,0.0114 -3.38649,-2.77023 9.18039,-1.89238 -10.3668,-3.96726 c 0,0 -1.32464,-2.96401 4.99913,-6.44101 6.32377,-3.47702 1.07125,-4.01282 1.07125,-4.01282 0,0 10.85061,-6.16742 7.85575,-4.85641 -2.99487,1.31099 -6.51958,1.43638 -6.51958,1.43638 l 3.46714,-5.06161 -7.78663,3.40859 10.12494,-9.39362 -11.04642,4.1268 9.26104,-9.72424 -8.31649,2.223 c 0,0 7.46413,-8.93764 5.06824,-7.88885 l -15.57328,6.8172 7.47566,-15.32166 -7.65994,6.89702 0.55293,-11.58247 -4.80332,8.48165 1.43562,-13.71854 c 0,0 -1.72047,-12.71362 -6.09756,-19.30287 -4.37707,-6.58925 -20.80471,-19.44014 -32.81925,-26.9651 -11.1454,-6.98057 -35.87469,-16.52291 -35.87469,-16.52291 z"
       id="path4176"
       inkscape:connector-curvature="0"
       sodipodi:nodetypes="casssssccccccccccccccccccccccccsccccccscscccccccsccccccsacc" />
    <path
       style="fill:#000000;fill-rule:evenodd;stroke:#000000;stroke-width:0.48614854px;stroke-linecap:butt;stroke-linejoin:miter;stroke-opacity:1"
       d="m 119.35902,716.0561 c -5.1166,1.73285 -13.52138,-1.75882 -14.59893,-7.00368 -1.09895,-5.34895 6.25361,-11.24381 10.88799,-12.32998 4.63436,-1.08616 9.71901,0.78705 11.13772,4.49896 1.9728,5.16167 -2.15109,13.04796 -7.42678,14.8347 z"
       id="path4178"
       inkscape:connector-curvature="0"
       sodipodi:nodetypes="aazaa" />
    <path
       style="fill:none;fill-rule:evenodd;stroke:#000000;stroke-width:0.48614854px;stroke-linecap:butt;stroke-linejoin:miter;stroke-opacity:1"
       d="m 144.14445,707.71016 c 2.17678,0.83303 -2.93699,21.29235 -19.98535,22.88792 -8.50152,0.79567 -22.24326,-7.11324 -22.24326,-7.11324"
       id="path4180"
       inkscape:connector-curvature="0"
       sodipodi:nodetypes="csc" />
    <path
       style="fill:#ffffff;fill-rule:evenodd;stroke:none;stroke-width:1px;stroke-linecap:butt;stroke-linejoin:miter;stroke-opacity:1"
       d="m 468.76857,590.02523 c 11.88126,-4.02177 -39.26831,-19.09546 -46.89997,-26.30242 -4.6337,-4.37586 -41.6153,111.04049 -103.39455,158.88248 0,0 32.61107,-27.53146 48.16534,-32.98847 12.48766,-4.38112 24.09883,4.21908 32.09336,12.37437 12.20995,12.45553 13.77576,32.12523 17.60423,49.06075 2.88654,12.76878 5.99224,26.13865 3.91929,39.06125 -3.35198,20.89601 -12.01709,41.93413 -25.79185,58.11415 -8.41795,9.88785 -32.69008,21.39785 -32.69008,21.39785 0,0 19.18983,1.02923 28.72761,0.18247 3.79746,-0.33714 8.80873,-4.99105 11.24224,-2.08618 5.58142,6.66255 -18.76752,34.583 -10.35537,26.50513 13.28539,-12.75751 35.18667,-5.9096 43.70316,-19.37857 21.25398,-33.61352 -1.25891,-80.65696 -3.07348,-119.26843 -1.47287,-31.34055 6.62227,-62.84312 14.71821,-93.25301 4.60492,-17.29697 14.56387,-32.8822 19.10962,-50.18304 1.00847,-3.83818 1.26308,-7.83368 1.7774,-11.7667 0.45018,-3.44242 -3.47415,-8.7881 1.14484,-10.35163 z"
       id="path4182"
       inkscape:connector-curvature="0"
       sodipodi:nodetypes="sscsaaaacassasaaas" />
    <ellipse
       style="opacity:1;fill:#ffffff;fill-opacity:1;fill-rule:nonzero;stroke:none;stroke-width:2.9000001;stroke-linecap:round;stroke-linejoin:round;stroke-miterlimit:4;stroke-dasharray:none;stroke-dashoffset:0;stroke-opacity:1"
       id="path4192"
       cx="178.62956"
       cy="689.50238"
       transform="matrix(-0.91607329,0.40101088,0.40801481,0.91297531,0,0)"
       rx="2.1762886"
       ry="2.1611862" />
  </g>
</svg>
