<?xml version="1.0" encoding="UTF-8"?>
<!DOCTYPE svg PUBLIC "-//W3C//DTD SVG 1.1//EN" "http://www.w3.org/Graphics/SVG/1.1/DTD/svg11.dtd">
<svg version="1.1" xmlns="http://www.w3.org/2000/svg" xmlns:xlink="http://www.w3.org/1999/xlink" x="0" y="0" width="912" height="932" viewBox="0, 0, 912, 932">
  <g id="Layer_1">
    <path d="M749.26,359.034 C723.21,340.368 690.07,334.111 675.19,365.241 C669.81,376.464 663.53,398.021 665.02,411 C667.09,428.867 683.1,429.438 690.16,447.393 C704.81,441.144 713.93,453.637 728.09,456.378 C740.85,458.836 763.57,453.839 773.06,443.783 C795.46,420.041 779.34,381.315 759.84,363.275" fill="#EA862C"/>
    <path d="M773.75,422.071 C783.18,433.517 784.21,443.384 798.99,449.526 C812.08,454.962 823.75,454.006 837.24,451.743 C860.62,447.836 886.06,440.071 889.66,415.359 C893.94,386.086 871.78,380.974 847.76,379.749 C835.85,379.139 821.6,378.299 809.72,379.749 C795.86,381.445 785.97,391.17 771.63,392.446" fill="#EA862C"/>
    <path d="M640.43,531.657 C680.62,539.546 701.05,561.979 718.15,597.371 C739.58,641.747 740.29,682.383 706.31,719.95 C698.41,728.666 670.19,756.016 655.26,753.958 C643.37,752.318 620.972,727.79 619.232,715.765 C617.821,705.999 621.524,690.982 621.392,680.315 C621.166,661.928 616.84,648.527 611.174,631.415 C608.356,622.918 602.222,608.126 602.628,599.62 C603.313,585.198 617.768,568.79 624.826,556.708 C633.391,542.049 634.087,535.949 634.087,518.962" fill="#E9842C"/>
    <path d="M625.304,455.928 C619.566,421.253 541.497,402.98 513.041,402.974 C483.297,402.967 445.563,410.42 419.996,426.51 C400.602,438.713 401.412,459.62 400.897,480.668 C418.662,463.418 436.528,534.044 438.655,543.056 C446.121,574.69 432.888,602.701 468.294,616.493 C481.421,600.811 525.792,571.334 546.887,565.866 C569.481,560.008 593.278,573.124 610.386,584.801 C630.428,565.563 625.893,542.38 629.539,515.183" fill="#ABD28F"/>
    <path d="M624.729,507.517 C626.309,528.365 613.287,564.142 592.046,571.856 C594.279,581.892 592.264,593.588 605.169,596.14 C628.267,566.18 645.96,539.351 634.986,499.078 C631.095,505.568 627.238,513.123 620.189,517.3" fill="#89A874"/>
    <path d="M545.208,407.578 C554.471,408.347 562.824,417.57 568.475,424.177 C564.908,424.553 561.998,426.265 558.499,426.51 C574.208,434.573 602.416,449.451 606.485,466.755 C583.123,452.556 557.758,431.383 530.413,426.684 C521.935,425.228 504.3,429.861 511.279,416.424 C486.885,414.249 455.323,422.508 436.031,438.634 C435.012,417.396 498.075,398.138 515.333,398.746 C515.444,394.453 517.87,395.76 519.82,392.765" fill="#89A874"/>
    <path d="M138.912,375.521 C144.074,360.802 102.351,363.26 92.534,362.456 C102.041,350.657 125.699,362.774 134.685,371.28" fill="#009049"/>
    <path d="M143.146,377.631 C136.72,360.931 118.076,353.42 107.471,340.298 C129.093,344.581 173.817,344.914 183.354,369.168" fill="#009049"/>
    <path d="M196.049,362.825 C193.83,343.413 205.425,310.168 229.694,314.484 C225.496,326.317 220.44,343.624 225.7,352.827 C212.952,351.418 200.442,358.735 187.588,360.699" fill="#009049"/>
    <path d="M185.47,350.121 C182.824,339.15 162.143,339.933 152.064,336.381 C160.179,346.401 164.018,357.307 168.786,369.012 C177.465,366.343 184.557,360.505 191.818,354.355" fill="#009049"/>
    <path d="M185.47,345.895 C186.514,317.077 202.821,297.522 219.267,275.195 C192.156,278.373 165.952,339.39 166.429,362.825" fill="#009049"/>
    <path d="M191.818,354.355 C190.379,332.284 222.349,254.901 254.587,277.888 C239.207,301.424 223.328,324.038 208.747,348.004" fill="#009049"/>
    <path d="M174.889,339.543 C173.091,339.462 160.026,324.822 154.784,321.312 C138.853,310.632 113.837,302.395 94.761,300.061 C106.667,319.058 127.042,336.121 138.912,356.473" fill="#009049"/>
    <path d="M138.912,356.473 C145.466,310.632 86.901,312.888 61.558,325.256 C87.964,333.162 125.006,346.242 145.262,364.934" fill="#009049"/>
    <path d="M179.125,320.493 C175.53,290.837 131.016,275.64 107.387,269.577 C122.528,292.287 135.953,312.372 147.38,337.425" fill="#009049"/>
    <path d="M141.029,324.728 C131.774,281.506 103.25,272.246 62.936,269.316 C86.748,281.026 126.893,309.71 138.912,333.19" fill="#009049"/>
    <path d="M119.87,244.315 C97.987,229.363 72.477,208.852 44.337,215.447 C57.563,234.279 80.714,254.495 88.125,276.06" fill="#009049"/>
    <path d="M143.146,273.943 C136.677,273.681 103.752,216.985 87.278,207.118 C138.34,226.753 174.383,266.735 212.981,303.57" fill="#009049"/>
    <path d="M145.262,271.824 C138.825,254.345 116.505,235.576 97.681,237.456 C118.58,260.528 147.026,278.88 164.304,305.688" fill="#009049"/>
    <path d="M168.539,316.265 C168.663,280.918 182.45,257.739 212.749,234.584 C211.27,256.709 202.836,292.759 191.818,312.03" fill="#009049"/>
    <path d="M193.932,314.148 C197.102,256.656 224.937,210.129 286.991,214.681 C256.458,229.53 200.487,261.007 204.516,301.453" fill="#009049"/>
    <path d="M200.284,240.086 C199.61,211.26 217.196,166.431 248.155,157.188 C221.334,165.926 157.315,214.813 162.195,248.55" fill="#009049"/>
    <path d="M193.932,265.48 C187.327,246.9 180.982,211.084 195.362,195.216 C176.354,209.303 141.898,258.382 138.912,282.405" fill="#009049"/>
    <path d="M198.169,248.55 C198.459,216.979 208.253,204.71 230.477,182.377 C249.69,163.075 270.096,159.334 291.327,147.312 C268.074,153.785 241.632,151.561 219.571,162.429 C208.654,167.803 178.241,185.161 177.001,197.764" fill="#009049"/>
    <path d="M177.001,218.922 C160.628,187.505 142.899,152.249 101.649,155.911 C124.476,176.716 145,223.577 143.146,254.897" fill="#009049"/>
    <path d="M143.146,248.55 C140.655,226.555 134.883,197.104 115.317,184.596 C93.694,170.769 68.812,168.897 44.193,167.947 C62.798,175.336 74.77,196.009 86.365,211.288 C94.655,222.214 122.686,246.143 119.87,261.246" fill="#009049"/>
    <path d="M134.685,132.165 C118.45,85.886 69.852,85.238 30.582,77.272 C47.446,90.449 62.261,103.522 77.432,119.279 C92.174,134.593 124.264,161.233 124.104,185.068" fill="#009049"/>
    <path d="M126.216,182.95 C121.589,158.449 141.81,99.709 162.297,75.679 C161.702,116.127 166.16,146.876 183.354,182.95" fill="#009049"/>
    <path d="M155.843,233.737 C155.93,170.094 174.391,136.039 232.414,115.938 C221.421,134.92 159.628,188.927 179.125,210.459" fill="#009049"/>
    <path d="M166.429,142.743 C165.566,108.292 192.642,22.537 240.002,24.226 C229.049,57.346 209.826,85.708 202.207,120.577 C197.74,140.995 193.423,159.848 193.932,180.834" fill="#009049"/>
    <path d="M105.057,146.978 C100.707,113.817 64.805,99.624 40.051,85.504 C55.337,110.737 78.36,133.901 86.011,161.784" fill="#009049"/>
    <path d="M202.394,360.699 C203.676,349.114 217.381,328.876 227.634,324.547 C226.419,338.955 221.551,353.029 219.328,367.052" fill="#007944"/>
    <path d="M191.818,335.309 C181.331,310.263 154.717,299.567 128.637,293.021 C141.232,307.615 155.22,322.414 164.304,339.543" fill="#236541"/>
    <path d="M168.539,341.659 C167.103,325.744 139.514,321.009 126.831,322.8 C131.138,334.343 140.346,343.349 145.262,354.355" fill="#236541"/>
    <path d="M168.539,373.402 C157.068,358.576 134.076,357.3 115.949,362.419 C128.513,372.367 139.238,384.905 153.731,392.446" fill="#236541"/>
    <path d="M132.567,223.156 C127.168,197.871 85.792,184.697 62.878,187.313 C79.114,203.283 95.957,222.587 107.17,242.206" fill="#236541"/>
    <path d="M130.451,299.335 C125.52,281.454 97.161,284.645 82.247,282.115 C93.094,289.517 102.027,300.532 111.401,309.914" fill="#236541"/>
    <path d="M189.697,301.453 C188.357,264.771 221.145,253.958 248.459,238.319 C239.185,255.999 226.33,271.94 219.328,290.875" fill="#236541"/>
    <path d="M183.354,157.556 C180.793,127.338 203.743,103.911 210.877,77 C193.495,82.575 163.689,128.104 160.078,146.978" fill="#236541"/>
    <path d="M128.337,166.019 C108.219,127.777 76.112,97.17 31.78,92.379 C54.9,115.455 83.337,154.055 88.125,187.178" fill="#236541"/>
    <path d="M280.698,398.021 C278.811,373.106 250.927,359.004 228.106,358.242 C212.662,357.734 179.822,371.302 164.16,377.704 C116.166,397.332 110.365,465.354 115.528,510.759 C117.868,531.287 122.299,552.954 124.156,572.95 C126.788,601.15 124.831,638.652 145.742,660.483 C180.271,696.544 233.899,682.506 273.649,664.712 C240.602,640.806 236.799,581.535 242.615,545.216 C245.945,524.397 253.303,491.595 271.59,477.834 C276.083,474.452 286.599,474.672 289.833,470.596 C299.935,457.907 278.99,406.266 276.463,393.794" fill="#584A24"/>
    <path d="M170.657,479.203 C178.415,469.72 189.024,448.117 168.184,447.844 C149.505,447.589 139.326,482.351 160.078,487.672" fill="#7D876B"/>
    <path d="M196.049,517.3 C181.783,503.37 164.864,489.29 176.653,472.278 C184.418,461.07 176.987,464.673 188.74,466.261 C197.804,467.485 209.684,480.079 217.135,485.932 C211.32,492.046 202.756,496.678 196.049,502.487" fill="#7D876B"/>
    <path d="M217.215,527.878 C200.119,515.546 193.925,516.062 207.694,498.724 C223.587,478.717 226.663,492.792 246.98,500.631 C240.52,514.566 225.642,532.259 213.358,540.813 C211.024,539.213 209.481,537.015 208.747,534.23" fill="#7D876B"/>
    <path d="M204.516,544.81 C191.953,519.75 174.667,520.346 160.561,546.761 C166.899,553.077 175.543,556.268 181.286,563.256 C186.452,554.927 189.799,544.447 196.049,536.341" fill="#7D876B"/>
    <path d="M179.125,510.948 C165.458,491.109 157.721,507.968 147.49,521.845 C152.514,530.512 160.358,538.255 168.547,544.086 C176.161,535.883 184.985,526.967 189.697,517.3" fill="#7D876B"/>
    <path d="M151.613,500.369 C147.686,494.25 142.965,487.788 137.418,483.676 C130.13,491.305 125.553,501.211 118.409,508.811 C135.193,520.975 139.042,518.742 149.498,500.369" fill="#7D876B"/>
    <path d="M151.613,449.584 C149.817,447.06 145.479,444.653 143.146,441.86 C140.138,449.191 136.968,457.225 132.785,463.7 C136.939,467.683 140.641,472.257 143.619,477.121 C148.453,472.497 151.072,465.093 151.613,458.054" fill="#7D876B"/>
    <path d="M132.567,436.887 C127.861,432.188 122.321,428.381 116.069,426.518 C109.994,436.997 115.317,456.638 121.808,464.707 C129.209,457.733 136.928,451.417 143.146,443.231" fill="#7D876B"/>
    <path d="M147.38,434.769 C170.229,454.955 163.826,428.366 181.068,419.484 C172.612,395.271 159.367,410.173 151.613,424.184" fill="#7D876B"/>
    <path d="M170.657,439.003 C179.83,444.456 188.541,452.461 197.573,457.972 C200.649,449.024 205.884,441.18 212.555,434.516 C207.417,428.519 197.652,422.007 191.818,426.306" fill="#7D876B"/>
    <path d="M227.792,441.115 C216.761,448.946 211.501,461.33 202.279,470.792 C214.016,481.966 219.992,486.49 230.272,478.827 C239.903,471.641 241.89,458.546 240.483,447.458" fill="#7D876B"/>
    <path d="M242.608,449.584 C237.641,465.195 226.83,480.335 223.655,496.011 C236.858,496.09 240.019,496.772 247.197,490.306 C257.763,480.799 257.096,466.05 274.258,459.596 C273.454,457.972 271.882,457.001 270.11,455.928" fill="#7D876B"/>
    <path d="M253.18,443.231 C262.975,450.141 276.1,455.449 287.079,461.772 C287.034,449.011 290.605,422.718 270.11,436.887" fill="#7D876B"/>
    <path d="M251.07,449.584 C254.826,437.617 260.061,426.51 267.297,416.264 C250.708,386.782 235.511,428.2 234.671,441.388 C240.222,446.8 246.589,448.488 253.18,445.35" fill="#7D876B"/>
    <path d="M215.098,428.418 C223.755,420.73 232.109,410.527 239.99,401.292 C228.894,390.539 221.112,388.652 206.484,386.848 C202.67,394.535 198.179,402.001 193.892,409.478 C196.995,414.872 202.531,418.795 208.747,419.955" fill="#7D876B"/>
    <path d="M179.125,403.024 C184.833,395.439 192.99,388.618 196.078,380.024 C175.747,364.776 150.318,394.135 177.001,405.142" fill="#7D876B"/>
    <path d="M130.451,403.024 C149.477,408.572 157.633,417.216 136.221,432.536 C128.193,430.998 121.784,425.365 126.216,417.837" fill="#7D876B"/>
    <path d="M121.988,517.3 C146.577,531.454 87.892,554.678 113.519,519.408" fill="#7D876B"/>
    <path d="M113.519,468.624 C123.533,472.416 133.444,478.152 140.804,486.026 C139.128,511.072 108.936,496.301 105.057,479.203" fill="#7D876B"/>
    <path d="M145.262,532.112 C151.797,538.64 159.59,545.13 164.276,552.641 C154.292,561.864 139.814,568.144 128.304,574.476 C116.181,561.87 115.412,547.914 130.451,536.341" fill="#7D876B"/>
    <path d="M138.912,570.203 C145.887,576.157 153.558,584.908 159.961,591.768 C166.552,586.097 173.091,577.758 176.784,570.203 C170.539,565.316 163.826,558.216 155.998,556.811 C155.863,562.126 153.007,565.787 151.613,570.203" fill="#7D876B"/>
    <path d="M187.588,572.32 C192.272,575.693 197.123,579 201.877,582.074 C205.073,578.651 220.261,563.918 219.095,559.529 C216.555,549.958 208.704,559.537 206.629,563.859" fill="#7D876B"/>
    <path d="M181.241,576.546 C189.952,582.429 197.383,593.116 203.7,601.469 C186.858,633.916 152.701,602.667 177.001,585.016" fill="#7D876B"/>
    <path d="M155.843,599.824 C164.587,606.472 212.676,640.632 172.869,646.295 C169.794,646.729 145.146,632.678 143.711,629.333 C140.036,620.766 151.426,609.635 157.956,606.168" fill="#7D876B"/>
    <path d="M153.731,601.94 C149.164,593.966 130.581,577.358 128.827,596.061 C126.984,615.753 154.4,608.575 164.304,601.94" fill="#7D876B"/>
    <path d="M248.956,405.142 C257.711,409.115 266.648,417.751 276.143,417.513 C277.695,406.157 269.545,389.587 263.295,380.401 C257.817,386.065 258.101,393.635 255.304,400.907" fill="#7D876B"/>
    <path d="M217.215,377.631 C223.698,380.909 229.861,383.844 235.836,387.528 C238.547,381.489 242.789,375.572 248.357,371.816 C240.802,364.362 231.108,362.896 221.605,367.479 C221.24,369.488 221.363,371.345 221.44,373.402" fill="#7D876B"/>
    <path d="M225.676,561.733 C221.793,572.421 213.45,579.571 208.963,589.237 C215.881,594.16 224.25,598.17 231.703,601.861 C233.763,592.797 234.566,583.719 234.139,574.43" fill="#7D876B"/>
    <path d="M229.911,614.637 C218.803,609.068 211.051,600.961 198.413,600.005 C195.815,609.88 189.125,619.017 187.748,628.979 C193.127,631.098 198.29,633.982 202.836,637.434 C207.461,625.956 219.435,617.384 229.911,612.52" fill="#7D876B"/>
    <path d="M234.139,614.637 C229.296,621.765 211.608,633.278 213.097,641.987 C213.625,645.041 234.769,665.67 238.475,666.141 C257.734,668.628 243.283,633.461 240.483,623.106" fill="#7D876B"/>
    <path d="M217.215,669.657 C212.508,665.097 204.226,647.383 198.108,646.476 C193.149,645.736 179.433,658.614 178.946,663.35 C176.475,687.219 218.689,665.981 225.676,663.313" fill="#7D876B"/>
    <path d="M172.773,663.313 C173.1,662.972 175.44,658.593 174.818,653.11 C137.155,639.29 145.219,676.221 164.304,656.962" fill="#7D876B"/>
    <path d="M217.215,419.955 C219.671,412.343 213.088,400.733 205.25,396.374 C208.188,401.566 210.014,407.694 210.864,413.61" fill="#ED9930"/>
    <path d="M200.284,458.054 C203.227,453.144 193.026,434.561 185.732,429.063 C187.086,437.733 191.799,446.581 191.818,455.928" fill="#ED9930"/>
    <path d="M204.516,510.948 C197.224,500.434 195.961,482.14 193.886,468.972 C194.003,480.146 193.932,491.32 193.932,502.487" fill="#ED9930"/>
    <path d="M172.773,532.112 C170.983,522.238 166.958,512.615 163.791,503.126 C160.591,511.827 160.251,525.914 164.304,534.23" fill="#ED9930"/>
    <path d="M168.539,479.203 C165.4,470.467 162.48,461.517 162.201,452.244 C162.579,460.655 161.064,469.037 162.195,477.093" fill="#ED9930"/>
    <path d="M225.676,517.3 C223.123,507.083 220.79,493.612 215.577,485.686 C214.496,495.249 213.103,510.179 217.215,517.3" fill="#ED9930"/>
    <path d="M246.834,485.556 C241.652,475.193 236.048,464.984 231.825,454.208 C233.986,466.035 235.763,478.036 238.374,489.79" fill="#ED9930"/>
    <path d="M208.747,578.665 C201.786,569.188 197.638,556.731 197.696,545.078 C194.361,555.287 193.665,572.544 200.284,580.781" fill="#ED9930"/>
    <path d="M191.818,612.52 C184.605,607.386 181.193,595.538 179.068,586.337 C178.082,598.084 174.783,611.601 181.241,620.989" fill="#ED9930"/>
    <path d="M164.304,587.134 C158.75,577.403 155.317,566.773 151.572,555.999 C149.607,565.476 147.519,576.402 151.613,585.016" fill="#ED9930"/>
    <path d="M234.139,654.844 C234.029,643.887 233.288,630.053 226.033,621.432 C225.569,630.473 224.379,639.53 223.56,648.5" fill="#ED9930"/>
    <path d="M138.912,504.604 C139.132,504.988 135.388,490.087 134.578,484.786 C134.667,488.63 134.706,496.889 134.685,502.487" fill="#ED9930"/>
    <path d="M143.146,468.624 C137.285,459.255 135.816,448.097 136.807,437.235 C136.797,442.76 136.817,448.284 136.797,453.811" fill="#ED9930"/>
    <path d="M132.567,428.418 C131.2,426.778 129.13,411.153 132.103,405.105 C132.147,413.807 134.937,421.781 134.685,430.534" fill="#ED9930"/>
    <path d="M164.304,432.652 C164.278,429.816 165.748,412.958 159.977,405.809 C159.043,412.646 161.079,422.449 160.078,426.306" fill="#ED9930"/>
    <path d="M128.337,500.369 C123.485,491.879 123.301,482.283 119.772,473.322 C119.406,483.539 123.929,492.459 124.104,502.487" fill="#ED9930"/>
    <path d="M167.325,637.912 C160.649,629.197 157.865,618.531 154.045,609.256 C151.759,617.35 151.412,625.877 154.629,633.684" fill="#ED9930"/>
    <path d="M248.956,439.003 C253.567,430.339 250.991,419.506 246.095,411.254 C245.77,420.499 248.91,429.657 248.956,439.003" fill="#ED9930"/>
    <path d="M238.374,390.328 C239.207,382.708 235.619,376.116 228.426,373.519 C232.056,378.03 233.951,383.244 236.257,388.212" fill="#ED9930"/>
    <path d="M145.262,616.763 C138.418,609.119 140.162,597.264 136.28,587.503 C132.719,600.753 135.504,609.089 141.029,620.989" fill="#ED9930"/>
    <path d="M143.146,553.272 C139.253,552.084 138.752,537.351 136.643,530.134 C137.01,542.438 139.012,554.445 143.146,565.969" fill="#ED9930"/>
    <path d="M278.58,449.584 C279.617,447.038 276.732,433.284 270.864,427.221 C272.779,435.314 276.781,442.412 280.698,449.584" fill="#ED9930"/>
    <path d="M272.228,415.721 C273.083,411.415 269.089,391.249 266.049,382.112 C270.858,389.297 274.469,397.441 278.58,405.142" fill="#ED9930"/>
    <path d="M202.394,676.009 C199.306,668.332 195.579,660.587 191.669,653.328 C192.919,661.102 193.236,671.818 200.284,676.009" fill="#ED9930"/>
    <path d="M217.215,601.94 C219.922,594.958 219.774,587.148 221.879,579.645 C227.28,591.738 230.277,605.182 236.257,616.763" fill="#ED9930"/>
    <path d="M128.337,460.162 C123.78,452.52 121.832,442.412 120.338,434.566 C119.501,443.405 119.537,451.875 121.988,460.162" fill="#ED9930"/>
    <path d="M430.94,493.125 C384.691,475.612 325.276,449.329 275.027,472.271 C233.544,491.21 233.493,578.055 240.549,617.384 C251.694,679.54 301.478,698.595 361.198,694.311 C410.594,690.764 422.66,665.401 432.996,622.308 C436.456,607.888 441.348,594 443.163,579.528 C446.704,551.388 436.766,524.739 430.94,497.353" fill="#E77D6D"/>
    <path d="M371.822,486.193 C383.139,491.002 393.892,505.801 394.871,517.698 C391.826,517.814 387.627,518.736 384.719,518.358 C384.92,519.229 387.091,521.078 386.381,521.796 C384.675,521.578 382.334,520.382 380.899,520.36 C346.66,544.983 306.474,487.389 308.288,551.33 C308.816,547.972 309.893,544.781 310.565,541.431 C311.281,565.982 310.477,590.324 310.454,615.081 C310.419,642.162 319.402,669.331 318.589,695.043 C315.509,693.217 313.75,692.251 311.528,689.655 C349.285,692.678 401.846,696.146 428.581,659.607 C464.009,611.177 447.832,546.312 426.84,496.772" fill="#DD4241"/>
    <path d="M320.905,684.471 C286.158,670.237 265.753,593.188 259.48,554.381 C259.097,556.057 258.082,559.732 257.888,561.104 C257.705,556.042 256.972,552.583 257.464,547.334 C257.372,550.915 256.058,553.541 255.35,556.905 C255.331,555.135 254.608,553.691 253.196,552.583 C252.665,556.23 251.034,559.58 251.135,563.852 C247.148,549.242 252.977,535.572 250.585,521.621 C236.358,543.714 248.042,593.747 253.717,618.712 C260.395,648.107 269.128,681.897 306.09,682.353" fill="#F1B09E"/>
    <path d="M354.758,536.341 C357.377,537.675 360.088,538.436 362.85,538.24 C364.222,532.744 365.758,527.205 367.389,521.854 C352.596,515.646 334.123,522.448 318.106,519.408 C301.433,516.248 293.017,509.599 279.914,498.846 C267.856,527.227 338.996,542.861 346.298,521.534" fill="#FFFFFE"/>
    <path d="M363.225,483.438 C376.114,484.649 385.532,490.964 390.625,502.269 C414.597,495.075 363.765,478.827 358.993,477.093" fill="#FFFFFE"/>
    <path d="M458.448,390.328 C468.95,386.216 458.999,376.501 450.151,381.025 C476.618,368.264 437.475,340.84 428.46,358.424 C411.519,344.437 394.262,362.839 392.42,381.648 C388.671,378.61 382.471,377.869 378.303,375.798 C374.982,380.277 372.009,385.346 369.776,390.32 C370.023,389.494 370.941,386.164 371.362,384.302 C361.749,383.302 349.937,392.873 348.407,402.342 C342.599,390.553 328.408,401.844 335.397,411.211 C326.61,397.006 314.446,419.86 310.217,424.132 C305.223,429.148 296.353,430.418 293.612,438.518 C294.196,436.806 297.591,462.417 295.939,460.206 C303.741,470.647 334.659,463.28 351.205,462.172 C363.612,461.336 392.422,468.972 395.319,452.012 C405.161,451.453 411.672,441.339 410.678,432.558 C426.26,429.745 414.369,420.891 420.286,413.626 C428.124,403.99 447.232,403.566 460.565,398.797" fill="#79BB43"/>
    <path d="M378.037,434.769 C376.468,439.126 372.784,443.644 369.679,447.343 C363.735,445.138 358.333,441.201 353.08,437.205 C360.138,436.655 369.08,438.286 373.807,434.769" fill="#619635"/>
    <path d="M390.732,415.721 C398.17,425.133 379.962,423.53 384.829,432.231 C394.492,449.518 402.847,415.939 403.43,413.61" fill="#619635"/>
    <path d="M405.544,411.493 C412.861,416.25 417.333,411.486 415.914,402.974 C413.084,405.548 407.911,408.723 405.544,411.493" fill="#619635"/>
    <path d="M348.415,403.024 C348.247,409.579 346.422,416.011 343.708,422.014 C342.068,422.478 339.502,422.494 337.842,422.58 C348.909,426.903 361.676,414.634 363.225,403.024" fill="#619635"/>
    <path d="M382.269,386.1 C386.506,387.093 388.818,392.126 394.683,388.414 C392.143,395.266 386.831,396.383 380.155,392.446" fill="#619635"/>
    <path d="M422.476,388.212 C426.537,388.13 431.105,390.399 434.948,390.185 C431.518,400.277 419.953,403.185 409.779,403.024" fill="#619635"/>
    <path d="M411.896,432.652 C414.394,444.753 401.782,458.473 389.262,456.029 C397.3,452.687 406.792,449.866 411.896,443.231" fill="#619635"/>
    <path d="M361.11,430.534 C363.004,428.968 365,425.59 367.129,423.609 C361.142,416.453 357.848,423.604 358.993,428.418" fill="#FFFFFE"/>
    <path d="M386.501,390.328 C387.33,388.82 389.875,386.905 390.528,384.418 C388.208,384.063 386.938,384.143 384.655,384.354 C383.21,387.209 386.532,388.059 386.501,388.212" fill="#FFFFFE"/>
    <path d="M430.94,386.1 C432.1,383.367 434.291,380.583 432.73,375.761 C426.86,377.16 422.606,383.664 420.359,390.328" fill="#FFFFFE"/>
    <path d="M348.415,453.811 C353.614,451.829 357.674,452.699 356.55,445.516 C351.79,445.964 352.787,449.075 350.527,451.7" fill="#FFFFFE"/>
    <path d="M327.248,413.61 C327.611,413.445 330.192,416.192 331.158,409.804 C330.38,409.077 329.641,408.323 328.93,407.528 C320.412,409.695 315.825,415.823 323.013,422.071" fill="#FFFFFE"/>
    <path d="M390.732,419.955 C396.495,424.757 388.967,428.568 382.602,430.309 C380.996,420.737 389.944,415.864 397.083,411.493" fill="#FFFFFE"/>
    <path d="M308.208,447.458 C310.862,446.98 314.059,447.066 314.19,439.192 C310.598,440.432 311.513,438.707 312.435,439.003" fill="#FFFFFE"/>
    <path d="M439.405,356.473 C442.089,363.107 422.563,371.547 428.82,358.591" fill="#FFFFFE"/>
    <path d="M409.779,358.591 C421.209,367.756 402.774,376.303 394.966,367.052" fill="#FFFFFE"/>
    <path d="M325.131,443.231 C338.575,454.644 317.839,462.78 307.684,453.802 C312.37,447.097 321.755,442.651 329.366,439.003" fill="#FFFFFE"/>
    <path d="M310.323,428.418 C310.282,430.586 310.55,432.348 310.005,434.451 C302.342,436.495 292.075,432.71 297.624,424.184" fill="#FFFFFE"/>
    <path d="M390.732,754.306 C401.24,730.145 379.151,730.819 363.647,739.172 C350.866,724.214 323.095,727.781 317.893,748.063 C304.681,749.854 287.556,759.23 282.858,772.548 C265.267,759.084 266.305,786.378 265.565,795.84 C250.824,806.158 251.585,792.373 238.852,789.813 C229.243,787.877 214.485,797.122 212.495,809.268 C204.301,800.494 193.355,809.833 191.46,819.541 C175.175,820.499 156.357,861.944 176.475,866.609 C172.545,864.854 166.755,864.237 162.77,862.542 C156.984,864.999 149.584,874.15 151.986,880.791 C155.147,889.587 167.488,886.243 172.926,891.813 C177.132,896.11 175.267,909.48 183.354,914.7 C190.053,919.03 201.491,918.51 208.274,915.38 C208.557,916.59 208.838,917.79 209.116,919.01 C223.452,920.54 234.725,918.02 245.254,907.45 C246.649,908.74 247.807,909.81 248.859,910.7 C259.938,901.65 282.629,895.83 268.167,877.044 C285.384,866.486 306.214,871.308 296.141,845.777 C298.339,844.014 305.687,840.454 308.264,839.693 C313.582,847.437 321.296,853.463 331.109,851.271 C331.854,849.271 332.767,847.931 333.603,846.153 C346.768,857.676 373.256,843.26 374.176,826.461 C395.437,829.31 395.779,806.759 382.48,797.15 C397.351,791.271 389.23,773.84 382.328,765.361 C385.55,763.717 389.321,761.288 392.853,760.65" fill="#7A3D39"/>
    <path d="M280.698,826.257 C283.122,827.127 284.288,824.85 285.235,828.156 C283.742,835.203 279.291,839.229 272.55,838.619 C270.894,833.276 272.707,829.911 276.463,826.257" fill="#AF8879"/>
    <path d="M342.063,798.746 C367.398,829.396 288.067,810.949 323.013,798.746" fill="#AF8879"/>
    <path d="M297.624,788.159 C298.552,796.28 293.036,801.494 285.249,800.531 C284.698,798.42 285.033,796.68 284.925,794.512" fill="#AF8879"/>
    <path d="M251.07,796.621 C253.114,797.985 254.727,798.078 255.565,800.862 C254.5,803.026 250.715,807.513 248.482,809.059 C245.254,807.615 244.189,806.121 242.826,802.923 C243.74,801.408 245.075,800.719 246.834,800.856" fill="#AF8879"/>
    <path d="M225.676,819.906 C235.353,815.605 247.734,834.391 231.916,841.324 C214.728,848.858 214.306,825.329 219.328,813.554" fill="#AF8879"/>
    <path d="M240.483,802.975 C263.215,808.681 226.903,828.446 232.023,802.975" fill="#AF8879"/>
    <path d="M187.588,851.649 C209.384,856.915 170.046,877.566 183.354,853.759" fill="#AF8879"/>
    <path d="M187.588,851.649 C203.177,854.093 198.325,869.291 185.896,872.475 C181.357,868.291 181.487,864.854 183.354,860.105" fill="#AF8879"/>
    <path d="M183.354,815.672 C197.783,825.023 183.161,844.153 170.983,847.234 C167.286,841.086 167.822,834.442 172.773,830.484" fill="#AF8879"/>
    <path d="M331.482,735.256 C341.3,741.196 331.868,748.976 321.18,745.574 C319.584,737.295 326.44,732.198 333.598,728.912" fill="#AF8879"/>
    <path d="M295.506,756.422 C306.279,761.035 289.091,778.11 280.293,767.256 C282.001,763.383 285.36,758.568 289.161,756.422" fill="#AF8879"/>
    <path d="M257.419,866.456 C259.851,864.013 262.345,862.814 261.331,858.365 C252.281,853.145 244.153,861.969 253.18,868.575" fill="#AF8879"/>
    <path d="M215.098,902.43 C223.306,902.7 227.388,888.164 215.098,890.225 C201.254,892.545 206.049,910.56 219.328,904.55" fill="#AF8879"/>
    <path d="M352.641,767.003 C353.824,764.638 351.046,763.39 354.658,762.47 C370.462,770.542 348.697,790.459 346.298,771.229" fill="#AF8879"/>
    <path d="M356.875,773.347 C363.762,757.995 377.73,779.147 361.11,784.238 C354.95,778.778 353.297,769.092 354.758,760.65" fill="#AF8879"/>
    <path d="M240.483,796.621 C239.134,794.881 239.41,793.185 236.829,792.714 C210.536,800.746 239.355,823.639 242.608,798.746" fill="#AF8879"/>
    <path d="M217.215,877.035 C216.341,874.483 213.75,873.222 217.636,868.79 C222.936,870.373 223.515,871.735 225.343,876.621 C222.595,879.841 219.151,881.125 215.098,881.278" fill="#AF8879"/>
    <path d="M367.456,737.374 C370.105,735.555 373.104,734.083 377.708,735.591 C378.448,742.448 375.163,748.621 369.566,752.443 C367.375,751.985 360.834,748.888 359.196,747.533 C358.77,745.482 358.993,743.712 358.993,741.603" fill="#AF8879"/>
    <path d="M335.715,760.65 C345.983,763.993 339.782,772.477 331.491,775.725 C326.029,772.447 327.633,769.59 329.366,764.877" fill="#AF8879"/>
    <path d="M177.001,915.13 C181.431,914.28 185.245,911.46 187.261,907.24 C178.095,894.96 169.441,912.9 179.125,919.36" fill="#AF8879"/>
    <path d="M295.506,701.396 C291.791,682.55 218.941,701.989 236.263,739.535 C242.826,753.769 260.431,760.158 274.455,754.364 C290.958,747.554 293.85,732.211 295.506,716.216" fill="#B82731"/>
    <path d="M238.374,714.1 C223.335,696.06 182.314,702.267 187.537,735.256 C190.001,750.839 201.453,762.897 217.201,762.287 C248.723,761.078 259.061,733.197 268.001,707.747" fill="#B82731"/>
    <path d="M278.58,711.981 C280.086,707.958 282.278,705.941 277.031,703.839 C268.385,707.818 252.854,713.561 246.533,718.326 C258.262,724.453 275.18,717.58 284.925,709.865" fill="#FFFFFE"/>
    <path d="M219.328,722.569 C212.43,727.708 202.894,719.138 196.58,714.425 C188.951,724.988 217.332,738.803 223.56,724.678" fill="#FFFFFE"/>
    <path d="M248.956,690.821 C241.347,670.1 205.73,658.781 185.999,652.632 C211.797,652.523 237.946,674.625 255.304,690.821" fill="#FFFFFE"/>
    <path d="M219.328,697.168 C228.324,678.64 213.35,649.694 200.452,636.44 C215.239,648.128 228.788,682.478 221.44,699.291" fill="#FFFFFE"/>
    <path d="M644.67,375.521 C621.398,388.406 587.709,388.58 561.142,389.856 C553.645,390.212 541.154,387.673 535.169,391.989 C528.425,396.838 527.527,416.213 523.589,424.009 C511.083,412.683 522.242,387.673 512.781,376.639 C505.478,368.117 492.385,367.479 484.371,357.111 C478.324,349.289 473.852,340.115 471.899,330.696 C519.131,375.225 572.594,376.913 634.087,369.168" fill="#ABD28F"/>
    <path d="M538.863,411.493 C575.113,425.154 593.477,447.002 603.996,484.032 C608.128,498.563 634.329,561.51 612.923,568.086 M543.097,422.071 C559.633,446.944 573.599,470.624 578.583,501.203 C580.589,513.516 577.704,535.623 583.3,544.81 M538.863,439.003 C546.848,462.453 547.056,496.772 545.208,521.572 C544.292,533.94 543.784,546.406 536.746,555.391 M521.935,417.837 C523.323,456.371 502.107,496.069 494.906,533.745 C491.723,550.402 492.679,571.957 483.841,587.134 M509.237,415.721 C493.44,440.279 478.214,461.302 467.336,489.108 C460.994,505.321 462.082,528.8 447.87,540.575 M492.308,424.184 C479.244,427.698 460.013,446.443 452.524,458.088 C444.454,470.617 446.897,487.201 437.289,498.253 M458.448,424.184 C465.141,434.232 478.358,452.447 471.145,464.396 M475.379,464.396 C463.886,463.033 454.125,472.721 443.437,471.047 C429.567,468.877 423.449,448.147 428.82,439.003 M483.841,411.493 C461.116,430.332 434.171,445.668 422.367,474.606 C422.853,477.847 425.006,479.377 428.82,479.203 M494.425,462.279 C494.296,469.414 500.605,499.993 506.864,504.791 C512.641,509.229 520.53,505.214 526.99,507.459 C535.556,510.426 542.328,518.962 549.439,523.644 M549.439,468.624 C535.875,474.541 519.602,484.546 512.413,497.795 C507.356,507.104 508.943,519.512 505.057,528.301 C497.567,545.246 480.702,553.257 464.799,561.733 M458.448,494.019 C472.847,511.107 485.872,541.766 505.007,553.272 M519.82,458.054 C533.816,463.919 561.708,474.708 570.68,487.368 C576.765,495.961 575.809,505.749 578.646,515.197 C587.09,514.611 595.884,509.614 600.23,502.487 M604.465,487.672 C596.899,488.78 589.04,491.9 585.419,498.253 M587.531,534.23 C595.598,538.69 602.338,544.688 606.678,552.742 C606.519,543.048 606.582,533.348 606.577,523.644 M625.627,496.135 C623.583,499.716 620.731,502.573 617.158,504.604 M602.352,443.231 C595.932,456.545 580.865,468.022 587.531,483.438 M581.184,504.604 C571.125,515.082 560.484,509.708 549.439,504.604 M583.3,536.341 C567.534,535.572 546.755,531.113 538.863,549.038 M536.746,549.038 C529.654,542.062 516.261,538.771 509.237,532.112 M509.237,553.272 C498.206,555.113 485.298,559.684 477.497,565.969 M481.722,572.32 C476.996,574.321 459.963,579.049 458.448,574.43 M469.032,491.9 C484.943,499.173 498.66,500.573 500.773,481.327 M475.379,451.7 C483.957,458.973 513.932,466.587 524.048,462.279 M532.516,453.811 C535.135,442.449 548.805,441.549 557.909,439.003 M557.909,447.458 C561.417,445.146 564.55,443.268 568.49,441.115 M555.792,532.112 C561.621,539.943 570.022,546.602 568.698,557.073 C579.168,562.648 594.535,557.885 604.465,553.272 M593.883,542.687 C599.335,547.443 605.156,553.845 604.465,561.733 M456.333,576.546 C460.275,583.855 461.515,591.628 462.682,599.824 M479.614,424.184 C470.585,418.86 460.829,410.674 454.216,403.024 M443.641,436.887 C442.263,432.101 439.279,428.22 435.172,426.306 M574.837,458.054 C574.262,449.09 574.538,438.409 581.184,432.652 M587.531,479.203 C595.068,479.574 602.134,480.552 608.694,483.438 M521.935,496.135 C522.154,511.652 528.425,526.465 521.935,540.575 M494.425,517.3 C480.445,518.278 463.285,534.282 452.095,519.408" fill-opacity="0" stroke="#DBEBCA" stroke-width="6.348"/>
    <path d="M773.75,519.408 C789.92,531.541 762.31,555.962 754.66,563.177 C753.27,560.139 751.11,559.161 750.21,555.448 C743.46,559.55 739.31,566.62 735.61,573.85 C731.59,564.685 724.7,567.63 720.74,576.454 C718.6,575.792 714.65,574.061 712.92,572.625 C712.51,572.958 710.66,575.801 710.32,575.81 C697.33,551.742 677.48,550.228 655.16,538.407 C631.709,525.987 633.106,492.227 621.668,469.081 C644.76,449.265 661.32,426.488 693.39,444.449 C705.9,430.94 732.51,443.609 743.65,453.877 C759.25,468.232 769.11,499.151 773.31,519.757 C774.41,499.529 766.46,482.061 759.43,465.253 C792.71,492.291 786.45,528.109 786.45,565.969" fill="#F7CEB8"/>
    <path d="M769.52,491.9 C766.98,430.796 854.55,444.718 882.2,477.042 C895.68,492.792 895.46,515.573 892.2,534.694 C886.58,567.723 872.24,571.146 849.85,592.659 C845.79,579.919 834.1,569.255 822.47,561.748 C812.05,555.005 775.81,551.416 775.87,540.575" fill="#F7CEB8"/>
    <path d="M858.4,574.43 C859.88,567.34 857.24,562.597 850.15,561.378 C863.61,539.711 837.24,539.206 831.31,527.915 C823.86,513.718 840.2,491.681 842.79,478.588 C828.32,471.43 810.21,499.317 807.31,509.971 C799.33,513.29 778.26,542.919 780.42,552.954 C801.68,554.404 837.52,548.806 852.05,565.969" fill="#E98D82"/>
    <path d="M693.34,551.156 C684.36,534.992 672.4,498.932 680.8,482.097 C680.45,483.199 679.82,484.105 678.9,484.829 C680.09,483.153 682.23,477.789 684.38,475.1 C674.56,478.448 663.43,484.331 657.8,493.749 C667.7,482.249 672.31,465.681 678.26,452.331 C673.66,443.137 664.35,442.143 655.56,442.572 C655.85,440.157 654.34,435.27 654.58,433.603 C646.62,438.358 640.25,445.138 634.189,451.649 C622.069,464.673 626.889,459.706 629.326,472.887 C633.083,493.256 638.24,508.976 634.266,529.635 C651.28,531.918 679.52,535.552 691.23,546.922" fill="#E98D82"/>
    <path d="M809.72,557.507 C827.4,566.056 848.67,575.475 864.43,588.548 C869.42,569.319 837.19,540.619 820.31,551.156" fill="#E98D82"/>
    <path d="M833,464.396 C807.77,479.755 788.27,502.827 782.09,531.577 C778.98,513.602 777.58,494.851 763.5,480.833 C771.12,456.545 801.15,455.928 822.17,455.928 C808.43,455.928 792.73,453.941 779.75,457.146 C793.4,447.305 828.27,448.755 839.35,460.162" fill="#E98D82"/>
    <path d="M727.2,451.7 C732.14,457.044 737.02,466.639 736.56,475.374 C734.6,472.48 731.41,469.879 729.46,466.898 C730.01,474.635 731.26,482.283 731.85,490.028 C727.93,483.141 724.72,475.845 720.96,468.936 C720.91,474.656 722.07,480.369 724.34,485.628 C720.95,481.654 718.63,478.183 716.27,473.408 C731.12,486.563 735.83,513.317 733.17,532.324 C726.61,524.623 728.36,508.417 724.82,498.171 C721.05,487.272 714.37,476.578 706.68,468.776 C708.43,474.962 710.78,481.074 712.54,487.106 C711.78,482.648 709.69,477.391 708.67,473.156 C707.74,480.784 706.12,488.578 703.81,495.953 C703.71,490.603 702.05,485.375 701.33,480.038 C694.65,497.533 695.99,518.989 688.93,535.586 C687.23,517.872 683.52,495.063 682.45,475.295 C680.6,475.2 678.63,475.063 676.77,474.76 C675.15,464.121 669.44,451.838 670.35,441.339 C676.76,442.804 683.07,445.784 689.36,447.264 C697.7,435.929 719.46,448.599 731.43,449.584" fill="#FEF0E6"/>
    <path d="M835.12,491.9 C827.33,504.082 820.83,516.662 820.67,531.744 C820.51,532.014 822.14,529.171 822.63,528.387 C820.9,532.361 819.9,536.893 818.46,540.677 C819.54,538.459 821.32,535.326 822.58,532.701 C820.22,537.827 820.55,543.441 820.62,548.856 C821.02,548.232 825.65,545.014 826.92,543.424 C825,548.566 840.82,556.745 847.12,561.879 C837.65,560.893 829.29,555.258 819.94,553.272 C808.02,550.741 798.19,554.664 786.77,552.954 C783.92,537.524 822.93,461.227 843.32,473.193 C836.88,493.69 830.98,503.196 830.89,525.762" fill="#E05A59"/>
    <path d="M699.69,551.022 C685.84,543.151 673.15,512.325 671.86,498.294 C669.96,501.993 666.36,507.199 665.26,512.493 C665.3,510.353 664.03,505.801 663.98,502.885 C657.76,508.251 651.37,513.754 646.68,520.556 C649.35,516.712 652.65,513.021 655.5,509.346 C655.67,509.257 653.4,513.724 653.13,514.188 C651.98,511.312 649.87,508.288 648.79,505.132 C650.11,512.447 650.32,519.207 645.14,523.295 C644.52,519.853 643.09,516.887 642.61,513.472 C640.92,520.824 640.19,528.177 638.53,535.464 C660.62,538.807 675.88,542.455 695.45,553.135" fill="#E05A59"/>
    <path d="M591.765,572.32 C569.873,567.549 561.288,550.75 532.516,561.733 C510.525,570.131 495.979,588.62 480.084,604.051 C446.948,636.224 422.657,665.597 437.442,713.512 C432.705,703.433 422.955,691.933 425.062,680.418 C429.346,690.859 425.97,707.719 430.416,720.494 C433.6,729.601 439.725,740.128 445.164,747.946 C456.048,763.594 471.681,773.665 488.235,783.136 C487.089,773.187 492.661,765.478 491.945,756.357 C491.092,745.438 480.266,737.947 482.055,727.114 C519.292,724.483 573.238,700.054 608.274,722.3 C610.739,714.687 617.328,708.834 619.856,701.553 C624.11,689.307 624.081,672.334 623.511,659.078 C622.945,645.999 621.044,633.381 617.231,620.946 C612.146,604.407 602.236,594.45 596,578.665" fill="#D8A155"/>
    <path d="M568.49,578.665 C585.956,596.286 597.092,635.094 590.074,658.31 C591.027,657.601 591.621,656.672 591.872,655.525 C591.756,658.433 591.35,669.643 591.665,667.908 C592.35,666.198 593.97,663.472 594.463,662.146 C598.166,672.151 590.886,712.807 581.875,716.253 C595.845,715.145 605.962,724.612 618.957,728.107 C619.697,701.577 628.79,678.438 623.032,650.506 C615.525,614.007 605.262,577.185 564.254,568.086" fill="#A98043"/>
    <path d="M471.145,614.637 C458.513,643.743 451.443,670.216 449.876,703.092 C448.87,724.271 440.329,753.921 458.448,769.119 C460.094,768.604 462.247,767.654 464.002,766.836 C449.753,742.979 435.606,742.283 428.716,713.52 C422.844,689.032 420.653,625.825 452.095,614.637" fill="#A98043"/>
    <path d="M532.516,565.969 C511.18,593.212 547.405,606.545 568.21,593.008 C558.556,585.691 545.93,586.786 551.276,568.36 C548.047,567.447 546.191,568.753 543.097,570.203" fill="#EAC895"/>
    <path d="M631.969,578.665 C643.61,592.632 670.18,589.035 682.43,578.136 C675.96,571.393 664.26,576.112 655.15,572.37 C649.16,569.913 644.18,563.562 638.26,560.529 C635.04,566.122 632.313,571.653 628.485,577.019 C629.398,578.49 630.563,579.745 631.969,580.781" fill="#F5C088"/>
    <path d="M648.9,671.774 C657.01,663.906 652.55,641.371 640.33,652.734 C631.709,660.761 632.777,683.652 643.13,690.491 C656.98,684.383 651.95,669.795 655.25,656.962" fill="#F5C088"/>
    <path d="M676.41,563.859 C681.98,572.851 638.55,595.9 639.06,564.068 C644.76,567.709 651.41,568.913 657.37,565.969" fill="#FFFFFE"/>
    <path d="M657.37,824.132 C657.37,778.915 650.8,739.832 605.59,722.038 C582.716,713.039 563.724,710.422 538.761,711.872 C529.793,712.395 488.902,715.875 484.171,725.104 C483.351,726.708 485.667,748.823 485.85,751.825 C486.537,763.035 487.923,773.367 492.144,783.884 C500.792,805.454 511.046,821.5 533.11,830.013 C580.628,848.351 631.505,841.004 676.41,819.906" fill="#FFDD2E"/>
    <path d="M648.9,817.788 C618.788,821.783 590.678,814.843 561.722,805.787 C574.088,817.418 598.799,829.143 615.998,828.403 C598.335,819.412 574.441,828.772 553.727,819.964 C531.356,810.457 516.884,798.34 502.208,779.872 C501.903,805.541 541.952,839.896 564.038,847.473 C582.833,853.919 597.682,842.993 615.089,838.896 C627.599,835.957 651.25,844.078 657.37,830.484" fill="#E4BA30"/>
    <path d="M555.792,728.912 C576.108,732.617 609.207,743.77 621.741,762.18 C619.845,759.548 618.116,756.719 616.105,754.153 C621.262,759.222 625.652,765.007 629.223,771.302 C628.5,771.055 627.948,770.6 627.561,769.932 C633.879,778.669 630.422,788.036 633.933,796.737 C638.05,806.933 652.66,812.406 655.18,823.494 C671.03,784.223 633.953,764.434 620.658,735.372 C625.603,747.25 639.97,764.689 650.63,773.281 C650.96,719.819 591.388,711.67 555.792,722.569" fill="#E4BA30"/>
    <path d="M528.282,743.719 C539.066,758.128 571.598,767.733 574.566,783.606 C572.348,783.105 569.539,782.831 567.011,782.076 C569.423,783.606 571.641,786.195 574.398,787.732 C542.85,794.635 518.044,772.78 509.25,746.133 C513.239,741.616 517.5,737.252 521.935,733.14" fill="#FFFFFE"/>
    <path d="M754.71,642.146 C715.78,675.218 815.23,743.871 844.05,721.067 C861.54,707.225 849.47,662.522 839.98,645.917 C835.22,637.57 825.05,625.818 816.27,623.011 C808.14,620.417 777.08,623.44 769.52,629.449" fill="#DD4241"/>
    <path d="M727.2,618.871 C747.51,636.187 817.37,627.471 839.33,623.215 C866.12,618.021 869.96,600.903 855.8,578.085 C841.74,555.432 791.4,547.456 767.59,553.749 C740.97,560.792 734.03,599.883 720.85,620.989" fill="#DD4241"/>
    <path d="M765.29,604.065 C769.79,610.468 797.16,646.005 780.57,648.268 C773.37,636.229 771.95,623.997 765.29,612.52" fill="#4C9D46"/>
    <path d="M765.29,610.41 C747.35,614.666 733.73,637.5 736.46,654.758 C764.43,650.936 771.5,623.679 771.63,599.824" fill="#4C9D46"/>
    <path d="M765.29,606.168 C777.93,600.49 801.85,605.363 815.79,606.545 C810.85,630.518 774.88,625.034 763.17,610.41" fill="#4C9D46"/>
    <path d="M765.29,610.41 C765.59,598.743 777.12,579.006 788.03,574.641 C795.95,584.162 789.75,599.94 777.99,601.94" fill="#4C9D46"/>
    <path d="M748.36,582.893 C748.33,573.104 747.55,560.979 744.16,551.872 C737.16,559.161 733.82,568.861 732,577.926 C726.94,572.821 719.4,573.547 713.07,576.911 C718.61,584.436 726.22,591.646 734.03,596.8 C726.49,595.126 717.24,594.399 711.18,597.554 C735.47,614.992 747.55,601.432 746.24,574.43" fill="#4C9D46"/>
    <path d="M754.71,684.471 C789.69,701.721 816.56,711.75 856,714.418 C853.53,746.141 799.8,714.244 786.49,707.812 C765.6,697.704 730.22,678.475 750.89,651.086 C765.79,679.787 792.76,720.298 830.89,720.443" fill="#B33637"/>
    <path d="M864.74,595.597 C853.17,604.203 839.81,611.665 824.9,612.876 C823.63,613.94 822.06,615.812 820.57,617.111 C821.42,620.997 823.67,624.188 827.07,626.491 C837.02,621.938 848.78,618.632 856.28,610.41" fill="#B33637"/>
    <path d="M797.03,618.871 C808.64,622.837 817.93,634.032 820.09,646.115 C798.97,641.734 802.63,660.825 807.34,673.559 C796.63,671.963 778.61,656.025 771.9,646.852 C787.4,643.853 776.14,628.777 773.75,618.871" fill="#E36B5A"/>
    <path d="M769.52,578.665 C753.84,581.348 739.58,604.892 731.59,616.224 C746.56,632.793 755.36,599.251 763.17,591.362" fill="#E36B5A"/>
    <path d="M780.1,631.567 C781.36,635.714 785.18,640.016 788.56,642.402 C790.59,641.242 792.38,639.774 794.02,637.97 C793.23,633.295 790.88,629.61 786.45,627.088 C783.31,628.45 783.32,630.64 782.22,633.684" fill="#FFFFFE"/>
    <path d="M763.17,587.134 C774.35,582.371 754.44,565.613 750.79,582.48 C753.65,585.111 755.8,589.25 758.94,591.362" fill="#FFFFFE"/>
    <path d="M771.63,392.446 C778.61,386.427 789.6,381.445 799.14,381.865" fill="#EA862C"/>
    <path d="M769.52,400.907 C780.74,418.44 759.58,433.98 745.3,436.417 C730.32,438.969 715.65,431.224 702.51,439.113 C727.38,435.355 745.33,460.148 765.44,450.003 C771.9,446.748 780.78,439.433 784.44,432.704 C794.15,414.808 782.1,409.327 777.99,392.446" fill="#C45E27"/>
    <path d="M877.44,411.493 C876.7,436.081 843.81,448.019 823.06,447.937 C836.62,453.434 865.9,445.08 877.33,436.342 C887.51,428.562 900.98,405.417 883.79,396.681" fill="#C45E27"/>
    <path d="M748.36,390.328 C749.46,397.436 751.15,404.488 752.31,411.522 C740.54,402.9 726.04,399.769 712.81,397.948 C712.64,395.62 710.28,392.757 710.38,389.471 C701.95,390.921 689.74,393.018 685.78,383.933 C708.83,374.034 701.55,348.563 733.44,358.018 C746.82,361.983 757.35,366.981 765.7,378.003 C770.17,383.896 779.03,397.418 773.75,398.797" fill="#5C9335"/>
    <path d="M847.82,386.1 C827.98,370.352 806.81,374.761 794.66,398.834 C796.9,400.363 800.08,404.177 803.23,405.084 C803.03,406.882 802.12,408.188 800.5,409.013 C812.87,415.598 831.96,401.517 839.25,412.915 C841.23,409.086 846.32,407.187 848.24,403.294 C857.96,405.801 869.27,408.266 879.39,406.925 C877.21,400.458 873.28,393.671 868.98,388.212" fill="#5C9335"/>
    <path d="M727.2,377.631 C734.96,381.329 745.79,381.532 750.73,373.402 C743.56,365.552 720.36,363.361 716.62,373.402" fill="#EA862C"/>
    <path d="M828.77,388.212 C835.09,393.259 853.45,384.905 843.84,375.833 C836.31,368.722 820.63,380.712 822.42,386.1" fill="#EA862C"/>
    <path d="M691.23,392.446 C698.9,405.127 716.06,406.041 729.1,409.84 C711.64,428.418 665.55,393.163 686.99,388.212" fill="#F3B474"/>
    <path d="M794.91,413.61 C809.79,422.109 825.81,430.766 843.31,423.829 C842.03,413.562 811.73,417.649 801.26,411.493" fill="#F3B474"/>
    <path d="M752.59,379.749 C756.81,381.859 761.53,386.704 764.3,390.437 C761.47,392.351 758.13,392.777 754.79,392.96 C754.8,393.839 755.22,394.425 756.04,394.722 C753.23,393.033 749.06,393.134 746.04,391.061 C745.98,392.902 746.14,394.511 745.91,396.361 C738.23,398.007 725.21,387.942 718.8,384.47 C728.78,383.389 740.62,392.023 744.13,377.631" fill="#607732"/>
    <path d="M826.65,396.681 C826.81,398.892 826.39,400.588 827.02,402.748 C828.57,401.458 830.55,402.076 832.85,399.001 C841.67,405.294 855.23,401.632 864.53,398.834 C862.23,394.236 857.02,389.516 851.52,388.639 C847.14,387.942 847.63,391.895 843.78,392.389 C833.53,393.692 824.19,396.63 811.84,396.681" fill="#607732"/>
    <path d="M562.138,605.116 C545.891,603.288 534.265,592.383 527.87,580.051 C525.395,595.19 538.994,603.189 552.615,605.116" fill="#FFFFFE"/>
    <path d="M246.06,506.009 C230.716,540.416 238.844,632.251 263.251,661.545 C291.249,695.151 391.209,704.317 418.242,671.941 C448.836,635.295 459.858,537.486 430.863,497.664 C409.361,468.139 382.161,468.624 348.415,468.624 C348.415,468.624 272.787,446.053 246.06,506.009 z" fill-opacity="0" stroke="#432A0E" stroke-width="6.348" stroke-linecap="round" stroke-linejoin="round"/>
    <path d="M301.855,496.135 C312.819,515.813 354.853,518.75 371.69,506.714" fill-opacity="0" stroke="#432A0E" stroke-width="3.174" stroke-linecap="round" stroke-linejoin="round"/>
    <path d="M333.598,494.019 C328.499,479.898 333.485,462.475 333.598,447.458 M615.52,724.89 C635.59,681.964 627.948,623.301 601.825,584.957 C593.985,573.459 583.339,566.983 570.608,563.859 M568.49,559.616 C531.553,547.658 504.973,574.161 479.722,597.307 C454.851,620.09 439.115,630.038 430.474,664.098 C420.896,701.86 424.81,734.713 454.007,760.912 C466.49,772.121 478.459,779.423 490.359,783.447" fill-opacity="0" stroke="#432A0E" stroke-width="6.348" stroke-linecap="round" stroke-linejoin="round"/>
    <path d="M540.98,574.43 C544.725,585.161 558.918,595.204 568.49,587.134" fill-opacity="0" stroke="#432A0E" stroke-width="3.174" stroke-linecap="round" stroke-linejoin="round"/>
    <path d="M560.026,578.665 C562.849,578.402 565.213,578.266 567.741,576.592 C560.519,564.568 544.421,562.74 540.98,578.665 M371.777,756.545 C399.302,763.116 403.064,728.63 379.173,726.89 C355.585,725.18 347.327,754.001 371.131,759.179 M340.409,782.184 C366.338,776.305 356.774,742.176 331.991,760.019 C304.06,780.113 334.004,806.571 344.978,774.963 M381.065,797.788 C408.851,784.18 385.825,745.4 359.19,761.629 C330.056,779.394 362.82,814.313 390.882,791.871 M355.368,744.148 C368.592,708.746 271.633,739.702 337.082,761.881 M334.643,828.048 C352.931,827.628 364.577,797.405 340.323,793.779 C314.755,789.957 308.921,823.009 337.907,826.075 M295.865,782.3 C319.519,790.421 331.134,749.491 309.048,748.722 C290.102,748.063 273.222,779.707 297.842,785.572 M294.663,820.95 C312.065,817.303 343.049,790.988 310.308,780.792 C289.747,774.398 260.938,815.358 292.037,820.304 M390.172,772.23 C396.373,768.088 404.784,766.741 412.866,766.219 C412.664,754.022 416.769,741.603 422.694,730.905 C416.32,755.64 408.373,786.244 437.389,795.021 M381.065,797.788 C424.731,816.148 360.486,852.411 350.988,818.187 M370.014,831.23 C389.042,855.079 330.65,858.51 337.262,828.693 M317.59,818.265 C307.147,819.049 298.332,832.07 297.746,843.412 C311.463,854.485 326.32,860.467 336.645,842.454 M280.908,820.34 C269.712,819.868 260.083,830.446 259.281,842.304 C271.68,853.347 285.417,857.291 295.381,840.606 M286.028,777.097 C264.005,734.742 244.495,827.932 280.846,798.065 M257.928,800.746 C230.752,780.547 239.25,853.455 264.556,830.208 M240.925,813.235 C204.411,807.469 215.46,878.269 257.372,836.778 M245.617,850.563 C218.266,878.675 285.984,889.666 271.807,845.9 M292.777,851.091 C320.382,867 268.998,893.684 266.624,866.884 M244.169,800.139 C256.386,760.266 182.584,802.611 221.283,813.944 M208.172,810.703 C176.436,789.95 199.081,865.947 214.126,831.651 M211.535,842.151 C186.718,825.264 204.605,896.9 229.915,857.813 M241.759,877.433 C262.526,905.31 187.797,896.77 218.163,871.604 M199.136,858.553 C173.811,836.198 176.282,914.78 207.703,880.152 M191.17,823.195 C172.15,810.799 155.843,864.903 183.404,854.666 M266.006,880.632 C304.797,889.528 241.942,933.2 243.116,894.467 M215.601,893.229 C188.292,900.1 228.899,945.65 242.499,908.21 M191.364,890.021 C148.442,883.496 195.353,948.07 203.202,909.64 M178.183,864.497 C146.867,847.828 152.66,904.54 175.624,886.121 M659.48,783.924 C634.087,707.747 594.545,714.1 558.368,714.1 C540.138,714.1 526.202,719.138 509.237,720.965 C497.693,722.204 485.74,714.57 484.159,728.376 C493.6,736.085 488.871,747.728 490.201,758.534 C491.672,770.467 496.779,784.477 503.36,795.085 C519.472,821.049 550.101,844.884 581.184,843.181 C593.482,842.506 602.439,839.106 613.75,836.778 C626.996,834.036 638.97,835.937 650.48,835.248 C656.26,834.9 655.22,843.26 659.99,833.074 C663.03,826.584 655.85,826.67 655.68,821.602 C655.23,808.818 659.36,797.491 659.48,783.924 M291.277,739.49 C298.636,724.533 306.577,697.617 285.037,690.714 C273.976,687.167 249.419,700.219 243.078,708.218 C214.789,743.864 285.548,779.836 297.624,733.14 M266.653,706.397 C255.883,679.534 219.265,644.873 188.357,647.15 M272.997,704.279 C269.601,710.544 263.269,713.605 256.072,712.749 M510.198,395.033 C456.288,396.81 406.267,423.203 404.776,479.652 M610.807,595.597 C631.182,577.338 642.55,538.459 636.204,508.831 C627.155,466.615 623.597,439.802 574.837,411.493 C562.587,404.379 548.941,399.776 534.831,397.514 M445.756,604.065 C448.909,610.816 456.868,614.773 464.799,614.637 M644.67,750.071 C681.43,749.751 703.55,727.042 722.43,695.057 C739.76,665.698 730.9,640.116 722.96,610.453 C717.34,589.433 708.13,561.888 689.32,548.573 C689.32,548.573 663.71,534.225 640.43,529.989" fill-opacity="0" stroke="#432A0E" stroke-width="6.348" stroke-linecap="round" stroke-linejoin="round"/>
    <path d="M638.32,555.391 C649.45,563.959 657.82,575.104 672.18,565.969" fill-opacity="0" stroke="#432A0E" stroke-width="3.174" stroke-linecap="round" stroke-linejoin="round"/>
    <path d="M236.257,718.326 C229.651,693.462 186.186,694.812 187.537,724.786 C188.811,753 216.657,773.55 238.374,752.188 M210.864,711.981 C213.662,719.196 219.906,724.04 227.792,722.569 M219.328,716.216 C231.674,694.087 219.159,641.263 204.516,623.106 M295.506,458.054 C291.088,432.173 284.902,403.749 272.126,380.241 C265.231,367.562 252.5,361.788 238.374,353.021 C225.154,364.304 196.932,355.536 184.905,368.857 C181.086,367.363 179.177,369.476 174.775,367.806 C174.483,378.589 159.474,389.297 151.624,380.546 C136.589,395.271 123.905,403.459 119.762,424.821 C114.977,449.488 113.831,476.317 113.521,501.682 C113.011,543.896 120.508,587.991 132.038,628.921 C135.691,641.887 136.562,655.263 145.677,664.9 C154.977,674.733 172.904,679.722 185.625,682.295 C212.208,687.677 240.215,685.188 265.884,673.892 M229.911,354.355 C229.208,337.243 233.269,319.711 250.483,311.938 C222.146,312.669 194.728,333.957 191.818,362.825 M196.049,358.591 C205.397,345.351 162.994,336.359 154.374,333.423 C163.447,343.342 172.019,353.493 172.773,367.052 M172.773,369.168 C167.778,350.113 130.126,340.774 113.281,341.826 C122.786,358.641 148.345,362.085 151.613,383.978 M179.125,335.309 C174.893,300.227 215.471,281.614 240.932,268.408 C224.084,278.3 204.097,306.188 204.516,326.846 M168.539,333.19 C163.007,309.942 117.999,298.486 99.147,312.198 C120.03,307.987 127.081,332.118 134.685,345.895 M179.125,307.796 C149.86,279.447 134.561,259.426 89.105,263.748 C108.442,269.926 128.006,283.963 132.567,303.57 M168.539,290.875 C175.333,260.76 209.84,232.501 241.641,235.749 C216.708,240.784 187.892,265.699 191.818,292.991 M172.773,261.246 C162.621,235.608 128.802,220.727 102.867,217.723 C120.139,225.743 131.62,246.469 130.451,265.48 M172.773,242.206 C170.051,223.925 186.964,203.878 198.9,191.576 C193.41,210.496 181.068,225.801 193.932,244.315 M115.639,284.521 C92.901,262.148 50.903,265.647 20.743,265.443 C47.426,266.745 86.393,284.862 107.17,301.453 M227.792,276.06 C237.598,248.048 267.802,217.611 296.715,210.259 C278.681,211.091 249.33,215.854 238.374,231.619 M206.629,240.086 C207.393,199.779 257.856,156.172 290.668,140.945 C253.717,148.668 216.712,163.213 200.284,199.876 M115.639,240.086 C104.449,213.209 33.366,214.229 10.408,221.092 C42.603,220.72 70.912,243.425 88.125,267.596 M177.001,214.692 C166.159,199.83 162.974,186.646 147.772,174.706 C132.868,162.995 110.568,152.526 90.995,155.766 C120.416,166.575 133.85,189.063 138.912,218.922 M162.195,191.412 C158.637,161.822 207.492,118.823 235.807,119.163 C212.618,139.301 188.332,157.237 189.697,191.412 M119.87,326.846 C97.337,303.23 59.308,323.177 33.959,328.528 C63.437,331.203 104.986,330.007 124.104,358.591 M126.216,189.295 C107.661,160.531 59.035,157.448 29.047,166.024 C53.363,173.248 82.144,196.582 94.471,218.922 M128.337,159.674 C128.543,128.015 142.052,82.313 164.45,58.762 C161.543,90.995 160.606,119.627 174.889,149.087 M193.932,134.279 C194.312,79.784 232.481,40.919 271.569,10.234 C232.115,29.434 168.615,78.985 172.773,130.045 M128.337,132.165 C104.44,78.79 54.46,86.67 8.194,71.182 C53.741,87.192 65.541,128.887 92.36,161.784 M138.912,371.28 C120.401,361.926 89.286,364.652 71.956,375.253 C84.427,361.847 103.737,358.75 117.753,354.355 M232.023,316.265 C240.302,298.727 257.798,275.088 280.044,278.178 C262.491,276.194 230.985,283.325 221.44,299.335" fill-opacity="0" stroke="#432A0E" stroke-width="6.348" stroke-linecap="round" stroke-linejoin="round"/>
    <path d="M246.834,396.681 C235.045,402.61 234.12,420.427 226.536,430.57 C233.937,436.277 242.058,439.897 250.647,442.92 C263.042,429.193 266.282,417.874 251.07,405.142 M223.56,434.769 C213.016,427.438 200.458,420.464 189.697,413.834 C170.12,438.358 180.039,449.518 201.821,464.215 C209.95,450.031 221.653,436.734 227.792,422.071 M202.394,468.624 C211.14,474.65 221.165,478.695 230.383,483.212 C238.664,476.897 240.222,464.933 244.721,455.928 M248.956,447.458 C258.43,452.642 268.074,458.704 277.013,464.223 C287.13,449.373 284.453,440.41 272.228,428.418 M227.025,487.542 C234.981,490.957 246.876,492.574 252.417,498.12 M240.483,400.907 C231.064,392.873 224.404,382.939 212.972,386.536 C202.656,389.778 193.352,410.719 189.697,419.955 M215.098,390.328 C218.056,373.577 226.153,362.166 242.02,367.582 C259.577,373.577 254.42,384.332 244.721,394.563 M189.697,413.61 C182.208,408.108 174.13,402.495 166.695,396.673 C179.984,368.887 189.697,377.805 212.981,392.446 M157.956,405.142 C153.146,414.561 149.869,425.808 141.725,433.131 C152.463,444.565 161.654,452.699 170.657,436.887 M138.912,432.652 C134.627,427.163 128.253,423.921 124.104,417.837 M160.078,403.024 C155.163,400.51 149.832,397.463 145.262,394.563 M160.078,449.584 C154.977,464.368 141.718,474.382 151.673,485.033 C166.004,500.369 179.526,479.769 185.47,466.506 M170.657,494.019 C179.263,501.021 188.16,508.417 194.41,517.344 C200.157,506.988 208.253,499.491 215.098,489.79 M198.169,515.183 C204.086,521.02 213.539,526.775 221.33,529.844 C224.256,527.017 228.324,523.101 229.911,519.408 M185.47,517.3 C177.683,523.934 172.985,536.566 162.782,540.251 C156.453,533.354 149.525,527.799 141.312,523.282 C145.576,514.719 152.701,506.278 157.956,498.253 M151.613,489.79 C148.569,486.918 142.965,484.829 139.384,484.127 C135.487,492.776 127.187,501.521 119.821,507.452 C126.1,511.586 133.589,515.219 141.029,517.3 M136.344,445.029 C135.467,452.266 132.553,458.886 130.327,465.775 C133.626,468.392 138.534,471.851 142.697,472.538 M129.682,462.279 C124.742,462.606 118.602,460.17 112.753,458.054 M164.304,546.922 C169.142,551.923 181.923,564.453 189.125,564.402 C200.853,564.3 200.683,548.03 208.747,540.575 M208.747,538.459 C216.786,542.969 223.519,550.958 232.023,555.391 M185.47,570.203 C191.127,578.237 201.209,582.637 208.129,589.063 C215.252,579.847 221.994,569.869 229.911,561.733 M157.956,542.687 C152.804,552.771 143.004,556.939 134.685,563.003 C128.889,555.693 123.446,549.212 116.383,542.687 C125.993,539.082 131.581,529.635 141.029,525.762 M132.567,568.086 C137.432,572.879 151.978,590.584 157.753,591.28 C165.198,592.195 186.101,575.229 189.697,568.086 M204.516,595.597 C202.323,604.158 193.679,616.363 185.732,620.882 C175.802,612.73 162.854,604.239 160.078,591.362 M204.516,591.362 C210.493,598.445 233.464,612.006 236.257,604.065 M179.125,627.341 C170.844,636.41 172.861,643.795 160.542,641.719 C155.457,640.87 142.749,626.973 137.432,622.796 C142.632,615.869 149.324,609.75 155.843,604.065 M134.685,627.341 C131.877,623.679 129.029,620.127 126.216,616.763 M133.917,575.199 C134.105,581.965 130.948,587.83 125.447,592.13 M181.241,629.449 C189.03,635.868 197.18,642.119 204.991,648.319 C213.735,639.646 227.807,630.966 234.139,620.989 M191.818,648.5 C189.329,658.071 182.112,669.823 173.293,673.669 C167.792,669.513 163.689,663.285 162.195,656.962 C160.557,661.036 157.497,664.813 153.731,667.548 M204.516,648.5 C213.681,655.687 231.999,674.646 240.483,661.197" fill-opacity="0" stroke="#432A0E" stroke-width="3.174" stroke-linecap="round" stroke-linejoin="round"/>
    <path d="M761.06,601.94 C773.55,617.865 776.67,630.285 782.41,650.015 C774.77,633.772 751.87,626.812 762.38,606.85 C749.36,612.099 733.93,640.784 739.79,654.045 C753.22,647.681 763.91,640.204 767.4,625.215 M763.17,610.41 C775.58,596.248 809.98,605.08 826.05,608.713 C815.25,614.289 785.08,628.058 775.87,616.763 M769.52,606.168 C770.36,593.908 782.99,573.025 794.59,568.202 C796.86,579.883 793.5,595.126 782.22,599.824 M748.36,652.728 C728.52,688.56 809.57,719.733 835.12,722.088 C865.19,724.866 852.15,697.807 849.81,680.288 C846.42,654.771 837.69,630.415 813.95,616.763 M746.24,595.597 C748.54,581.739 751.2,564.729 745.7,551.214 C732.16,559.348 731.7,583.965 742.27,594.537 C736.8,596.931 733.34,600.2 730,604.225 C734.66,604.949 738.26,603.956 742.01,601.94 M752.59,570.203 C774.3,525.175 878.27,572.109 866.55,610.047 C855.2,613.137 841.55,624.164 830.89,629.449 M731.43,608.294 C725.96,615.527 735.72,622.598 742.01,625.215 M737.78,582.893 C735.89,573.878 726.06,568.347 716.83,570.53 C719.59,582.211 728.27,597.597 742.01,591.362 M523.917,426.17 C519.973,410.863 529.326,395.237 532.83,380.381 C548.264,380.662 556.342,380.039 572.724,379.749 C587.116,379.502 630.747,371.461 642.55,364.934 C519.452,376.204 515.574,361.715 467.026,328.629 C473.733,345.14 501.063,369.458 519.452,376.204 C520.365,388.74 509.265,426.198 526.163,424.501 M780.1,542.687 C780.1,517.3 779.55,487.948 763.8,466.522 C752.07,450.547 715.82,430.094 697.52,442.333 C680.5,418.086 639.23,438.206 627.74,458.054 M782.22,544.81 C780.62,547.609 779.25,550.356 777.99,553.272 M771.63,472.858 C792.47,428.069 872.75,456.565 892.26,485.563 C911.81,514.632 896.19,575.975 860.52,585.016 M414.013,386.1 C434.59,373.76 427.141,343.979 403.276,356.531 C386.648,365.275 398.86,384.476 416.128,381.865 M401.313,396.681 C407.873,383.804 396.451,365.797 382.741,378.102 C366.924,392.301 396.977,408.457 399.201,392.446 M420.359,381.865 C435.781,363.057 456.358,387.87 438.821,400.479 C427.929,408.317 405.513,395.173 418.242,383.978 M394.966,398.797 C381.291,422.594 430.691,415.25 418.242,394.563 M380.155,394.563 C359.223,383.425 369.776,434.863 390.732,409.376 M384.385,415.721 C361.574,440.692 405.857,452.403 401.313,419.955 M422.476,407.259 C448.035,417.25 408.544,445.217 403.43,422.071 M386.501,443.231 C386.068,445.763 386.381,448.8 386.705,451.279 C393.583,455.812 400.462,458.197 405.544,451.7 M378.037,430.534 C348.784,425.518 379.12,474.266 386.501,443.231 M365.338,407.259 C348.146,409.928 352.699,438.72 365.338,430.534 M361.11,441.115 C325.276,440.802 366.745,489.405 373.807,453.811 M397.083,458.054 C398.331,461.352 399.375,464.136 394.7,468.355 C392.472,468.676 390.442,468.059 388.614,466.506 M352.641,424.184 C341.091,418.7 333.158,430.991 336.037,442.913 C338.138,443.456 339.902,443.195 342.063,443.231 M373.807,388.212 C369.767,356.516 327.446,411.465 363.225,403.024 M356.875,403.024 C337.655,367.705 323.071,445.66 352.641,417.837 M426.71,362.825 C429.559,350.854 447.11,347.641 453.787,358.54 C459.601,368.017 449.866,382.286 439.405,377.631 M452.095,377.631 C459.978,365.696 468.946,377.044 467.438,386.564 C465.19,400.733 450.726,404.112 441.522,396.681 M331.482,432.652 C317.705,422.645 305.539,454.439 324.594,459.843 C326.241,458.698 326.204,457.254 327.248,455.928 M335.715,403.024 C318.526,391.037 309.463,421.5 321.166,434.652 C323.776,434.393 325.806,433.015 327.248,430.534 M314.552,426.306 C287.154,403.547 297.572,474.122 318.788,439.003 M299.738,445.35 C299.608,448.373 298.136,450.779 295.506,451.7 M756.82,449.584 C808.09,431.26 791.26,367.428 746.5,353.884 C723.07,346.786 692.87,342.212 677.95,366.588 C670.25,379.163 661.61,429.853 680.64,430.534 M767.4,371.28 C776.1,378.931 783.99,394.294 786.21,404.918 C776.71,401.683 766.94,395.939 757.15,394.831 C757.41,399.176 754.63,401.683 754.18,404.83 C740.64,405.287 729.38,395.695 714.82,398.479 C715.07,396.159 713.99,392.981 714.18,390.648 C703.52,391.345 691.06,390.697 689.42,378.052 C708.13,368.966 696.81,357.103 719.2,358.112 C735.43,358.852 756.3,360.048 765.29,375.521 M718.73,375.521 C723.94,377.051 744.56,384.39 748.98,378.263 C756.09,368.394 728.97,366.268 723.33,367.37 C723.27,370.062 721.46,371.198 720.85,373.402 M788.56,383.978 C815.46,375.549 875.66,363.028 890.76,398.797 C905.08,432.725 864.54,448.574 841.47,451.7 M849.94,381.865 C853.28,381.975 855.21,381.344 857.62,384.042 C856.79,384.513 854.82,385.165 854.32,385.469 C861.57,390.393 868.99,393.699 868.7,402.813 C855.96,400.182 848.45,395.18 843.64,410.638 C830.85,398.578 821.65,417.41 807.82,408.948 C807.2,407.272 807.42,405.092 807.29,403.335 C788.3,406.041 801.38,387.021 807.61,381.865 M824.54,377.631 C821.69,379.081 818.1,383.004 815.82,386.158 C823.71,396.114 844.81,395.418 845.7,379.749 M786.45,432.652 C782.86,438.105 787.05,445.523 792.8,449.584" fill-opacity="0" stroke="#432A0E" stroke-width="6.348" stroke-linecap="round" stroke-linejoin="round"/>
  </g>
</svg>
