<svg width="17" height="18" viewBox="0 0 17 18" fill="none" xmlns="http://www.w3.org/2000/svg">
<g id="Iconly/Bold/Star">
<g id="Star">
<path id="Star_2" d="M12.6402 10.6367C12.4575 10.8137 12.3736 11.0698 12.4152 11.3209L13.0423 14.7916C13.0952 15.0858 12.9711 15.3835 12.7249 15.5535C12.4836 15.7298 12.1627 15.751 11.8995 15.6099L8.77521 13.9804C8.66657 13.9225 8.54594 13.8915 8.4225 13.888H8.23132C8.16501 13.8979 8.10012 13.919 8.04086 13.9515L4.91582 15.5888C4.76133 15.6664 4.58639 15.6939 4.41497 15.6664C3.99736 15.5873 3.71871 15.1895 3.78714 14.7698L4.41497 11.2991C4.45659 11.0458 4.37264 10.7883 4.18994 10.6084L1.64264 8.13945C1.4296 7.93276 1.35553 7.62238 1.45288 7.34232C1.54741 7.06297 1.78867 6.8591 2.08001 6.81325L5.58598 6.30464C5.85263 6.27713 6.08683 6.11488 6.20675 5.87503L7.75163 2.70767C7.78832 2.63713 7.83558 2.57223 7.89272 2.51721L7.95621 2.46783C7.98936 2.43114 8.02746 2.40081 8.06978 2.37612L8.14667 2.3479L8.2666 2.29852H8.56358C8.82882 2.32603 9.06232 2.48476 9.18436 2.72178L10.7497 5.87503C10.8626 6.10571 11.082 6.26584 11.3352 6.30464L14.8412 6.81325C15.1374 6.85558 15.3851 7.06015 15.4831 7.34232C15.5755 7.6252 15.4958 7.93559 15.2785 8.13945L12.6402 10.6367Z" fill="#F9B023"/>
</g>
</g>
</svg>
