<svg width="22" height="22" viewBox="0 0 22 22" fill="none" xmlns="http://www.w3.org/2000/svg">
<g id="Group 84">
<g id="Group 83">
<circle id="Ellipse 136" cx="11" cy="11" r="10.5" fill="#F9B023" stroke="#F9B023"/>
</g>
<g id="Group 82">
<path id="Vector" d="M9.38462 16C9.28205 15.9997 9.18064 15.9783 9.08669 15.9371C8.99274 15.896 8.90827 15.836 8.83852 15.7609L5.20278 11.8975C5.06687 11.7528 4.99407 11.5601 5.00038 11.3618C5.00669 11.1635 5.09161 10.9759 5.23644 10.8401C5.38128 10.7043 5.57418 10.6316 5.77269 10.6379C5.97121 10.6442 6.15909 10.7291 6.295 10.8737L9.37714 14.1542L15.6686 7.27937C15.7325 7.19995 15.8119 7.13441 15.902 7.08677C15.9921 7.03913 16.0911 7.0104 16.1927 7.00234C16.2944 6.99428 16.3966 7.00707 16.4931 7.03991C16.5896 7.07275 16.6784 7.12496 16.754 7.19332C16.8296 7.26168 16.8904 7.34476 16.9327 7.43745C16.975 7.53014 16.9978 7.63048 16.9999 7.73232C17.0019 7.83416 16.9831 7.93533 16.9445 8.02964C16.906 8.12394 16.8486 8.20938 16.7758 8.28071L9.93821 15.7534C9.86912 15.8299 9.78494 15.8913 9.69096 15.9337C9.59698 15.9762 9.49523 15.9987 9.39211 16H9.38462Z" fill="#1E222B"/>
</g>
</g>
</svg>
