<?xml version="1.0" encoding="utf-8"?>
<!-- Generator: Adobe Illustrator 12.0.1, SVG Export Plug-In . SVG Version: 6.00 Build 51448)  -->
<!DOCTYPE svg PUBLIC "-//W3C//DTD SVG 1.1//EN" "http://www.w3.org/Graphics/SVG/1.1/DTD/svg11.dtd" [
<!ENTITY ns_svg "http://www.w3.org/2000/svg">
<!ENTITY ns_xlink "http://www.w3.org/1999/xlink">
]>
<svg xmlns="http://www.w3.org/2000/svg" xmlns:xlink="http://www.w3.org/1999/xlink" xmlns:svg="http://www.w3.org/2000/svg" xmlns:dc="http://purl.org/dc/elements/1.1/" xmlns:cc="http://web.resource.org/cc/" xmlns:rdf="http://www.w3.org/1999/02/22-rdf-syntax-ns#" version="1.1" id="Layer_1" width="256.543" height="202.516" viewBox="0 0 256.543 202.516" overflow="visible" enable-background="new 0 0 256.543 202.516" xml:space="preserve">
<path fill="#CE7019" d="M206.512,126.795l-45.33-18.153l3.733-26.141l14.522-0.415l2.074-4.875c0,0,2.489-1.453,3.424-1.556  c0.934-0.104,9.646,2.593,9.646,2.593s1.038,1.764,2.179,1.764s11.516,10.271,11.516,10.271L206.512,126.795z"/>
<path fill="#8CC63F" d="M69.513,139.126l3.997-0.999c0,0,4.829-1.333,5.496-2.332s1.999-3.164,1.999-3.164s4.164-1.166,4.164-2.165  s-0.167-4.164-0.167-4.164l1.333-8.327l2.998-0.666l-0.666-5.329l-3.831-9.493l5.829-3.996l5.829,1l1.999-3.997l-3.664-7.495  l3.664-4.33l2.831-4.497l0.167-15.322l-2.166-5.163c0,0-3.164-0.5-6.995,1.832s-9.16,5.33-9.16,5.33l-1.832-0.833l-5.273-0.692  c0,0-3.553,2.69-4.552,2.857s-2.499,0-3.331-0.833s-1.575-2.343-1.166-2.665c0.409-0.322,3.165-2.332,3.165-2.332l-4.33-4.331  l0.999-7.828l-1.666-1.832l-6.162-4.331l-5.496,5.33l-3.831-0.333l-4.83,4.33l2.499,13.657c0,0,2.695,1.928,2.498,2.998  c-0.197,1.07-1.499,2.499-1.499,2.499s-0.236,2.118-0.618,2.891c-0.382,0.773-2.811,2.507-4.045,0.773  c-1.234-1.733-6.83-5.163-6.83-5.163s-2.331-2.999-5.163-4.83s-3.331-4.83-5.663-3.997s-3.997,3.498-3.997,3.498  s-1.457,3.089-2.144,3.959s-3.852,0.204-5.351,2.203c-1.499,1.999-1.832,3.997-1.832,3.997s2.332,2.332,3.498,2.332  s2.832,0.833,1.832,1.666s-3.165,1.5-3.331,2.665c-0.166,1.165-1.333,4.164,1.666,4.83c2.999,0.666,4.163,2.165,2.831,2.498  s-3.83,1.666-3.83,1.666s-0.833-0.999-1.499-0.167s-2.665,3.331-2.665,3.331l-1.499,0.666c0,0-1.257-1.419-2.499-0.833  c-1.242,0.586-1.332-0.833-2.831,1.999s-0.167,3.664-0.167,3.664l-0.5,2.832l11.325,0.667l7.994,0.832l2.165-3.164l2.166-2.665  l2.498,1.166l-3.165,6.494l2.998,2.831c0,0-3.165,4.33,0.5,6.329s6.495-0.5,6.495-0.5l1.333,5.829l-2.498,2.165l-1.666,2.998  l5.329,0.833l-4.83,6.995l6.162,4.829l9.327-3.164l0.999-7.827l5.496-0.167l11.159-3.497l-1.333,13.49l2.165,0.666L69.513,139.126z"/>
<path fill="#E5B53A" d="M206.111,192.534l-12.521-2.638l-18.781-6.59l-23.692-6.609l-51.104-31.941l-0.536-11.962l9.966-9.966  c0,0,6.056-1.796,8.363-2.455c2.307-0.659,0.33-10.873,0.33-10.873l3.418-6.729l12.068-9.416l19.771,5.602l15.485,10.874  l10.873,3.954l22.726,11.073l18.793,10.345l12.19,8.896l5.603,3.624l9.226,2.307h-19.44l9.885,8.237l8.567,3.625l1.318,2.965  l-13.511,0.659l4.283,7.908l8.896,5.602l-0.658,0.988l-6.591-0.988l-15.486,0.659l-35.915-10.215l-1.978,2.636l13.839,14.828  L206.111,192.534z"/>
<g>
	<path fill="#C8DF8E" d="M129.824,5.281c0.742,0.696,1.008,1.871,0.96,3.359c-0.562-0.078-0.404-0.875-0.479-1.439   c-0.82-0.021-1.242,0.355-1.439,0.96C127.039,6.914,130.074,6.536,129.824,5.281z"/>
	<path fill="#C8DF8E" d="M133.184,5.281c0.775-0.136,0.826,0.453,1.439,0.479c0.768,4.236-2.766,7.831-6.239,4.8   c0.3-1.024,2.954-0.45,3.359,0C132.37,8.946,133.521,7.858,133.184,5.281z"/>
	<path fill="#C8DF8E" d="M143.744,6.72c1.583,0.979,2.41,2.709,3.359,4.32C146.289,11.196,143.77,8.949,143.744,6.72z"/>
	<path fill="#C8DF8E" d="M136.543,10.08c1.923-0.04,1.023,4.229-0.96,3.359C135.034,11.45,136.593,11.57,136.543,10.08z"/>
	<path fill="#C8DF8E" d="M112.064,11.04c1.311,1.09,2.584,4.233,1.44,6.24C110.882,17.342,112.522,13.142,112.064,11.04z"/>
	<path fill="#C8DF8E" d="M127.424,12.48c4.92,1.33,4.443,8.002,3.36,12.96c-0.94-2.419-4.587-2.132-4.32-5.76   c1.512-0.231,1.087,1.473,2.88,0.96c0.699-0.731-0.455-3.681,0-5.76c-1.392,0.688-1.979,2.181-2.4,3.84   C125.828,17.259,128.311,15.305,127.424,12.48z"/>
	<path fill="#C8DF8E" d="M138.943,12.48c3.371,1.23,4.646,6.164,3.841,10.08c-1.675,0.458-2.655-1.772-4.32,0.48   C137.623,18.61,139.331,17.365,138.943,12.48z M140.863,20.64c0.898-1.248,0.768-4.675-0.959-4.8   C140.25,18.294,139.793,18.74,140.863,20.64z"/>
	<path fill="#C8DF8E" d="M124.544,14.88c1.567,0.142,1.192,3.625-0.48,3.36C123.679,16.575,124.779,16.395,124.544,14.88z"/>
	<path fill="#C8DF8E" d="M139.904,15.84c1.727,0.125,1.857,3.552,0.96,4.8C139.793,18.74,140.25,18.294,139.904,15.84z"/>
	<path fill="#C8DF8E" d="M109.184,16.8c1.946-0.186,0.528,2.991,0.96,4.32C108.034,21.031,107.823,17.686,109.184,16.8z"/>
	<path fill="#C8DF8E" d="M116.864,17.76c1.636-0.037,1.421,1.778,1.44,3.36C116.667,21.156,116.882,19.341,116.864,17.76z"/>
	<path fill="#C8DF8E" d="M149.503,17.76c1.356,0.723,1.673,2.487,1.92,4.32C150.654,20.771,149.322,20.022,149.503,17.76z"/>
	<path fill="#C8DF8E" d="M147.104,19.2c0.567-0.381,0.533,3.926,1.92,4.319c-1.484,1.43-0.95-1.87-3.359-0.96   C145.71,21.007,147.839,21.536,147.104,19.2z"/>
	<path fill="#C8DF8E" d="M134.145,21.6c1.604-0.003,1.271,1.928,2.398,2.4c-0.141,0.979-1.299,0.94-1.439,1.92   C134.521,24.777,133.014,22.97,134.145,21.6z"/>
	<path fill="#C8DF8E" d="M105.824,23.04c1.933-0.47,1.933,2.869,0,2.399C105.771,24.246,104.924,23.954,105.824,23.04z"/>
	<path fill="#C8DF8E" d="M116.864,23.52c1.74,0.34,0.662,3.499,0.96,5.28c-1.638-0.753-1.311-2.042-0.96-3.84   c-1.346,0.414-1.021,2.499-1.92,3.359c-1.083-0.356-0.188-2.691-0.48-3.84C115.654,24.551,116.793,24.569,116.864,23.52z"/>
	<path fill="#C8DF8E" d="M119.264,24.96c4.423,4.246-4.231,9.774,0.48,13.92c0.094-1.342-0.331-5.225,0.48-6.72   c1.858,3.98,2.763,16.5-1.44,20.64c-3.223-0.137-4.162-2.558-6.72-3.36c0.069-7.113,0.591-12.88,1.44-18.239   c2.349,0.917,3.185-0.042,5.28-0.48C119.345,28.011,118.539,26.536,119.264,24.96z M113.504,43.68   c2.069-1.304,1.507,0.864,3.36,0.96c-0.678-3.42-0.379-6.254,0-11.52c-0.614-0.026-0.665-0.615-1.44-0.48   C113.221,36.794,115.445,39.723,113.504,43.68z M117.344,48.48c0.712-0.567,0.747-1.812,1.44-2.399   c1.666-0.226,0.275,2.604,1.44,2.88c1.372-1.716,0.918-6.004-0.48-6.72C119.2,44.228,115.367,47.055,117.344,48.48z"/>
	<path fill="#C8DF8E" d="M144.225,24.96c1.002-0.203,1.271,0.329,1.92,0.479c0.35,1.311-0.955,0.967-0.961,1.92   C144.473,26.952,144.152,26.152,144.225,24.96z"/>
	<path fill="#C8DF8E" d="M129.344,25.44c1.598,2.029,0.915,3.534,1.439,6.24c0.849,0.901,1.4-0.571,2.4,0.48   c0.56,6.989-0.748,10.98,0.479,17.279c-1.422-0.337-0.762-2.759-2.398-2.88c-3.062,2.498-1.225,6.129,0.479,8.641   c-2.785-0.415-5.587-0.813-8.64-0.96c0.228-2.492,2.282-3.158,1.44-6.721c4.02,2.489-0.661-5.271,3.36-5.76   c0.32,1.759,1.37,2.79,3.36,2.88c2.297-1.009,0.074-3.686,0-5.28c-0.428,0.213-0.857,0.422-0.96,0.96   c-2.025-2.657,0.937-5.261,0-9.6c-1.114-1.274-1.284,1.274-2.4,0c-0.39-1.66,0.896-2.026,0-2.88   c-3.064,1.706-0.706,5.952-2.88,8.64C124.608,33.779,124.388,26.017,129.344,25.44z"/>
	<path fill="#C8DF8E" d="M154.784,25.44c1.124,0.156,0.466,2.095,1.44,2.4C154.955,28.915,154.031,27.032,154.784,25.44z"/>
	<path fill="#C8DF8E" d="M140.384,27.84c3.382-0.312,4.921,3.894,3.841,7.68c0.053,0.907,1.586,0.333,1.438,1.44   c0.125,1.564-0.569,2.311-1.92,2.399c0.303-3.701-1.063-4.104-0.96-6.72c-1.504-0.247-2.143,1.312-1.92-0.96   c-1.698,0.028-1.758,3.282-3.36,1.92C137.675,30.891,139.729,30.065,140.384,27.84z"/>
	<path fill="#C8DF8E" d="M105.824,29.76c0.48,0,0.96,0,1.44,0c0.791,0.746-0.164,1.87-0.48,2.88   C106.096,32.048,105.875,30.99,105.824,29.76z"/>
	<path fill="#C8DF8E" d="M150.943,29.76c1.418,0.719,0.768,2.402-0.959,2.4C149.573,30.629,150.74,30.676,150.943,29.76z"/>
	<path fill="#C8DF8E" d="M154.305,30.24c3.059,3.809,3.686,8.657,0.479,12.479c1.839,0.901,0.134,1.806-0.479,2.88   c0.975,0.625,1.146,2.054,1.92,2.88c-1.113,3.208-5.369,3.271-7.682,5.28c-1.324-0.572-1.686-1.363-3.359-0.479   c0.045-1.875,1.939-1.9,2.881-2.881c0.103-6.374-1.104-10.355,0.479-16.319c1.161,0.599,1.553,1.967,1.92,3.359   c1.127-0.152,1.803-0.758,3.36-0.479c-0.229,1.51,0.684,1.876,0.96,2.88c0.947-0.332,1.279-1.28,1.439-2.4   C154.26,35.259,153.969,32.459,154.305,30.24z"/>
	<path fill="#C8DF8E" d="M128.863,31.68c0.75,0.78,1.186,5.321-0.959,4.8c-1.481-1.538,1.128-1.691,0.959-3.359   C128.288,32.49,128.677,32.365,128.863,31.68z"/>
	<path fill="#C8DF8E" d="M115.424,32.64c0.775-0.135,0.826,0.454,1.44,0.48c-0.379,5.266-0.678,8.1,0,11.52   c-1.853-0.096-1.291-2.264-3.36-0.96C115.445,39.723,113.221,36.794,115.424,32.64z"/>
	<path fill="#C8DF8E" d="M141.344,33.6c2.768,2.345-1.342,5.108-0.96,8.16c1.867-0.348,1.773,0.2,3.841,1.44   c-0.352,1.909-0.352,1.93,0,3.84c-1.045,0.875-3.379,0.462-3.841,1.92c1.87,1.369,4.648-0.455,4.8-2.4   c2.467,1.791-2.235,3.528-3.359,4.8c0.783,1.139,2.023,1.817,2.4,3.36c-2.33-0.989-4.52,2.017-8.16,0.48   c0.789-3.222-0.355-6.013,0-10.08c1.355-0.396,1.242,0.676,2.398,0.479c0.455-1.854-2.654-5.364-1.439-8.16   c1.775-0.335,2.121,0.761,1.92,2.4C140.713,38.718,142.186,35.869,141.344,33.6z"/>
	<path fill="#8CC63F" d="M53.984,42.24c2.056-0.297,1.957,1.562,3.84,1.439c-0.264,1.655-1.714,2.125-1.44,4.32   C55.394,46.271,53.681,45.263,53.984,42.24z"/>
	<path fill="#C8DF8E" d="M119.744,42.24c1.399,0.715,1.853,5.004,0.48,6.72c-1.165-0.275,0.225-3.105-1.44-2.88   c-0.693,0.587-0.728,1.832-1.44,2.399C115.367,47.055,119.2,44.228,119.744,42.24z"/>
	<path fill="#8CC63F" d="M65.984,50.4c-1.527,1.817-1.314,4.933-0.96,7.681c-3.558-0.415-4.466,4.034-6.72,3.359   C57.631,54.813,62.005,50.788,65.984,50.4z"/>
	<path fill="#C8DF8E" d="M106.784,50.4c1.66-0.38,2.026,0.534,2.88,0.96c0.087,1.048-0.393,1.527-1.44,1.44   c6.999,0.356,16.463,4.841,26.399,5.28c-1.182,1.219-2.479,2.319-3.359,3.84c1.469,0.348,1.411-0.828,2.881-0.48   c0.082,3.122-1.687,4.396-4.801,4.32c-0.343,1.197,2.112,1.972,0.479,2.88c-1.734,0.455-0.669-1.891-0.96-2.88   c-1.231,0.048-0.771,1.789-1.44,2.4c0.033,1.406,1.097,1.782,1.92,2.399c1.736-0.989,2.583-0.688,4.319-0.96   c-1.329,2.976,0.383,3.845-0.96,5.76c0.379,1.8,1.679,0.03,2.399,0.96c-1.351,2.811-4.293,4.026-4.8,7.681   c1.513,3.288,8.849,0.752,8.64,5.76c-2.719-2.837-8.777-3.114-11.52,0c-1.665,0.385-1.845-0.715-3.36-0.479   c-1.997-8.801,1.004-20.39-0.96-29.761c-0.617-0.822-0.993-1.887-2.4-1.92c-1.923,0.617,0.132,0.993,0,2.4   c-1.086,0.514-2.11,1.089-2.88,1.92c0.407,1.407,1.545-0.287,2.4,0c-0.153,1.127-1.486,1.075-1.92,1.92   c0.994,2.025,2.478-1.913,2.88-0.48c-0.046,1.875-1.94,1.9-2.88,2.881c0.485,1.352,2.039-0.134,2.88,0   c-1.409,2.361-6.189,4.513-3.36,8.159c0.698-0.262,2.481,0.562,2.4-0.479c1.625,1.046-1.087,1.748-0.96,2.88   c0.472,1.345,1.281-0.697,1.92,0.48c-0.282,0.999-1.009,1.551-1.44,2.399c2.439,2.673-0.944,5.163,1.44,9.12   c-3.979,1.489-5.976-2.917-10.56-2.4c0.254-3.424-0.706-0.353-2.88-0.96c0.839-2.521,0.925-5.795,3.36-6.72   c0.021,1.461-1.014,1.866-1.44,2.88c7.042-4.882,0.832-19.051,2.4-26.88c-1.408,0.032-1.783,1.097-2.4,1.92   c0.537,3.071,1.252,8.187-0.48,10.561c-0.143,1.262,1.862,0.377,1.44,1.92c-2.089-0.686-2.207,1.641-3.36,0.479   C107.052,63.292,105.453,56.834,106.784,50.4z"/>
	<path fill="#FFFFFF" d="M162.463,50.88c0.184,1.623-0.832,2.048-1.439,2.88c-0.86,0.061-1.012-0.588-1.92-0.479   C159.322,51.646,161.282,50.049,162.463,50.88z"/>
	<path fill="#C8DF8E" d="M156.225,55.2c-1.336,3.035,0.478,6.798-1.92,8.159c0.071,2.008,1.715,2.444,1.92,4.32   c-1.379,1.138-3.512-0.044-4.32-0.96c-1.285,0.314-1.825,1.375-2.881,1.92c0.358,1.25,1.771,2.887,0.479,4.32   c-3.636-2.697-0.409-10.416-1.438-16.32C151.018,56.158,153.833,53.434,156.225,55.2z"/>
	<path fill="#C8DF8E" d="M146.624,57.12c0.31,1.748-2.286,0.593-2.399,1.92c0.199,1.637,2.633-0.727,2.399,0.479   c0.428,2.349-2.472,1.369-3.358,2.4c0.053,1.227,1.605,0.953,2.879,0.96c0.086,1.686-1.621,1.579-1.92,2.88   c0.406,1.407,1.545-0.287,2.399,0c0.336,1.478,0.336,0.922,0,2.4c-2.39,0.629-2.042-1.479-3.84-1.44   c-1.194-0.074-1.485,0.754-2.399,0.96c0.275,0.844-0.58,2.82,0.479,2.88c-1.644,0.758-3.306,3.514-4.8,2.88   c0.215-6.812-0.27-8.861,0-15.359C140.477,58.653,142.589,56.926,146.624,57.12z"/>
	<path fill="#006225" d="M33.344,65.76c-3.539,1.659-3.993-3.599-7.2-3.84c-2.716,0.004-2.162,3.278-4.8,3.36   c0.165-2.235,1.632-3.169,2.4-4.801C29.338,58.472,30.39,63.69,33.344,65.76z"/>
	<path fill="#C8DF8E" d="M133.184,65.281c2.157,0.757,0.082,2.918-1.439,2.88C131.327,66.303,132.917,66.453,133.184,65.281z"/>
	<path fill="#006225" d="M24.704,65.76c1.882,1.252,0.057,3.378,1.44,5.28c0.873-0.567,0.377-2.503,0.96-3.36   c1.602,0.295,1.639,1.409,3.36,0.48c0.238,3.922,3.643,4.678,3.84,8.64c-1.715-0.686-2-2.799-3.84-3.36   c-1.582,0.179-2.398,1.122-3.36,1.92c-3.58-0.799-6.207-4.914-4.8-9.119c1.437,0.481,0.947,2.893,1.44,4.319   C24.794,69.69,23.826,66.802,24.704,65.76z"/>
	<path fill="#8CC63F" d="M101.504,66.72c0.227,1.507-1.292,1.268-1.44,2.4C98.389,68.871,99.612,66.236,101.504,66.72z"/>
	<path fill="#FFFFFF" d="M80.864,68.16c1.853-0.005,0.236,3.8,0,4.8C78.215,72.488,80.283,69.503,80.864,68.16z"/>
	<path fill="#006225" d="M23.744,74.88c-0.508,1.252-2.516,1.004-2.88,2.4c-3.108-0.731-5.673-2.008-9.12-2.4   c-0.374-3.734,1.825-4.896,4.32-5.76c0.694,2.934-2.752,1.728-2.4,4.319c0.64,1.48,2.134-0.895,2.88,0.48   c1.424-1.456,1.639-4.121,3.36-5.28C22.638,69.267,21.516,73.748,23.744,74.88z"/>
	<path fill="#8CC63F" d="M103.424,68.64c-1.565,3.074-3.941,5.339-7.2,6.72C97.082,71.578,99.894,69.75,103.424,68.64z"/>
	<path fill="#C8DF8E" d="M120.224,69.12c2.005,0.32,0.223,2.979-0.96,1.439C119.434,69.93,120.109,69.805,120.224,69.12z"/>
	<path fill="#006225" d="M49.664,70.08c1.588,0.969,0.457,1.671,0,2.88c0.207,1.073,2.365,0.193,3.36,0.479   C50.985,77.939,44.847,71.556,49.664,70.08z"/>
	<path fill="#C8DF8E" d="M104.864,70.56c1.542,1.271,2.197,1.571,4.8,0.96c1.317,4.356-1.6,5.65-2.88,8.641   c-2.586-0.454-0.902-5.179-3.36-5.761c-1.971-0.05-1.921,1.918-4.32,1.44C100.298,72.669,103.562,74.005,104.864,70.56z"/>
	<path fill="#8CC63F" d="M38.624,71.04c1.531-0.412,1.484,0.755,2.4,0.96c-0.143,3.812-2.541,5.871-1.44,9.6   C36.861,79.529,37.779,74.471,38.624,71.04z"/>
	<path fill="#006225" d="M75.584,71.04c1.354-0.032,0.887,2.465-0.48,2.399C74.951,72.327,75.181,71.597,75.584,71.04z"/>
	<path fill="#006225" d="M195.104,78.24c-1.729,3.551-5.912,4.646-6.721,9.119c-1.977,0.377-2.463-0.736-4.318-0.479   c-0.764-3.077-0.144-7.538-0.961-10.561C186.979,73.871,193.385,73.948,195.104,78.24z"/>
	<path fill="#8CC63F" d="M149.984,74.88c1.002-0.203,1.271,0.329,1.92,0.479c0.27,2.19-1.811,2.031-1.44,4.32   c0.033,1.407,1.099,1.783,1.921,2.4c2.02-0.221,1.522-2.957,3.359-3.36c1.562,1.905-1.943,2.837-1.439,5.28   c0.131,1.131,2.125,0.293,1.92-0.48c1.459,0.592-0.521,1.651,0,2.88c-2.09,0.489-2.207-0.992-3.359-1.439   c-1.311-0.351-0.967,0.954-1.92,0.96c1.059,1.341,0.545,4.255,2.4,4.8c-3.24,2.63-2.968-5.354-5.281-6.72   c1.232-1.746,0.9-3.393,0-5.28C149.184,77.92,149.296,76.113,149.984,74.88z"/>
	<path fill="#006225" d="M26.144,75.84c0.63,0.17,0.755,0.845,1.44,0.96c-2.244,0.796-2.896,3.184-5.28,3.84   C21.77,77.226,25.134,77.71,26.144,75.84z"/>
	<path fill="#8CC63F" d="M136.543,76.32c3.279-0.398,3.703,2.059,6.24,2.4c-1.273,1.238-3.299,0.983-5.76,1.92   C136.662,79.395,135.54,77.465,136.543,76.32z"/>
	<path fill="#8CC63F" d="M102.464,76.8c-0.981,1.452,0.883,2.771-1.44,2.88C101.004,78.221,100.745,76.521,102.464,76.8z"/>
	<path fill="#006225" d="M20.864,87.36c-7.59,2.246-10.326-8.422-1.92-9.119c-0.925,2.435-4.354,2.364-4.32,5.76   c0.116,0.844,0.826,1.094,1.92,0.96c1.276-1.765,1.279-4.801,4.8-4.32c0.326,2.027-0.984,2.71,0.48,3.36   C21.245,85.748,20.015,85.021,20.864,87.36z M17.504,84.48c-0.021,0.661,0.226,1.055,0.48,1.44c0.32,0,0.64,0,0.96,0   c-0.021-0.661,0.226-1.054,0.48-1.44C18.47,83.681,18.813,84.523,17.504,84.48z"/>
	<path fill="#8CC63F" d="M49.184,80.64c1.975,0.266,2.69,1.789,2.4,4.32C48.926,85.5,48.221,82.198,49.184,80.64z"/>
	<path fill="#8CC63F" d="M91.904,83.04c-3.084-1.077-5.465,1.505-6.72,4.8c-2.027-0.816-0.018-4.001,0.48-5.28   C87.848,82.348,91.191,79.227,91.904,83.04z"/>
	<path fill="#C8DF8E" d="M99.584,82.08c2.368,0.338,4.875,0.348,6.24,0.479c-0.043,1.793-0.538,1.368,0,2.88   c-1.667-0.583-1.822-1.162-3.36,0c-0.241,2.001,1.403,2.117,0.96,4.32c-1.51,0.23-1.876-0.684-2.88-0.96   C100.988,85.795,99.967,84.257,99.584,82.08z"/>
	<path fill="#8CC63F" d="M54.464,83.52c-0.027,1.573-1.365,1.835-0.96,3.84C52.34,87.109,51.786,83.361,54.464,83.52z"/>
	<path fill="#CE7019" d="M171.104,83.52c1.004,1.046,1.371-0.239,2.881,0c-0.312,1.931-3.726,0.755-4.32,2.4   C168.288,85.123,170.9,84.323,171.104,83.52z"/>
	<path fill="#8CC63F" d="M19.424,84.48c-0.254,0.387-0.5,0.779-0.48,1.44c-0.32,0-0.64,0-0.96,0c-0.254-0.386-0.5-0.779-0.48-1.44   C18.813,84.523,18.47,83.681,19.424,84.48z"/>
	<path fill="#FFFFFF" d="M54.944,84c0.386,0.254,0.779,0.501,1.44,0.479c0.35,1.311-0.954,0.966-0.96,1.92   C54.383,86.481,55.207,84.698,54.944,84z"/>
	<path fill="#8CC63F" d="M60.224,84.48c0.349,2.43-1.317,2.844-1.44,4.801c-1.991-0.566,0.053-2.381,0-3.841   c-0.195-1.621-1.86,1.277-1.44-0.96C58.466,84.332,59.327,83.541,60.224,84.48z"/>
	<path fill="#8CC63F" d="M143.264,84.48c2.998,2.349,3.471,7.192,2.881,9.601c-1.949-0.866-3.078-0.69-5.28-0.48   c1.336-1.135-0.037-3.56,1.92-4.8c0.184-1.783-1.945-1.255-1.438-3.36C141.639,84.774,143.191,85.368,143.264,84.48z"/>
	<path fill="#8CC63F" d="M88.064,84.96c0.699,0.956-0.035,3.469,0,4.32C85.543,88.912,86.927,85.687,88.064,84.96z"/>
	<path fill="#8CC63F" d="M90.944,84.96c0.48,0,0.96,0,1.44,0c-0.461,1.459,0.069,3.909-1.92,3.84   C89.406,87.686,90.559,86.075,90.944,84.96z"/>
	<path fill="#8CC63F" d="M161.023,84.96c1.223,0.049,1.135,1.789,0.479,2.399C159.541,87.623,159.881,85.288,161.023,84.96z"/>
	<path fill="#FDF7D5" d="M218.145,84.96c-0.562,2.075-4.084,2.396-5.762,1.92c-2.104,1.323-0.621,4.846-0.96,5.76   c-1.349-1.211-1.054-4.065-1.92-5.76C212.172,86.028,214.025,84.363,218.145,84.96z"/>
	<path fill="#8CC63F" d="M98.624,86.4c-0.415,2.334,1.374,2.467,0.96,4.801c-1.127-0.153-1.802-0.759-3.36-0.48   c0.637-1.795-1.431-3.318,0-4.32C97.139,85.499,97.092,86.685,98.624,86.4z"/>
	<path fill="#006225" d="M45.824,89.281c-0.866,0.725-3.466,0.273-3.36-1.44C43.152,87.293,45.752,87.744,45.824,89.281z"/>
	<path fill="#8CC63F" d="M60.704,87.84c0.48,0,0.96,0,1.44,0c0.094,1.375,0.06,2.62-1.44,2.4   C59.805,89.326,60.651,89.034,60.704,87.84z"/>
	<path fill="#8CC63F" d="M111.584,88.32c1.778-0.019,2.783,0.737,3.84,1.44C115.271,91.201,111.275,90.298,111.584,88.32z"/>
	<path fill="#C8DF8E" d="M104.864,89.281c1.932-1.589,3.172,1.608,5.28,1.439c-0.416,4.605,0.684,7.215-0.48,12   c-1.099-0.502-2.896-0.305-3.84-0.96C104.71,98.102,105.023,92.575,104.864,89.281z"/>
	<path fill="#006225" d="M16.544,90.24c-0.545,1.921-2.927-0.481-3.84,1.439c0.711,1.547,1.881,4.592,1.44,5.76   c-1.684-0.85-2.591-1.736-4.8-0.96c-0.125-1.795-1.979-1.86-3.36-2.399c0.895-1.688,2.881-1.345,4.32-0.48   C11.21,91.515,13.036,88.165,16.544,90.24z"/>
	<path fill="#006225" d="M15.104,91.68c1.964,0.115,2.157,2.003,2.4,3.84C15.827,95.214,14.192,93.061,15.104,91.68z"/>
	<path fill="#C8DF8E" d="M103.904,92.16c-0.346,3.138-0.922,5.937-0.48,8.64c-2.58,0.34-3.933-0.547-5.76-0.96   c0.327-1.753,1.819-2.34,2.4-3.84c-0.29-1.79-2.206-1.954-2.4-3.84C100.188,92.702,102.136,90.861,103.904,92.16z"/>
	<path fill="#006225" d="M73.184,97.92c1.31-0.435-1.46-1.074,0-1.92c2.161,1.679,6.68,1,7.2,4.319   c-6.594-1.245-11.965-3.715-18.72-4.8C65.564,93.25,69.448,96.465,73.184,97.92z"/>
	<path fill="#FDF7D5" d="M211.423,94.56c2.834,3.314,8.529-1.849,11.521,0.96c-0.217,1.704-1.619,2.221-1.92,3.84   c-4.067,0.25-7.129,0.336-7.681,2.4C209.816,101.045,211.461,96.951,211.423,94.56z"/>
	<path fill="#8CC63F" d="M123.104,96.48c1.265-0.145,1.575,0.665,1.44,1.92c-0.48,0-0.96,0-1.44,0   C123.104,97.76,123.104,97.12,123.104,96.48z"/>
	<path fill="#006225" d="M42.464,98.4c0.63,0.169,0.755,0.846,1.44,0.96c0.232,1.513-1.473,1.088-0.96,2.881   c-2.493,0.36-4.076-0.381-5.76,1.438C37.974,100.95,40.874,100.33,42.464,98.4z"/>
	<path fill="#006225" d="M149.503,101.76c0.22,1.5-1.024,1.535-2.399,1.44C147.542,102.358,147.997,101.532,149.503,101.76z"/>
	<path fill="#8CC63F" d="M8.384,102.24c2.018-0.41,3.543,1.114,2.4,2.398c2.189,1.259,3.083,6.077,3.36,7.681   c-0.701-0.419-1.859-0.382-1.44-1.92c-3.538,0.143-1.337,6.022-5.28,5.761c-0.267-3.688,0.056-4.172,0.96-7.681   c-2.33-0.091-1.51,2.971-3.84,2.88c0.039-1.882,0.846-2.993,1.44-4.319c1.66,0.38,2.026-0.533,2.88-0.96   C8.122,105.382,8.441,103.623,8.384,102.24z"/>
	<path fill="#006225" d="M32.864,102.72c1.553-0.593,0.367,1.554,1.92,0.96c-2.614,2.002,0.879,4.651-2.4,5.28   C31.817,106.515,31.693,104.211,32.864,102.72z"/>
	<path fill="#FDF7D5" d="M211.904,103.68c6.383,1.163,10.854,2.918,17.76,5.28c0.902,2.775,3.779,3.58,5.76,5.28   c-4.421,2.028-6.379-4.616-10.561-2.881c-2.54-2.961-9.369-6.013-12.959-2.399c2.031,2.449,6.49,2.47,9.6,3.84c0,0.8,0,1.601,0,2.4   c-4.332-2.003-10.965-2.641-12,0.96C210.943,111.574,209.173,106.685,211.904,103.68z"/>
	<path fill="#8CC63F" d="M7.424,104.16c-0.679,2.04-2.554,2.886-4.32,3.84C4.153,106.329,4.362,103.818,7.424,104.16z"/>
	<path fill="#006225" d="M40.544,104.16c0.054,1.812-0.939,2.581-2.4,2.88C38.24,105.376,38.543,103.92,40.544,104.16z"/>
	<path fill="#8CC63F" d="M88.064,111.84c-0.909,2.736-4.661,0.787-5.76-0.479c-1.193,0.888-2.708,1.451-3.36,2.881   c-1.606-1.64,1.499-2.639,1.44-4.32c-0.332-1.198-1.28,0.891-2.4,0.479c0.941-2.79-0.659-4.118,0-5.761   C81.956,104.562,84.775,109.649,88.064,111.84z"/>
	<path fill="#CE7019" d="M188.383,104.16c0.858-0.137,0.985,0.453,0.48,0.479c0.117,0.604,0.953,0.484,0.96,0   c1.04-0.08,0.218,1.703,0.479,2.4C189.121,106.623,188.223,105.921,188.383,104.16z"/>
	<path fill="#8CC63F" d="M69.344,105.12c-4.554,3.253-2.227,6.927-0.48,11.04c1.341,3.156-3.006,5.544-6.24,4.319   c-0.171-1.429-0.765-2.436-1.44-3.359c-2.445,1.646,1.216,4.2,1.92,5.76c-3.167,0.287-4.273-1.486-4.32-4.32   c-3.119,0.969-0.018,4.196,0.96,6.24c-2.428,0.348-1.814-2.346-3.84-2.399c0-1.439,0-2.881,0-4.319   c-1.882-0.442-0.348,2.53-1.44,2.88c-2.623-2.188,0.987-4.191,3.36-4.32c-0.432-1.517-1.447-2.105-0.48-3.84   c0.855,0.266,1.994,0.247,2.4,0.96c2.983-0.441,1.921-3.546,1.92-4.8C65.557,109.251,65.507,103.314,69.344,105.12z M66.944,118.56   c-0.761-1.799-2.385-2.733-3.84-3.84C62.198,116.827,64.12,118.749,66.944,118.56z"/>
	<path fill="#C8DF8E" d="M87.584,106.56c10.07-0.147,8.589,15.41,16.8,18.722c0.184,1.943-1.311,2.209-1.92,3.358   C96.935,121.849,93.875,112.588,87.584,106.56z"/>
	<path fill="#8CC63F" d="M76.544,108c1.433,2.411-2.14,3.433,0,5.76c-2.323-0.77-4.886-0.489-6.72,0.48   c-0.169-0.632-0.845-0.756-0.96-1.44C69.707,108.421,75.781,112.035,76.544,108z"/>
	<path fill="#8CC63F" d="M29.504,109.92c0.8,0,1.6,0,2.4,0c-0.875,2.831,0.388,2.686,0.48,4.8c-1.432-0.327-1.609-1.911-1.44-3.84   c-1.826-0.706-0.094,2.146-1.92,1.439C28.871,111.207,29.101,110.478,29.504,109.92z"/>
	<path fill="#CE7019" d="M196.543,109.92c2.036-0.021,0.596,3.435,0.48,4.32C195.934,113.729,196.841,111.223,196.543,109.92z"/>
	<path fill="#8CC63F" d="M46.784,110.88c1.165,0.756,2.05,1.79,4.32,1.439c0.377,2.184,2.318,2.802,2.4,5.279   c-1.115,1.063-1.285,0.424-2.4,0.96c0.275,1.027,1.972,2.295,0,2.881c1.045,1.194,2.602,1.878,2.4,4.319   c-1.726-0.354-3.208-0.951-2.88-3.359c-1.869-0.262-0.826,3.833-2.4,2.399c-0.521,0.119-0.326,0.954-0.96,0.96   c0.141,1.12,1.298,1.12,1.44,0c0.311,1.826-0.034,3.087,0,4.8c-1.278-2.082-2.183-4.536-3.84-6.239   c0.305-2.575,3.593-2.168,2.88-5.761c0.955-0.645,2.285-0.914,3.36-1.438c-0.8-1.747-5.169,0.509-6.72-1.44   C45.164,114.06,47.04,113.536,46.784,110.88z"/>
	<path fill="#8CC63F" d="M32.864,111.84c1.1-1.678,1.334,1.501,2.4,1.44C34.116,115.007,33.316,112.394,32.864,111.84z"/>
	<path fill="#006225" d="M139.904,112.32c0.713,0.888,0.92,2.28,0.96,3.841C139.371,116.053,140.053,113.771,139.904,112.32z"/>
	<path fill="#FFFFFF" d="M74.624,115.2c-0.878,0.613-4.037,1.938-3.84-0.48C72.655,114.34,73.272,114.224,74.624,115.2z"/>
	<path fill="#006225" d="M63.104,114.72c1.455,1.105,3.079,2.041,3.84,3.84C64.12,118.749,62.198,116.827,63.104,114.72z"/>
	<path fill="#006225" d="M82.304,115.2c0.362,1.801-1.833,1.046-1.92,2.398C78.915,116.56,80.657,114.711,82.304,115.2z"/>
	<path fill="#FDF7D5" d="M224.383,115.2c4.551,3.608,7.973,8.348,11.521,12.96c-4.791,0.306-8.197-4.921-12.48-6.721   C223.702,119.232,223.641,117.756,224.383,115.2z"/>
	<path fill="#FDF7D5" d="M235.904,116.16c0.701-1.281,2.634,0.2,2.398,1.438C236.796,117.827,237.036,116.309,235.904,116.16z"/>
	<path fill="#8CC63F" d="M41.984,117.12c-0.645,2.403,2.781,0.738,1.92,3.359c-2.638,0.238-2.062-2.738-5.28-1.921   C38.988,117.323,40.156,116.893,41.984,117.12z"/>
	<path fill="#8CC63F" d="M38.144,121.92c1.562-1.374,4.408,0.052,4.32,1.92C40.684,123.54,39.653,122.49,38.144,121.92z"/>
	<path fill="#FFFFFF" d="M89.984,121.92c0.64,0,1.28,0,1.92,0C92.282,123.769,89.606,123.769,89.984,121.92z"/>
	<path fill="#8CC63F" d="M35.264,122.88c2.938-0.538,2.865,1.935,5.28,1.92C39.046,124.99,35.142,126.159,35.264,122.88z"/>
	<path fill="#006225" d="M157.184,126.24c1.073,0.205,0.194,2.364,0.479,3.358C155.325,129.79,156.889,127.417,157.184,126.24z"/>
	<path fill="#8CC63F" d="M42.464,128.64c-0.203,2.283-3.719,0.184-3.84,3.36c0.567,0.872,2.502,0.377,3.36,0.96   c0.864,1.666-0.521,2.663-1.44,3.84c-2.054-0.187-2.287-2.193-2.4-4.319c-1.157-0.196-1.043,0.876-2.4,0.479   C36.69,130.227,38.968,128.823,42.464,128.64z"/>
	<path fill="#FFFFFF" d="M72.704,129.12c2.862,1.138,3.612,4.387,4.8,7.199c-1.777-0.303-2.676-1.483-2.4-3.84   c-2.833,0.146-0.776,3.517-0.48,4.801C71.662,136.84,70.996,131.336,72.704,129.12z"/>
	<path fill="#006225" d="M114.464,129.12c-0.289,2.11-1.678,3.122-3.36,3.84C111.865,131.321,112.707,129.763,114.464,129.12z"/>
	<path fill="#006225" d="M115.904,131.04c-0.409,1.511-0.891,2.949-2.4,3.359C113.594,132.57,114.186,131.242,115.904,131.04z"/>
	<path fill="#006225" d="M171.104,132.48c1.068,0.201,0.377,2.547,0,2.88C169.332,134.975,170.706,133.384,171.104,132.48z"/>
	<path fill="#E5B53A" d="M152.863,133.439c1.129,0.97,2.47,4.23,1.921,5.28C153.557,137.688,152.387,134.644,152.863,133.439z"/>
	<path fill="#006225" d="M176.863,134.4c1.584,0.276,0.688,1.812,0.479,2.881C176.027,137.271,176.204,135.016,176.863,134.4z"/>
	<path fill="#006225" d="M115.904,134.88c0.213,0.428,0.421,0.858,0.96,0.96c-1.636,2.204-2.426,5.254-4.8,6.72   C113.3,139.956,112.731,135.548,115.904,134.88z"/>
	<path fill="#006225" d="M107.744,136.32c2.608,1.525-1.995,3.62-0.96,6.721C104.404,141.457,107.109,137.948,107.744,136.32z"/>
	<path fill="#006225" d="M119.264,136.32c-1.01,2.189-2.632,3.769-2.88,6.721C114.169,140.843,117.179,137.231,119.264,136.32z"/>
	<path fill="#006225" d="M109.184,138.72c1.001,1.033,0.059,4.195-1.44,4.32C107.486,140.861,108.708,140.165,109.184,138.72z"/>
	<path fill="#006225" d="M198.463,138.72c0.48,0,0.96,0,1.439,0c0.953,3.168,0.627,4.745,1.439,8.16   C197.676,146.868,198.674,142.189,198.463,138.72z"/>
	<path fill="#006225" d="M119.744,139.68c0.669,0.546-0.107,3.705-1.44,3.84C118.285,141.741,119.041,140.737,119.744,139.68z"/>
	<path fill="#006225" d="M128.863,140.16c-1.739,0.819-1.942,3.177-3.839,3.84C125.256,141.673,126.013,139.869,128.863,140.16z"/>
	<path fill="#006225" d="M193.664,140.16c1.619,0.812-0.531,2.419,2.4,1.92c-0.291,2.548,2.4,4.071,1.438,5.76   c-2.041-0.594-2.97-3.509-5.76-1.92C190.527,143.083,193.109,142.513,193.664,140.16z"/>
	<path fill="#006225" d="M188.863,141.6c2.05,0.031,1.121,3.039,1.921,4.32C188.193,146.527,187.846,143.087,188.863,141.6z"/>
	<path fill="#006225" d="M205.664,142.56c2.191,0.048,1.229,3.253,2.4,4.32C205.659,147.166,204.561,144.259,205.664,142.56z"/>
	<path fill="#006225" d="M202.305,143.52c0.479,0,0.959,0,1.438,0c0.952,0.328-0.3,2.86,1.44,2.4   C204.2,148.193,201.797,145.695,202.305,143.52z"/>
	<path fill="#006225" d="M210.943,144c-0.284,1.531,0.9,1.483,0,2.399c-1.221-0.059-1.86-0.698-1.92-1.921   C209.451,144.107,210.107,143.964,210.943,144z"/>
	<path fill="#006225" d="M212.863,144.479c1.849-0.378,1.85,2.299,0,1.921C212.863,145.76,212.863,145.12,212.863,144.479z"/>
	<path fill="#006225" d="M214.784,145.439c0.479,0,0.96,0,1.44,0c0.899,0.916-0.285,0.869,0,2.4   C214.725,148.06,214.689,146.814,214.784,145.439z"/>
	<path fill="#006225" d="M218.624,145.92c1.265-0.146,1.575,0.665,1.44,1.92c-1.256,0.136-2.064-0.175-1.92-1.439   C218.552,146.489,218.596,146.213,218.624,145.92z"/>
	<path fill="#006225" d="M221.984,145.92c0.844,0.115,1.094,0.826,0.959,1.92c-0.479,0-0.959,0-1.439,0   C221.3,146.837,221.833,146.569,221.984,145.92z"/>
	<path fill="#E5B53A" d="M177.824,148.32c-0.158,1.122-0.577,1.982-0.961,2.881c-1.742-1.856-2.612,1.82-3.84,0.479   c-0.049-1.488,0.588-2.293,0.961-3.359C175.743,148.675,176.65,147.14,177.824,148.32z"/>
	<path fill="#006225" d="M146.145,148.32c0.774,2.705-3.553,4.441-3.84,7.681C141.268,153.035,144.828,150.531,146.145,148.32z"/>
	<path fill="#E5B53A" d="M170.145,149.281c2.23-0.312,0.715,3.123,1.92,3.84C170.904,154.247,169.718,151.329,170.145,149.281z"/>
	<path fill="#006225" d="M255.583,154.08c-1.146-0.775-3.075-0.767-4.319-1.44C251.948,150.746,255.71,152.177,255.583,154.08z"/>
	<path fill="#E5B53A" d="M246.943,163.68c-3.609-0.029-6.814-2.332-8.641,0.48c-0.65-0.148-0.396-1.202-0.479-1.92   c-2.889-0.97-1.467,2.372-3.36,2.398c0.063-1.183,0.073-2.312-0.479-2.88c-0.428,0.213-0.857,0.422-0.959,0.96   c-0.76-2.479-2.506-5.639-4.801-3.84c-0.062-0.861,0.588-1.013,0.479-1.92c-2.125-0.686-1.257,1.624-2.88,1.439   c0.587-2.078,0.41-2.403-1.44-2.881c-0.212-1.812,0.947-2.253,1.44-3.358c4.699,0.198,8.072,4.734,12.479,6.72   C241.395,160.271,246.15,159.54,246.943,163.68z"/>
	<path fill="#E5B53A" d="M222.463,152.64c1.493,0.107,0.812,2.391,0.96,3.84C221.863,156.434,221.664,153.581,222.463,152.64z"/>
	<path fill="#006225" d="M146.145,155.52c-0.85,0.712,0.9,2.481-1.44,2.4C144.609,156.546,144.645,155.3,146.145,155.52z"/>
	<path fill="#006225" d="M148.064,157.439c0.479,0,0.959,0,1.438,0c-0.214,2.025-2.06,2.421-1.438,5.28   C144.827,161.664,148.689,160.059,148.064,157.439z"/>
	<path fill="#006225" d="M150.463,161.281c0.854,1.513-1.402,4.021-1.439,6.238C146.486,165.779,149.934,163.013,150.463,161.281z"/>
	<path fill="#006225" d="M202.305,164.64c1.596-0.59,1.174,3.245,0.479,3.36C201.111,168.264,200.736,164.781,202.305,164.64z"/>
	<path fill="#C8DF8E" d="M136.543,14.88c0.921,0.054-0.562,1.606,0,2.88C133.969,17.714,136.014,15.82,136.543,14.88z"/>
	<path fill="#C8DF8E" d="M111.584,19.68c0.979,1.139-0.39,5.608-1.44,7.2c0.023,3.977,1.582,6.418,0.96,11.04   c0.002,1.762-1.681,1.839-2.4,2.88c-0.343,1.303,2.264-0.344,1.92,0.96c-1.93,0.709-1.553,3.732,0.48,5.28   c-7.093,0.235-4.967-8.963-3.84-13.44c1.605,1.276-1.629,5.395,0.96,6.24c1.636-5.373,0.706-11.622,0.96-16.32   C112.186,24.442,110.33,20.506,111.584,19.68z"/>
	<path fill="#8CC63F" d="M49.664,104.16c5.558,0.598,5.554-4.366,10.56-4.32c-1.592,2.687-2.102,7.523,0,11.521   c-3.953-0.366-2.376-6.265-5.28-7.681c-2.373,1.723,1.547,7.188-0.48,10.08c-1.376-0.475-2.36-3.049-1.44-4.319   c-1.541-0.421-0.995,1.244-1.92,1.439c-1.576,0.076-2.116-2.146-3.36-0.96C47.534,110.791,48.845,105.406,49.664,104.16z"/>
	<path fill="#FFFFFF" d="M86.624,119.52c0.417-0.702,0.718-1.521,1.92-1.438c-0.525,2.125,0.813,2.387,0.96,3.84   C87.912,121.752,88.938,118.967,86.624,119.52z"/>
	<path fill="#8CC63F" d="M43.904,127.68c2.169,0.871,1.643,4.438,4.8,4.32c0.145,1.265-0.665,1.575-1.92,1.438   C46.924,130.607,42.481,130.245,43.904,127.68z"/>
	<path fill="#E5B53A" d="M208.543,172.32c-1.301-1.31-1.193,1.241-2.88,0.961c0.084-2.484-1.879-2.922-3.358-3.842   c-1.264-0.142-0.379,1.862-1.922,1.44c-0.496-1.263-0.574-2.945-0.479-4.8c-1.479-0.357-0.924,1.316-2.4,0.96   c0.071-1.19,0.09-2.329-0.96-2.4c-2.062,0.059,0.808,2.047-1.438,1.92c-0.549-1.777-0.047-2.782-0.48-3.84   c-2.282-0.362-0.633,3.207-3.359,2.4c-0.64-3.143-0.137-6.479,0-8.16c-3.535,1.313-1.67,8.695-0.479,11.04   c-3.076-0.765-2.997-4.684-4.32-7.2c-1.991-0.391-0.239,2.959-1.438,3.36c-1.563-3.668-1.601-8.122,0.479-11.04   c-3.529-0.649-1.673,4.086-4.318,4.318c-0.357-1.477,1.316-0.922,0.959-2.398c-0.213-0.429-0.422-0.858-0.959-0.96   c-2.115,0.125-1.899,2.581-2.881,3.84c-2.943-2.184-0.459-7.896,1.439-9.601c1.5-0.22,1.533,1.025,1.439,2.399   c0.852-0.589,1.392-1.489,2.399-1.92c1.513-0.231,1.087,1.474,2.88,0.96c2.585-1.328,4.812-0.033,7.682-0.96   c3.547,1.622,7.012,3.402,10.56,2.88c1.144-0.168,2.235-1.391,3.36-1.438c9.998-0.438,11.289,9.755,20.16,12   c0.555,1.203,1.912,1.606,1.92,3.358c3.187,1.454,6.44,2.838,7.199,6.721c1.774,3.024,7.008,2.592,7.68,6.721   c-2.539-0.021-2.947-2.172-6.239-1.44c-0.267-0.854-0.247-1.993-0.96-2.398c-2.117-0.679-0.008,2.872-1.439,2.88   c-1.816,0.057-0.714-2.808-2.4-2.88c-1.077,0.2-0.014,2.547-0.959,2.88c-1.209-0.394-0.67-2.531-1.44-3.36   c-1.428,0.493-1.84,2-3.84,1.92c0-0.8,0-1.6,0-2.398c-1.12,0-2.24,0-3.36,0c-0.673,2.593,1.297,2.544,1.44,4.318   c-1.7,0.26-1.181-1.699-2.88-1.438c0.058-1.383-0.264-3.144,0.479-3.84c-2.339-0.58-1.611,1.907-3.359,1.92   c-0.289-1.789,1.228-3.036,0-4.32c-0.842,0.438-1.668,0.893-1.439,2.4c-1.398,0.968,0.626-3.034-0.479-3.36   c-1.285,0.956-1.295,3.187-1.92,4.8c-2.998-1.094-1.355-5.113-0.961-7.68c-2.682,0.357-2.132,3.948-2.399,6.72   c-1.591-0.169-2.082-1.438-2.88-2.399c-0.057-3.097,1.025-5.055,2.398-6.721c-3.308,1.053-5.146,6.69-2.398,9.602   C208.032,174.867,207.572,173.247,208.543,172.32z M202.784,168c0.694-0.115,1.116-3.95-0.479-3.36   C200.736,164.781,201.111,168.264,202.784,168z"/>
	<path fill="#006225" d="M47.747,109.917c-0.001,0.001-0.002,0.002-0.003,0.003C47.713,110.049,47.718,110.028,47.747,109.917z"/>
	<path fill="#006225" d="M255.583,167.04c-0.187-3.079-3.776-2.558-5.76-3.84c-3.212-2.08-5.039-6.519-10.562-5.762   c-2.928-2.672-6.486-4.712-9.6-7.198c7.494,0.14,13.756,0.532,21.12,1.438c-2.322-3.632-9.022-3.966-14.4-5.76   c-4.385-5.215-11.377-7.823-16.319-12.48c11.828-3.529,19.047,1.617,29.279,3.36c-3.986-5.933-13.244-6.595-15.359-14.399   c4.297-3.309,10.178-0.908,13.92-1.439c-0.152,0.021,3-0.448,1.439-1.44c-3.521-0.48-9.809-2.348-12-5.76   c4.34-0.62,8.766-1.155,11.521-3.359c-5.428-0.684-13.479-0.723-16.801-1.439c6.777-4.317,15.896-1.564,24.479-4.8   c-7.676-2.604-22.065,0.398-26.399-8.641c3.976-3.335,10.271-1.423,13.439-4.319c-4.219-1.064-7.227-1.722-11.52-2.4   c-7.471-1.181-12.565-10.469-23.041-5.28c-0.082,0.719,0.172,1.771-0.479,1.92c-1.511-4.648-11.056-9.869-13.92-3.359   c17.978,2.863,12.259,29.147,10.08,43.2c-5.646-2.772-0.007-7.808,0.96-12.48c2.224-10.747-2.717-27.458-13.439-26.88   c-0.125,0.675-1.053,0.547-1.439,0.96c-0.079,3.439,3.119,3.601,4.8,5.28c1.751,3.912,2.045,11.919,1.44,15.358   c-1.367-7.271-2.567-14.712-8.16-17.76c-2.369,1.188-4.133,0.642-6.721,0.96c-1.873,1.967-2.326,5.354-2.879,8.64   c0.043-4.362-1.601-7.041-4.32-8.64c-6.717,2.062-6.426,12.12-7.2,18.72c2.493,2.946,8.556,2.324,9.12,7.199   c-2.68,0.041-3.911,1.529-4.32,3.841c4.602-6.81,8.958-0.871,15.359,0c1.414,0.191,2.716-0.63,3.841-0.479   c4.71,0.627,6.307,5.815,10.561,4.8c0.97,1.911,4.351,1.41,4.8,3.84c0.801,0,1.601,0,2.399,0c5.212,6.149,15.806,6.916,19.681,14.4   c3.514,1.127,6.195,3.084,8.641,5.279c1.835-0.074,3.494,0.024,4.32,0.96c-2.881,0.913-6.088,0.513-8.16-1.439   c-6.709,1.979-12.217,0.312-19.2,1.92c-1.466-2.142-6.618-1.757-8.16,0c-6.94,0.701-10.877-1.603-15.358-3.359   c-1.281,0-2.562,0-3.842,0c0.342-2.422-1.477-2.685-0.96-5.279c-3.577,0.539,1.024,4.646-1.438,5.279   c-2.049-2.684-1.019-7.248-2.4-9.601c-1.038,0.882-1.01,2.83-0.96,4.8c-2.261-0.258-2.91,0.822-3.358,3.36   c-0.304-2.714-2.287-4.174-1.441-6.72c-2.612,0.52-1.239,5.719,0,6.72c-3.35-1.088-1.873-7.046-3.359-11.04   c-2.281,1.729,1.229,6.884-2.398,7.68c0.211-3.092-2.514-3.247-2.881-5.76c-1.39,2.676,0.58,5.698,1.92,7.2   c-0.854,0.896-1.221-0.391-2.879,0c-1.47-2.903-1.221-5.102-0.961-9.12c-2.547,1.694-1.228,6.044-0.479,9.12   c-2.854-0.666-5.539-1.501-7.2-3.36c2.271,0.347,1.025-4.982-0.479-5.279c-0.299,1.304,0.608,3.81-0.48,4.319   c-1.068-6.094-5.607-7.503-2.88-13.92c-3.668,1.612-1.822,8.737-3.36,12.479c-1.189,0.07-2.328,0.09-2.398-0.96   c1.382-0.059,0.248-2.632,1.92-2.399c-0.752-1.809-0.051-5.069-0.961-6.72c-2.358,1.354-4.239-0.083-5.279-1.44   c-0.725,1.799,0.684,5.724,0,7.2c-3.637-1.884-1.322-8.868-0.96-12.479c-2.241,0.158-1.058,3.741-2.399,4.801   c-0.757-0.045-0.375-1.226-1.439-0.961c-0.777,0.982-0.374,3.146-1.44,3.841c-0.622-1.395-0.622-3.406,0-4.801   c-3.905-0.508,1.353-6.887-0.96-7.199c-1.402,0.517-0.518,3.322-1.92,3.84c-0.686-0.642-0.686-2.72,0-3.36   c-2.768,0.753-1.324,5.715-4.318,6.24c0-1.28,0-2.561,0-3.84c-2.059,0.731-1.563-1.842-0.961-2.4   c-2.872-0.15-0.832,4.607-2.88,5.28c-1.089-2.853-0.052-6.061,0.96-9.12c-3.356,0.6-1.585,6.828-3.36,7.681   c-0.404-2.503-0.49-3.634-0.96-6.721c-3.344,0.155-0.002,5.61-1.44,6.721c-2.074-1.844-0.471-5.806-0.96-7.199   c-1.974,1.042-0.945,5.515-2.4,5.76c-1.412-2.597-0.111-8.839,0.48-13.44c3.848-3.623,8.198-9.934,15.36-10.56   c5.601-0.489,10.738,1.909,15.84,3.84c0.357,1.478-1.317,0.922-0.961,2.4c1.01,0.867,2.459-0.733,3.841-0.961   c3.735,2.504,6.637,5.845,12,6.721c0.057-7.38-0.173-20.796,9.12-20.641c0.828-0.291-0.037-2.276,0.96-2.399   c1.03,1.37,2.286,2.513,2.88,4.319c2.434,0.354,2.97-1.189,4.32-1.92c-0.744-4.215,0.139-10.059-3.36-11.52   c-2.151,0.817-2.507,4.677-0.479,5.76c-2.692,1.226-3.267-2.388-5.761-2.88c-5.04-0.994-8.728,2.852-11.04,6.24   c-1.162-0.277-1.066-1.812-1.439-2.88c0.486-1.595,2.656-1.503,2.399-3.84c-8.331,0.402-2.813-12.955-4.319-21.12   c2.469-1.372,5.303-2.378,5.761-5.761c-0.147-1.132-1.667-0.893-1.44-2.399c1.166-0.61,3.465-3.506,1.44-4.32   c-1.146,1.734-1.792,3.968-4.32,4.32c0.263-1.979,1.503-2.978,2.399-4.32c-1.856-0.532-1.707,1.697-2.879,0.48   c-1.344-4.381,0.093-8.864,0.479-11.04c1.051-5.901-5.162-10.651-2.88-16.801c-1.799-2.2-2.924-5.075-4.8-7.199   c-2.229-0.471-2.897,0.622-4.32,0.96c-0.452-6.575-8.337-11.513-10.561-3.36c-2.123-2.517-4.256-5.023-7.199-6.72   c-3.885,1.337-2.655,5.026-5.76,6.72c-0.089-2.312-2.392-4.427-4.32-3.36c-1.645,1.495,2.771,2.739,0.96,4.32   c-0.882-0.558-0.333-2.547-2.4-1.92c-0.745,1.334-0.1,4.06-1.92,4.32c0.027-1.573,1.365-1.835,0.96-3.84   c-2.093,0.627-2.919,2.521-3.84,4.319c-1.149-1.57-2.565-2.875-4.32-3.84c-8.374,8.017-7.999,21.753-5.76,33.6   c-2.151,7.067,0.527,16.906,0,24.961c-1.816-1.864-4.277-3.083-3.84-7.2c-7.449-1.078-12.256,3.394-17.76,7.68   c0.228-1.828-0.204-2.997-1.44-3.36c-1.798,1.006-2.38,3.269-5.28,1.92c-0.542,1.858-2.315,4.504-1.92,5.761   c2.658-1.022,2.767-4.594,6.72-4.32c-1.213,1.986-2.364,4.036-2.88,6.72c0.673,1.829,3.677,4.439,1.44,6.24   c-1.698,0.258-2.473-0.407-2.88-1.439c0.222-1.538,1.828-1.693,1.92-3.36c-2.81,0.07-3.464,2.296-3.84,4.8   c3.86,1.148-2.215,5.556,0.96,7.2c1.38-4.54,5.475-6.365,8.64-9.12c2.42-0.14,5.866,0.747,5.76-1.92   c-2.746-2.97-6.679,0.478-9.12,0c-0.429-1.676,1.565-0.82,1.92-0.48c0.298-1.781-0.78-4.939,0.96-5.279   c1.559,0.042,0.338,2.861,2.4,2.399c0.624-1.191-1.408-1.992,0-2.399c0.803,0.637,1.608,1.271,3.36,0.96   c-0.645-3.491,0.223-7.567,3.36-8.641c-0.147,1.107,1.387,0.533,1.44,1.44c-1.087,1.444-3.829,5.362-1.44,7.2   c0.829-3.627,1.506-8.958,5.28-8.16c0.188-1.463-1.262-2.444,0.48-2.88c1.429,1.841-2.322,7.022-0.96,7.2   c0.484-0.372,1.784-2.302,2.4-0.96c-1.551,4.771-5.33,7.447-7.68,12.479c3.273,0.087,6.494,0.226,7.2,2.88   c-2.515-0.028-2.564,0.979-1.44,2.4c-2.965-1.035-5.093-2.907-8.16-3.84c-5.864,1.851-10.636,6.14-9.12,13.92   c-3.433-0.711-2.521-4.715-3.36-5.761c-1.042,0.719-0.767,2.754-2.4,2.881c-2.953-0.248-2.482-3.918-4.32-5.28   c-1.869,5.713,5.354,6.482,6.72,10.56c2.102-0.654,2.468-0.06,4.32,0.48c1.334-1.227,0.463-4.657,2.4-5.28   c2.665,2.537,4.388-1.951,6.72,0.48c1.19-0.57,0.579-2.941,2.88-2.4c-0.781,4.621,3.558,4.123,3.84,7.68   c-3.068-0.677-1.732,1.621-2.4,2.4c-2.253-1.586-5.956-1.724-8.16-3.36c-1.187,1.244,1.036,1.785,0.96,3.36   c-2.019-1.778-1.9,1.654-3.84,1.439c-0.396-1.708,2.975-2.102,1.44-3.359c-2.668,1.413-3.962,4.823-4.8,6.72   c-2.657-1.663-5.367-3.272-9.6-3.36c-0.942,0.658-0.306,2.896-1.92,2.881c0-1.28,0-2.561,0-3.841   c-6.821-1.287-14.297-0.117-22.08,0.96c-5.593,1.41-0.833,10.471-7.2,9.121c-0.659,1.095,1.237,1.805,0,1.92   c-2.254,0.334-1.772-2.066-3.36-2.399c-0.449,2.688,1.604,2.876,2.88,3.84c-2.658,1.231-4.77-0.979-4.8-3.84   c-1.131-0.011-1.414,0.827-2.88,0.479c-0.4-3.491-3.575-2.523-4.8-4.319c2.604-5.716,9.399-7.241,14.4-10.561   c1.864-0.104,3.011,0.509,3.36,1.92c-0.647,0.953-3.351-0.15-3.36,1.44c4.038-0.282,9.228,0.588,12.48-0.48   c0.627-2.066-1.362-1.518-1.92-2.399c3.274-0.694,3.672,1.109,7.2,0.479c2.539-0.453,5.066-4.067,6.72-3.84   c1.249,0.172,0.951,3.485,2.88,1.92c0.296-2.215-1.078-2.762-0.96-4.8c-1.881,0.679-3.601,1.519-4.32,3.36   c-0.511-3.215-0.033-5.519,0.48-7.681c-0.894-0.459-1.604,1.438-1.92,0c-0.048-1.487,0.217-2.663,0.96-3.359   c0.212,1.388,1.012,2.188,2.4,2.399c0.044-2.443-2.118-2.683-1.92-5.279c2.385-0.655,3.689-2.392,7.2-1.92   c0.459,0.98,0.981,1.899,1.44,2.88c-1.791-0.511-0.76,1.8-2.4,1.439c-2.152,0.544-2.143-2.516-3.84-0.96   c0.119,3.883,4.118,2.409,6.72,2.88c0.841-3.13,1.15-5.816-1.44-8.16c0.545-1.055,1.605-1.595,1.92-2.88   c-0.541-1.219-2.411-1.108-2.88-2.399c0.192-1.248,1.433-1.448,1.44-2.88c-3.111,0.391-4.307-1.135-5.28-2.881   c-1.883,2.61,1.196,3.746,2.4,4.801c-0.916,1.824-0.832,2.757,0,4.319c-1.12,0.161-2.068,0.492-2.4,1.44   c0.718,0.082,1.771-0.171,1.92,0.479c-1.048,2.206-5.765,2.707-6.24-0.479c-0.214-2.133,1.3-2.54,1.92-3.84   c-1.405-0.247-2.359,2.39-3.36,0.96c-0.187-2.449,3.799-4.677,1.92-5.76c-1.214,1.025-2.187,2.293-3.36,3.359   c0.734-1.526,0.168-2.111,0-3.84c3.622-0.224,6.266-3.966,9.12-3.36c-0.006,0.954-1.31,0.61-0.96,1.92   c1.515,0.235,1.695-0.864,3.36-0.479c1.125-3.522-2.553-3.162-1.44-5.28c-0.875-0.724-2.69-0.509-3.36-1.439   c1.824-1.869-0.06-6.107,3.36-8.16c-3.317,0.733-1.411-2.814-0.96-3.84c-2.432-0.672-1.318,2.202-3.36,1.92   c0.351-3.71-4.776-1.944-5.28-4.8c-1.982,1.058-3.938-0.015-5.76-0.48c-0.269,0.691-0.749,1.171-1.44,1.44   c-0.216,2.456,1.314,3.166,1.44,5.279c-2.274,0.354-3.3-0.54-5.28-0.479c-0.783,2.577-4.399,2.32-4.8,5.28   c0.238,4.793,2.683,10.294,2.88,14.88c1.7-0.261,1.18,1.699,2.88,1.439c-0.163-1.562-2.545-2.495-0.96-4.319   c1.707-0.038,2.855,3.713,3.84,1.439c-0.932-1.468-2.701-2.099-3.36-3.84c1.45,0.63,2.188,1.972,4.8,1.439   c0.075-0.563-0.083-1.361,0.48-1.439c-1.85-4.072-9.118-5.278-7.2-11.521c1.984,2.017,2.932,5.068,5.28,6.721   c1.053-2.604-4.924-4.591-2.4-8.641c1.143,2.537,0.754,6.605,4.32,6.721c0.399-2.496-3.403-3.295-1.44-5.761   c2.078-0.157,1.182,2.659,3.36,2.4c1.483-0.116,0.811-2.389,2.88-1.92c0.169-2.408-2.038-4.085,0.48-5.28   c-1.34,1.48,0.26,2.933,0.96,3.84c1.742,0.585,3.789-0.959,4.32,0c-5.151,1.946-11.254,8.788-6.72,15.841   c-2.699,5.494,1.528,12.089,3.36,17.279c-4.491,0.377-6.838-5.038-10.56-2.399c-0.309-3.225-3.127-1.25-3.36-4.801   c-2.564,0.574-3.371,0.031-5.28-0.96c1.056-4.577-4.657-5.297-6.72-3.84c0.903,3.469,0.854,5.466,0.48,9.601   c-3.833,0.765-6.464,1.976-10.08,3.84c0-0.48,0-0.96,0-1.44c-1.778,2.815-6.911,6.472-5.28,9.601   c2.314,0.394,0.938-2.902,2.88-2.88c-0.152,0.657-2.172,2.895,0,2.88c1.246-0.834,0.882-3.278,3.36-2.88   c-0.779,1.141-1.08,2.76-1.92,3.84c-2.239-1.437-5.18,1.904-4.8,4.319c-3.703-0.184-4.115,2.925-6.72,3.841   c-1.575-1.306-3.292-2.469-6.24-2.4c-0.508,1.789,1.011,1.549,1.44,2.4c-2.593-0.132-2.543-0.405-4.32,0.479   c1.375-1.337-0.839-3.999-1.92-2.88c2.229,4.124-3.84,4.952-2.4,8.16c2.306,0.839,2.155-3.248,3.36-1.92   c-0.533,2.348-3.068,2.69-2.4,6.239c1.958,1.562,4.854,2.187,4.32,6.239c4.571,3.86,7.985-3.131,11.04-5.279   c-1.557-2.556-2.617-4.329-2.88-7.199c3.118,1.001,7.104-0.024,9.6,0.479c0.685-0.641,0.685-2.719,0-3.359   c-1.808,0.917-2.032,0.917-3.84,0c-0.202,0.918-0.174,2.065-1.44,1.92c-0.567-0.233-1.088-0.513-1.44-0.96   c-0.369-1.81,0.585-2.294,0.48-3.841c1.346,0.876,3.42-0.837,4.8-1.439c0-0.96,0-1.92,0-2.88c1.719-0.229,2.773-0.781,4.32,0   c0.612-0.988,0.766-2.436,2.4-2.4c1.407,0.354,2.064,1.456,2.88,2.4c1.276-2.978-1.666-3.479-3.36-4.8   c0.604-0.197,0.981-0.619,0.96-1.44c-1.892,0.292-2.126-1.074-2.4-2.4c1.259-3.541,6.504-3.096,10.08-4.319   c2.48,3.108,7.279,5.031,10.56,4.8c-0.977-0.463-1.037-1.843-0.96-3.36c-1.478-0.356-0.923,1.317-2.4,0.96   c-0.304-1.615,0.619-4.458-0.48-5.279c-0.816,0.942-0.551,2.968-1.44,3.84c-1.752-1.128-1.399-4.619,0-6.24   c0.986,0.134,0.958,1.282,1.44,1.92c1.784,0.183,1.255-1.945,3.36-1.44c-0.248,2.009-0.043,3.563,1.44,3.841   c-0.192,1.248-1.433,1.446-1.44,2.88c2.015,0.545,2.113,3.007,1.92,5.76c0.929,1.311,4.373,0.107,3.84,2.88   c-3.571-1.383-2.992,2.272-5.76,2.88c-0.432-0.849-1.159-1.4-1.44-2.399c-4.016,0.766-7.185-2.472-8.16-6.24   c-2.367-0.692-5.149,1.289-5.28,4.32c2.154,0.02,2.637-5.475,4.8-2.4c-3.368,2.55-3.395,6.745-4.8,9.12   c-1.878,0.279-2.787-0.413-3.84-0.96c-1.996,1.205-4.198,2.203-3.84,5.76c1.948,0.029,0.865-2.975,2.88-2.88   c0.948,0.332,1.28,1.28,1.44,2.4c-1.163,1.717-2.896,2.863-2.88,5.76c1.582,0.745,2.398,0.431,3.36,0.96   c-4.104,4.4,2.741,10.975,7.2,6.72c-0.086,1.52,0.562,2.664,1.44,4.32c-2.144,2.016-4.468,3.853-4.8,7.68   c0.904,0.931,3.936-1.922,5.28-0.479c-3.294,0.944-3.566,2.33-6.24,3.358c3.948,4.9,4.729,12.118,13.44,10.08   c1.609-0.631,1.994-2.485,3.36-3.358c1.575,1.041,3.696,1.088,5.76,0.479c-0.516-2.596,1.301-2.858,0.96-5.28   c-2.553-0.167-2.568-2.871-4.32-3.84c6.363,3.872,9.562-2.926,15.36-3.84c-0.192,4.171-2.99,8.948-0.96,13.44   c1.931,0.532,3.458-0.671,2.88,2.88c5.908-1.214,11.613-2.362,13.92-8.16c-1.609,0.01-3.2,0-2.88-1.92   c-5.078,0.651-6.169-3.762-3.84-6.721c1.345-0.553,2.495-0.553,3.84,0c0.791-0.745-0.164-1.87-0.48-2.88   c-1.92,0.319-3.289,1.19-4.8,1.92c-0.562,2.639-1.467,4.934-3.36,6.239c-1.822,4.12,1.856,8.789-0.48,10.08   c-0.552-0.567-0.543-1.696-0.48-2.88c-1.272-0.563-2.826,0.92-2.88,0c0.029-3.302-1.344-9.728,3.36-10.56   c0.55-1.99-1.009-1.871-0.96-3.36c1.266-1.936,5.556-0.845,6.72-2.88c0.296-1.194-1.75-3.742,0.48-3.84   c1.145,2.215,1.085,5.635,4.32,5.76c-0.296-2.264-1.893-3.228-2.4-5.28c1.538-0.222,1.692-1.827,3.36-1.92   c1.834,0.97,4.397,1.25,6.72,0.48c-0.923,1.196,0.732,1.972-0.48,2.88c-1.701,0.102-0.948-2.252-2.88-1.92   c0.518,2.299-4.513,1.539-2.88,3.358c0.089-0.71,1.16-0.438,1.92-0.479c1.191,2.966-1.732,5.801,0.96,7.68   c-2.436-0.835-1.117,2.084-2.88,1.92c-1.695-1.185-3.37-2.39-4.8-3.84c0,0.96,0,1.92,0,2.88c2.374,1.467,5.366,2.314,7.2,4.32   c3.389-0.396-1.156-5.784,2.88-5.28c1.285,0.477,0.596,2.925,2.4,2.88c0.711-2.014,1.398-1.872,3.84-1.438   c-1.092-2.55,0.143-3.48,1.44-4.801c-1.092-0.375-2.759-2.645-1.44-3.841c7.726,5.163,3.898,18.508,5.76,26.88   c2.111-0.859,2.207-1.088,4.32-1.438c-0.584-4.584,1.538-6.462,2.4-9.601c-2.553,0.808-2.325,4.396-4.32,5.761   c0.59-6.13,4.201-9.239,6.72-13.44c-3.57,1.39-4.058,5.862-7.2,7.681c-1.094,3.006,0.493,5.741-1.92,7.199   c1.625-12.615,8.037-20.441,21.6-21.119c3.512,4.009,11.422,3.617,14.399,8.159c-1.508-0.228-1.961,0.6-2.398,1.44   c0.908,0.852,3.17,0.35,4.799,0.479c5.301,4.461,11.828,7.693,15.841,13.44c-0.87,1.21-2.796,1.364-3.36,2.88   c2.002,0.082,2.368-1.472,4.32-1.44c13.104,7.217,26.025,14.614,33.12,27.842c0.061,1.064-3.118,1.3-1.44,2.398   c0.592-0.688,1.651-0.909,2.881-0.96c3.773,5.346,8.772,9.468,12.961,14.4c-8.716,1.649-14.949-3.273-19.682-7.2   c-0.48,0.638-0.454,1.786-1.439,1.92c-2.416-0.886,0.946-4.809-1.439-5.28c-1.084,0.837-0.312,3.526-1.92,3.841   c-1.795-2.126,1.363-5.66-0.48-6.239c-1.291,0.947-0.881,3.599-1.92,4.8c-0.566-0.232-1.088-0.512-1.439-0.96   c-0.051-2.131,1.344-2.817,0.961-5.28c-2.772,0.269-1.293,4.787-3.36,5.76c-1.752-0.573-2.155-0.674-3.358-0.96   c-0.084-1.356,0.412-3.293-0.961-3.358c-1,0.761,0.291,3.811-1.92,3.358c-0.688-2.812-0.363-5.25,0-8.158   c-2.744,0.559,0.08,3.942-1.92,4.8c-3.231,0.26-1.087-2.21-1.439-4.32c-2.508-0.428-0.529,3.631-2.881,3.36   c-1.478-2.303-0.731-4.848-0.479-8.16c-2.396,0.854-1.397,5.836-1.92,7.2c-0.854-1.067-1.171-2.669-2.88-2.881   c-0.234-2.155,0.243-3.597,0.48-5.279c-2.836,0.685-1.088,5.953-3.36,7.2c-0.173-3.532-0.003-6.724,1.44-8.642   c-3.744,1.645-3.056,8.484-1.44,12c7.651,2.27,15.108,4.731,21.12,8.642c3.756-0.884,6.662,1.718,10.08,2.88   c4.379,1.487,9.328,1.671,14.398,2.398c6.87,0.987,13.197,4.253,19.2,2.88c-9.804-2.994-17.476-8.123-22.08-16.318   c-2.021-1.34-4.294-2.426-4.319-5.76c14.471,5.657,32.452,10.667,49.439,8.64c0.675,0.125,0.547,1.053,0.96,1.438   c4.245-2.796,8.321,0.271,13.44,0.48c-6.123-4.919-13.709-8.372-17.762-15.36C241.225,164.621,249.277,165.174,255.583,167.04z    M190.305,107.04c-1.185-0.417-2.082-1.119-1.922-2.88c0.858-0.137,0.985,0.453,0.48,0.479c0.117,0.604,0.953,0.484,0.96,0   C190.865,104.56,190.042,106.343,190.305,107.04z M197.023,114.24c-1.09-0.512-0.183-3.019-0.479-4.32   C198.58,109.9,197.139,113.354,197.023,114.24z M235.904,128.16c-4.79,0.306-8.197-4.921-12.48-6.721   c0.278-2.208,0.217-3.685,0.96-6.239C228.934,118.81,232.355,123.548,235.904,128.16z M238.303,117.6   c-1.507,0.229-1.268-1.291-2.398-1.438C236.605,114.879,238.538,116.361,238.303,117.6z M222.943,95.52   c-0.217,1.704-1.619,2.221-1.92,3.84c-4.067,0.25-7.129,0.336-7.681,2.4c-3.526-0.714-1.882-4.809-1.92-7.2   C214.257,97.875,219.953,92.711,222.943,95.52z M218.145,84.96c-0.562,2.075-4.084,2.396-5.762,1.92   c-2.104,1.323-0.621,4.846-0.96,5.76c-1.349-1.211-1.054-4.065-1.92-5.76C212.172,86.028,214.025,84.363,218.145,84.96z    M209.503,116.16c1.438-4.586-0.33-9.477,2.399-12.48c6.384,1.163,10.854,2.918,17.761,5.28c0.903,2.775,3.78,3.58,5.76,5.28   c-4.421,2.028-6.379-4.616-10.56-2.881c-2.541-2.961-9.37-6.013-12.961-2.399c2.031,2.449,6.49,2.47,9.601,3.84   c0,0.8,0,1.601,0,2.4C217.171,113.198,210.539,112.561,209.503,116.16z M171.104,83.52c1.004,1.046,1.371-0.239,2.881,0   c-0.312,1.931-3.726,0.755-4.32,2.4C168.288,85.123,170.9,84.323,171.104,83.52z M161.023,84.96   c1.223,0.049,1.135,1.789,0.479,2.399C159.541,87.623,159.881,85.288,161.023,84.96z M162.463,50.88   c0.184,1.623-0.832,2.048-1.439,2.88c-0.86,0.061-1.012-0.588-1.92-0.479C159.322,51.646,161.282,50.049,162.463,50.88z    M80.864,72.96c-2.648-0.473-0.581-3.457,0-4.8C82.717,68.156,81.1,71.96,80.864,72.96z M88.064,89.281   c-2.521-0.368-1.137-3.595,0-4.32C88.763,85.916,88.029,88.429,88.064,89.281z M85.184,87.84c-2.027-0.816-0.018-4.001,0.48-5.28   c2.184-0.212,5.527-3.333,6.24,0.48C88.82,81.963,86.439,84.545,85.184,87.84z M90.464,88.8c-1.058-1.114,0.095-2.725,0.48-3.84   c0.48,0,0.96,0,1.44,0C91.923,86.419,92.453,88.869,90.464,88.8z M56.384,48c-0.99-1.729-2.703-2.737-2.4-5.76   c2.056-0.297,1.957,1.562,3.84,1.439C57.56,45.335,56.109,45.806,56.384,48z M58.304,61.44c-0.673-6.627,3.701-10.651,7.68-11.04   c-1.527,1.817-1.314,4.933-0.96,7.681C61.466,57.665,60.558,62.115,58.304,61.44z M3.104,108c1.049-1.671,1.258-4.183,4.32-3.84   C6.745,106.2,4.87,107.046,3.104,108z M14.144,112.32c-0.701-0.419-1.859-0.382-1.44-1.92c-3.538,0.143-1.337,6.022-5.28,5.761   c-0.267-3.688,0.056-4.172,0.96-7.681c-2.33-0.091-1.51,2.971-3.84,2.88c0.039-1.882,0.846-2.993,1.44-4.319   c1.66,0.38,2.026-0.533,2.88-0.96c-0.742-0.698-0.422-2.457-0.48-3.84c2.018-0.41,3.543,1.114,2.4,2.398   C12.973,105.898,13.867,110.717,14.144,112.32z M39.584,81.6c-2.723-2.071-1.805-7.129-0.96-10.56   c1.531-0.412,1.484,0.755,2.4,0.96C40.881,75.812,38.483,77.871,39.584,81.6z M51.584,84.96c-2.658,0.54-3.363-2.762-2.4-4.32   C51.159,80.906,51.875,82.429,51.584,84.96z M60.704,87.84c0.48,0,0.96,0,1.44,0c0.094,1.375,0.06,2.62-1.44,2.4   C59.805,89.326,60.651,89.034,60.704,87.84z M57.344,84.48c1.122-0.147,1.983-0.938,2.88,0c0.349,2.43-1.317,2.844-1.44,4.801   c-1.991-0.566,0.053-2.381,0-3.841C58.589,83.819,56.923,86.717,57.344,84.48z M54.944,84c0.386,0.254,0.779,0.501,1.44,0.479   c0.35,1.311-0.954,0.966-0.96,1.92C54.383,86.481,55.207,84.698,54.944,84z M54.464,83.52c-0.027,1.573-1.365,1.835-0.96,3.84   C52.34,87.109,51.786,83.361,54.464,83.52z M30.944,110.88c-1.826-0.706-0.094,2.146-1.92,1.439   c-0.153-1.112,0.077-1.843,0.48-2.399c0.8,0,1.6,0,2.4,0c-0.875,2.831,0.388,2.686,0.48,4.8   C30.952,114.393,30.775,112.809,30.944,110.88z M32.864,111.84c1.1-1.678,1.334,1.501,2.4,1.44   C34.116,115.007,33.316,112.394,32.864,111.84z M72.704,129.12c2.862,1.138,3.612,4.387,4.8,7.199   c-1.777-0.303-2.676-1.483-2.4-3.84c-2.833,0.146-0.776,3.517-0.48,4.801C71.662,136.84,70.996,131.336,72.704,129.12z    M124.544,98.4c-0.48,0-0.96,0-1.44,0c0-0.64,0-1.279,0-1.92C124.369,96.335,124.679,97.145,124.544,98.4z M146.145,94.08   c-1.949-0.866-3.078-0.69-5.281-0.48c1.337-1.135-0.036-3.56,1.921-4.8c0.184-1.783-1.945-1.255-1.438-3.36   c0.293-0.666,1.848-0.071,1.92-0.96C146.262,86.828,146.734,91.672,146.145,94.08z M137.023,80.64   c-0.361-1.245-1.483-3.175-0.479-4.32c3.279-0.398,3.703,2.059,6.24,2.4C141.51,79.958,139.486,79.703,137.023,80.64z    M146.624,68.16c-2.39,0.629-2.042-1.479-3.84-1.44c-1.194-0.074-1.485,0.754-2.399,0.96c0.275,0.844-0.58,2.82,0.479,2.88   c-1.643,0.758-3.305,3.514-4.799,2.88c0.215-6.812-0.27-8.861,0-15.359c4.412,0.572,6.524-1.154,10.56-0.96   c0.31,1.748-2.286,0.593-2.399,1.92c0.199,1.637,2.633-0.727,2.399,0.479c0.428,2.349-2.472,1.369-3.358,2.4   c0.053,1.227,1.605,0.953,2.879,0.96c0.086,1.686-1.621,1.579-1.92,2.88c0.406,1.407,1.545-0.287,2.399,0   C146.959,67.238,146.959,66.683,146.624,68.16z M137.023,37.44c1.775-0.335,2.121,0.761,1.92,2.4c1.771-1.122,3.242-3.971,2.4-6.24   c2.768,2.345-1.342,5.108-0.96,8.16c1.867-0.348,1.773,0.2,3.841,1.44c-0.352,1.909-0.352,1.93,0,3.84   c-1.045,0.875-3.379,0.462-3.841,1.92c1.87,1.369,4.648-0.455,4.8-2.4c2.467,1.791-2.235,3.528-3.359,4.8   c0.783,1.139,2.023,1.817,2.4,3.36c-2.33-0.989-4.52,2.017-8.16,0.48c0.789-3.222-0.355-6.013,0-10.08   c1.355-0.396,1.242,0.676,2.398,0.479C138.918,43.746,135.809,40.236,137.023,37.44z M148.064,56.64   c2.953-0.481,5.769-3.207,8.16-1.439c-1.336,3.035,0.478,6.798-1.92,8.159c0.071,2.008,1.715,2.444,1.92,4.32   c-1.379,1.138-3.512-0.044-4.32-0.96c-1.285,0.314-1.825,1.375-2.881,1.92c0.358,1.25,1.771,2.887,0.479,4.32   C145.868,70.263,149.094,62.544,148.064,56.64z M156.225,86.4c-2.091,0.489-2.207-0.992-3.361-1.439   c-1.309-0.351-0.965,0.954-1.92,0.96c1.06,1.341,0.545,4.255,2.4,4.8c-3.238,2.63-2.967-5.354-5.279-6.72   c1.231-1.746,0.899-3.393,0-5.28c1.119-0.8,1.231-2.607,1.92-3.84c1.002-0.203,1.271,0.329,1.92,0.479   c0.27,2.19-1.811,2.031-1.44,4.32c0.033,1.407,1.099,1.783,1.921,2.4c2.02-0.221,1.522-2.957,3.359-3.36   c1.562,1.905-1.943,2.837-1.439,5.28c0.131,1.131,2.125,0.293,1.92-0.48C157.682,84.112,155.704,85.171,156.225,86.4z    M154.784,25.44c1.124,0.156,0.466,2.095,1.44,2.4C154.955,28.915,154.031,27.032,154.784,25.44z M149.503,17.76   c1.356,0.723,1.673,2.487,1.92,4.32C150.654,20.771,149.322,20.022,149.503,17.76z M149.984,32.16   c-0.411-1.531,0.756-1.484,0.959-2.4C152.361,30.479,151.71,32.162,149.984,32.16z M150.463,37.44   c1.127-0.152,1.803-0.758,3.36-0.479c-0.229,1.51,0.684,1.876,0.96,2.88c0.947-0.332,1.279-1.28,1.439-2.4   c-1.964-2.181-2.255-4.98-1.92-7.199c3.061,3.809,3.687,8.657,0.479,12.479c1.839,0.901,0.134,1.806-0.479,2.88   c0.975,0.625,1.146,2.054,1.92,2.88c-1.111,3.208-5.369,3.271-7.681,5.28c-1.324-0.572-1.685-1.363-3.358-0.479   c0.045-1.875,1.938-1.9,2.879-2.881c0.104-6.374-1.103-10.355,0.479-16.319C149.705,34.679,150.096,36.047,150.463,37.44z    M145.184,27.36c-0.711-0.407-1.031-1.208-0.959-2.399c1.002-0.203,1.271,0.329,1.92,0.479   C146.494,26.75,145.189,26.406,145.184,27.36z M149.023,23.52c-1.484,1.43-0.95-1.87-3.359-0.96   c0.047-1.553,2.176-1.023,1.439-3.359C147.671,18.82,147.637,23.126,149.023,23.52z M147.104,11.04   c-0.814,0.155-3.334-2.091-3.359-4.32C145.327,7.698,146.154,9.43,147.104,11.04z M138.943,12.48   c3.371,1.23,4.646,6.164,3.841,10.08c-1.675,0.458-2.655-1.772-4.32,0.48C137.623,18.61,139.331,17.365,138.943,12.48z    M140.384,27.84c3.382-0.312,4.921,3.894,3.841,7.68c0.053,0.907,1.586,0.333,1.438,1.44c0.125,1.564-0.569,2.311-1.92,2.399   c0.303-3.701-1.063-4.104-0.96-6.72c-1.504-0.247-2.143,1.312-1.92-0.96c-1.698,0.028-1.758,3.282-3.36,1.92   C137.675,30.891,139.729,30.065,140.384,27.84z M136.543,10.08c1.923-0.04,1.023,4.229-0.96,3.359   C135.034,11.45,136.593,11.57,136.543,10.08z M136.543,14.88c0.921,0.054-0.562,1.606,0,2.88   C133.969,17.714,136.014,15.82,136.543,14.88z M136.543,24c-0.141,0.979-1.299,0.94-1.439,1.92c-0.582-1.144-2.09-2.95-0.959-4.32   C135.748,21.597,135.416,23.528,136.543,24z M131.744,10.56c0.626-1.614,1.777-2.702,1.439-5.279   c0.775-0.136,0.826,0.453,1.439,0.479c0.768,4.236-2.766,7.831-6.239,4.8C128.684,9.535,131.338,10.11,131.744,10.56z    M129.824,5.281c0.742,0.696,1.008,1.871,0.96,3.359c-0.562-0.078-0.404-0.875-0.479-1.439c-0.82-0.021-1.242,0.355-1.439,0.96   C127.039,6.914,130.074,6.536,129.824,5.281z M126.464,19.68c1.512-0.231,1.087,1.473,2.88,0.96c0.699-0.731-0.455-3.681,0-5.76   c-1.392,0.688-1.979,2.181-2.4,3.84c-1.116-1.461,1.367-3.415,0.48-6.24c4.92,1.33,4.443,8.002,3.36,12.96   C129.843,23.021,126.196,23.308,126.464,19.68z M124.544,14.88c1.567,0.142,1.192,3.625-0.48,3.36   C123.679,16.575,124.779,16.395,124.544,14.88z M124.544,47.52c4.02,2.489-0.661-5.271,3.36-5.76c0.32,1.759,1.37,2.79,3.36,2.88   c2.297-1.009,0.074-3.686,0-5.28c-0.428,0.213-0.857,0.422-0.959,0.96c-2.026-2.657,0.936-5.261,0-9.6   c-1.115-1.274-1.285,1.274-2.401,0c-0.39-1.66,0.896-2.026,0-2.88c-3.064,1.706-0.706,5.952-2.88,8.64   c-0.416-2.701-0.636-10.463,4.32-11.04c1.598,2.029,0.915,3.534,1.439,6.24c0.849,0.901,1.4-0.571,2.4,0.48   c0.56,6.989-0.748,10.98,0.479,17.279c-1.422-0.337-0.762-2.759-2.398-2.88c-3.062,2.498-1.225,6.129,0.479,8.641   c-2.785-0.415-5.587-0.813-8.64-0.96C123.332,51.749,125.386,51.083,124.544,47.52z M128.863,33.12c-0.575-0.63-0.187-0.755,0-1.44   c0.75,0.78,1.186,5.321-0.959,4.8C126.423,34.942,129.032,34.788,128.863,33.12z M134.624,58.08   c-1.181,1.219-2.479,2.319-3.358,3.84c1.467,0.348,1.41-0.828,2.879-0.48c0.082,3.122-1.686,4.396-4.799,4.32   c-0.344,1.197,2.111,1.972,0.479,2.88c-1.734,0.455-0.67-1.891-0.961-2.88c-1.23,0.048-0.771,1.789-1.439,2.4   c0.033,1.406,1.097,1.782,1.92,2.399c1.736-0.989,2.583-0.688,4.319-0.96c-1.329,2.976,0.383,3.845-0.96,5.76   c0.379,1.8,1.679,0.03,2.4,0.96c-1.352,2.811-4.295,4.026-4.801,7.681c1.512,3.288,8.848,0.752,8.641,5.76   c-2.719-2.837-8.778-3.114-11.521,0c-1.665,0.385-1.845-0.715-3.36-0.479c-1.997-8.801,1.004-20.39-0.96-29.761   c-0.617-0.822-0.993-1.887-2.4-1.92c-1.923,0.617,0.132,0.993,0,2.4c-1.086,0.514-2.11,1.089-2.88,1.92   c0.407,1.407,1.545-0.287,2.4,0c-0.153,1.127-1.486,1.075-1.92,1.92c0.994,2.025,2.478-1.913,2.88-0.48   c-0.046,1.875-1.94,1.9-2.88,2.881c0.485,1.352,2.039-0.134,2.88,0c-1.409,2.361-6.189,4.513-3.36,8.159   c0.698-0.262,2.481,0.562,2.4-0.479c1.625,1.046-1.087,1.748-0.96,2.88c0.472,1.345,1.281-0.697,1.92,0.48   c-0.282,0.999-1.009,1.551-1.44,2.399c2.439,2.673-0.944,5.163,1.44,9.12c-3.979,1.489-5.976-2.917-10.56-2.4   c0.254-3.424-0.706-0.353-2.88-0.96c0.839-2.521,0.925-5.795,3.36-6.72c0.021,1.461-1.014,1.866-1.44,2.88   c7.042-4.882,0.832-19.051,2.4-26.88c-1.408,0.032-1.783,1.097-2.4,1.92c0.537,3.071,1.252,8.187-0.48,10.561   c-0.143,1.262,1.862,0.377,1.44,1.92c-2.089-0.686-2.207,1.641-3.36,0.479c-0.211-6.308-1.811-12.766-0.48-19.2   c1.66-0.38,2.026,0.534,2.88,0.96c0.087,1.048-0.393,1.527-1.44,1.44C115.223,53.156,124.688,57.641,134.624,58.08z M131.744,68.16   c-0.417-1.857,1.173-1.708,1.439-2.88C135.341,66.037,133.266,68.198,131.744,68.16z M119.264,70.56   c0.17-0.63,0.845-0.755,0.96-1.439C122.229,69.441,120.447,72.1,119.264,70.56z M115.424,89.76c-0.152,1.441-4.148,0.538-3.84-1.44   C113.362,88.301,114.367,89.057,115.424,89.76z M109.664,102.72c-1.099-0.502-2.896-0.305-3.84-0.96   c-1.113-3.658-0.801-9.185-0.96-12.479c1.932-1.589,3.172,1.608,5.28,1.439C109.728,95.326,110.828,97.935,109.664,102.72z    M119.264,24.96c4.423,4.246-4.231,9.774,0.48,13.92c0.094-1.342-0.331-5.225,0.48-6.72c1.858,3.98,2.763,16.5-1.44,20.64   c-3.223-0.137-4.162-2.558-6.72-3.36c0.069-7.113,0.591-12.88,1.44-18.239c2.349,0.917,3.185-0.042,5.28-0.48   C119.345,28.011,118.539,26.536,119.264,24.96z M118.304,21.12c-1.636,0.036-1.421-1.779-1.44-3.36   C118.5,17.724,118.285,19.539,118.304,21.12z M114.464,24.48c1.19,0.071,2.33,0.089,2.4-0.96c1.74,0.34,0.662,3.499,0.96,5.28   c-1.638-0.753-1.311-2.042-0.96-3.84c-1.346,0.414-1.021,2.499-1.92,3.359C113.861,27.963,114.756,25.628,114.464,24.48z    M112.064,11.04c1.311,1.09,2.584,4.233,1.44,6.24C110.882,17.342,112.522,13.142,112.064,11.04z M109.184,16.8   c1.946-0.186,0.528,2.991,0.96,4.32C108.034,21.031,107.823,17.686,109.184,16.8z M108.224,39.84   c1.636-5.373,0.706-11.622,0.96-16.32c3.002,0.922,1.146-3.014,2.4-3.84c0.979,1.139-0.39,5.608-1.44,7.2   c0.023,3.977,1.582,6.418,0.96,11.04c0.002,1.762-1.681,1.839-2.4,2.88c-0.343,1.303,2.264-0.344,1.92,0.96   c-1.93,0.709-1.553,3.732,0.48,5.28c-7.093,0.235-4.967-8.963-3.84-13.44C108.869,34.876,105.634,38.994,108.224,39.84z    M106.784,32.64c-0.688-0.592-0.909-1.65-0.96-2.88c0.48,0,0.96,0,1.44,0C108.054,30.506,107.1,31.63,106.784,32.64z    M105.824,23.04c1.933-0.47,1.933,2.869,0,2.399C105.771,24.246,104.924,23.954,105.824,23.04z M101.504,66.72   c0.227,1.507-1.292,1.268-1.44,2.4C98.389,68.871,99.612,66.236,101.504,66.72z M96.224,75.36c0.858-3.781,3.669-5.609,7.2-6.72   C101.858,71.714,99.483,73.979,96.224,75.36z M99.104,75.84c1.194-3.171,4.458-1.835,5.76-5.28c1.542,1.271,2.197,1.571,4.8,0.96   c1.317,4.356-1.6,5.65-2.88,8.641c-2.586-0.454-0.902-5.179-3.36-5.761C101.453,74.35,101.502,76.318,99.104,75.84z M101.024,79.68   c-0.02-1.459-0.279-3.159,1.44-2.88C101.482,78.251,103.347,79.57,101.024,79.68z M105.824,82.56c-0.043,1.793-0.538,1.368,0,2.88   c-1.667-0.583-1.822-1.162-3.36,0c-0.241,2.001,1.403,2.117,0.96,4.32c-1.51,0.23-1.876-0.684-2.88-0.96   c0.444-3.004-0.577-4.542-0.96-6.72C101.952,82.418,104.459,82.428,105.824,82.56z M96.224,90.72c0.637-1.795-1.431-3.318,0-4.32   c0.915-0.9,0.868,0.285,2.4,0c-0.415,2.334,1.374,2.467,0.96,4.801C98.457,91.047,97.782,90.442,96.224,90.72z M100.064,96   c-0.29-1.79-2.206-1.954-2.4-3.84c2.524,0.542,4.472-1.3,6.24,0c-0.346,3.138-0.922,5.937-0.48,8.64   c-2.58,0.34-3.933-0.547-5.76-0.96C97.991,98.087,99.483,97.5,100.064,96z M35.264,122.88c2.938-0.538,2.865,1.935,5.28,1.92   C39.046,124.99,35.142,126.159,35.264,122.88z M38.624,132c0.567,0.872,2.502,0.377,3.36,0.96c0.864,1.666-0.521,2.663-1.44,3.84   c-2.054-0.187-2.287-2.193-2.4-4.319c-1.157-0.196-1.043,0.876-2.4,0.479c0.946-2.733,3.224-4.137,6.72-4.32   C42.261,130.923,38.745,128.823,38.624,132z M38.144,121.92c1.562-1.374,4.408,0.052,4.32,1.92   C40.684,123.54,39.653,122.49,38.144,121.92z M38.624,118.56c0.364-1.235,1.532-1.667,3.36-1.438   c-0.645,2.403,2.781,0.738,1.92,3.359C41.266,120.719,41.842,117.741,38.624,118.56z M46.784,133.439   c0.14-2.832-4.303-3.193-2.88-5.76c2.169,0.871,1.643,4.438,4.8,4.32C48.849,133.265,48.039,133.575,46.784,133.439z    M51.104,121.44c1.045,1.194,2.602,1.878,2.4,4.319c-1.726-0.354-3.208-0.951-2.88-3.359c-1.869-0.262-0.826,3.833-2.4,2.399   c-0.521,0.119-0.326,0.954-0.96,0.96c0.141,1.12,1.298,1.12,1.44,0c0.311,1.826-0.034,3.087,0,4.8   c-1.278-2.082-2.183-4.536-3.84-6.239c0.305-2.575,3.593-2.168,2.88-5.761c0.955-0.645,2.285-0.914,3.36-1.438   c-0.8-1.747-5.169,0.509-6.72-1.44c0.78-1.62,2.656-2.144,2.4-4.8c1.165,0.756,2.05,1.79,4.32,1.439   c0.377,2.184,2.318,2.802,2.4,5.279c-1.115,1.063-1.285,0.424-2.4,0.96C51.379,119.587,53.076,120.854,51.104,121.44z    M53.024,109.44c-1.541-0.421-0.995,1.244-1.92,1.439c-1.574,0.076-2.115-2.143-3.357-0.963c-0.029,0.11-0.034,0.132-0.003,0.003   c0.001-0.001,0.002-0.002,0.003-0.003c0.167-0.64,1.219-4.695,1.917-5.757c5.558,0.598,5.554-4.366,10.56-4.32   c-1.592,2.687-2.102,7.522,0,11.521c-3.953-0.366-2.376-6.265-5.28-7.681c-2.373,1.723,1.547,7.188-0.48,10.08   C53.087,113.285,52.104,110.711,53.024,109.44z M62.624,120.48c-0.171-1.429-0.765-2.436-1.44-3.359   c-2.445,1.646,1.216,4.2,1.92,5.76c-3.167,0.287-4.273-1.486-4.32-4.32c-3.119,0.969-0.018,4.196,0.96,6.24   c-2.428,0.348-1.814-2.346-3.84-2.399c0-1.439,0-2.881,0-4.319c-1.882-0.442-0.348,2.53-1.44,2.88   c-2.623-2.188,0.987-4.191,3.36-4.32c-0.432-1.517-1.447-2.105-0.48-3.84c0.855,0.266,1.994,0.247,2.4,0.96   c2.983-0.441,1.921-3.546,1.92-4.8c3.893,0.291,3.843-5.646,7.68-3.84c-4.554,3.253-2.227,6.927-0.48,11.04   C70.205,119.317,65.858,121.704,62.624,120.48z M70.784,114.72c1.871-0.38,2.489-0.496,3.84,0.48   C73.746,115.814,70.587,117.138,70.784,114.72z M76.544,113.76c-2.323-0.77-4.886-0.489-6.72,0.48   c-0.169-0.632-0.845-0.756-0.96-1.44c0.843-4.379,6.917-0.765,7.68-4.8C77.977,110.411,74.404,111.433,76.544,113.76z    M82.304,111.36c-1.193,0.888-2.708,1.451-3.36,2.881c-1.606-1.64,1.499-2.639,1.44-4.32c-0.332-1.198-1.28,0.891-2.4,0.479   c0.941-2.79-0.659-4.118,0-5.761c3.972-0.078,6.791,5.01,10.08,7.2C87.155,114.576,83.403,112.627,82.304,111.36z M86.624,119.52   c0.417-0.702,0.718-1.521,1.92-1.438c-0.525,2.125,0.813,2.387,0.96,3.84C87.912,121.752,88.938,118.967,86.624,119.52z    M89.984,121.92c0.64,0,1.28,0,1.92,0C92.282,123.769,89.606,123.769,89.984,121.92z M102.464,128.64   c-5.529-6.791-8.588-16.052-14.88-22.08c10.07-0.147,8.589,15.41,16.8,18.722C104.568,127.225,103.073,127.49,102.464,128.64z    M109.184,121.44c0.141-0.979,1.298-0.94,1.44-1.921c-6.555-6.244-15.769-9.831-22.56-15.84c0.085-2.154,0.906-3.573,2.4-4.32   c8.221,2.18,16.091,4.709,25.44,5.761c-0.187-2.055-2.193-2.286-4.32-2.4c0.272-3.567-0.575-8.255,0.48-11.04   c2.652,0.229,4.763,0.997,6.72,1.92c1.582-0.019,0.828-2.372,2.88-1.92c1.143,3.473,0.484,7.763-2.4,8.64   c0.027,1.573,1.365,1.835,0.96,3.841c-1.132,1.175-0.894-0.718-2.4-0.48c-0.709,2.149,1.406,1.475,0.96,3.36   c-4.383,0.179-8.237-3.103-13.44-1.44c2.474,2.007,7.289,1.672,10.08,3.36c-8.928,1.073-16.765-5.616-24.48-5.76   c7.941,4.537,16.219,8.74,23.52,13.92c1.047,0.087,1.527-0.394,1.44-1.44c1.338,0.422,1.592,1.929,1.92,3.36   C114.299,119.195,112.121,120.696,109.184,121.44z M154.784,138.72c-1.228-1.031-2.397-4.076-1.921-5.28   C153.992,134.408,155.333,137.67,154.784,138.72z M170.145,149.281c2.23-0.312,0.715,3.123,1.92,3.84   C170.904,154.247,169.718,151.329,170.145,149.281z M222.463,152.64c1.493,0.107,0.812,2.391,0.96,3.84   C221.863,156.434,221.664,153.581,222.463,152.64z M173.023,151.68c-0.049-1.488,0.588-2.293,0.961-3.359   c1.759,0.354,2.666-1.181,3.84,0c-0.158,1.122-0.577,1.982-0.961,2.881C175.121,149.344,174.25,153.021,173.023,151.68z    M237.343,172.32c1.775,3.024,7.009,2.592,7.681,6.721c-2.539-0.021-2.947-2.172-6.239-1.44c-0.267-0.854-0.247-1.993-0.96-2.398   c-2.117-0.679-0.008,2.872-1.44,2.88c-1.815,0.057-0.713-2.808-2.399-2.88c-1.077,0.2-0.014,2.547-0.959,2.88   c-1.209-0.394-0.67-2.531-1.44-3.36c-1.428,0.493-1.84,2-3.84,1.92c0-0.8,0-1.6,0-2.398c-1.12,0-2.24,0-3.36,0   c-0.673,2.593,1.297,2.544,1.44,4.318c-1.7,0.26-1.181-1.699-2.88-1.438c0.058-1.383-0.264-3.144,0.479-3.84   c-2.339-0.58-1.611,1.907-3.359,1.92c-0.289-1.789,1.228-3.036,0-4.32c-0.842,0.438-1.668,0.893-1.439,2.4   c-1.398,0.968,0.626-3.034-0.479-3.36c-1.285,0.956-1.295,3.187-1.92,4.8c-2.998-1.094-1.355-5.113-0.961-7.68   c-2.682,0.357-2.132,3.948-2.399,6.72c-1.591-0.169-2.082-1.438-2.88-2.398c-0.057-3.098,1.024-5.056,2.398-6.722   c-3.308,1.053-5.146,6.69-2.398,9.602c-1.952,0.627-2.412-0.993-1.44-1.92c-1.301-1.311-1.194,1.24-2.88,0.96   c0.084-2.484-1.879-2.922-3.359-3.842c-1.263-0.142-0.377,1.862-1.921,1.44c-0.497-1.263-0.573-2.945-0.479-4.8   c-1.477-0.357-0.922,1.316-2.399,0.96c0.071-1.19,0.091-2.329-0.96-2.4c-2.062,0.059,0.809,2.047-1.439,1.92   c-0.549-1.777-0.047-2.781-0.479-3.84c-2.282-0.362-0.633,3.207-3.358,2.4c-0.641-3.143-0.138-6.479,0-8.16   c-3.537,1.313-1.672,8.695-0.48,11.04c-3.076-0.764-2.997-4.684-4.32-7.2c-1.99-0.391-0.24,2.959-1.439,3.36   c-1.562-3.668-1.6-8.122,0.479-11.04c-3.528-0.649-1.673,4.086-4.319,4.318c-0.356-1.477,1.317-0.922,0.961-2.398   c-0.213-0.428-0.422-0.858-0.961-0.96c-2.114,0.125-1.898,2.581-2.879,3.84c-2.944-2.183-0.459-7.896,1.438-9.6   c1.5-0.221,1.534,1.024,1.44,2.398c0.851-0.589,1.391-1.489,2.398-1.92c1.512-0.231,1.087,1.474,2.88,0.96   c2.585-1.328,4.813-0.033,7.681-0.96c3.547,1.622,7.013,3.402,10.561,2.88c1.145-0.168,2.234-1.391,3.359-1.438   c9.998-0.438,11.291,9.755,20.16,12c0.556,1.204,1.912,1.606,1.92,3.358C233.331,167.054,236.585,168.438,237.343,172.32z    M238.303,164.16c-0.65-0.148-0.396-1.202-0.479-1.92c-2.889-0.97-1.467,2.373-3.36,2.398c0.063-1.183,0.073-2.312-0.479-2.88   c-0.428,0.213-0.857,0.422-0.959,0.96c-0.76-2.479-2.506-5.639-4.801-3.84c-0.062-0.861,0.588-1.013,0.479-1.92   c-2.125-0.686-1.257,1.624-2.88,1.439c0.587-2.077,0.41-2.403-1.44-2.881c-0.212-1.812,0.947-2.253,1.44-3.358   c4.699,0.198,8.072,4.734,12.479,6.72c3.092,1.392,7.848,0.66,8.641,4.8C243.333,163.65,240.128,161.348,238.303,164.16z"/>
	<path fill="#C8DF8E" d="M112.064,91.68c2.652,0.229,4.763,0.997,6.72,1.92c1.582-0.019,0.828-2.372,2.88-1.92   c1.143,3.473,0.484,7.763-2.4,8.64c0.027,1.573,1.365,1.836,0.96,3.841c-1.132,1.175-0.894-0.718-2.4-0.48   c-0.709,2.149,1.406,1.475,0.96,3.36c-4.383,0.179-8.237-3.103-13.44-1.44c2.474,2.007,7.289,1.672,10.08,3.36   c-8.928,1.073-16.765-5.616-24.48-5.76c7.941,4.537,16.219,8.74,23.52,13.92c1.047,0.087,1.527-0.394,1.44-1.44   c1.338,0.422,1.592,1.929,1.92,3.36c-3.525,0.154-5.703,1.655-8.64,2.399c0.141-0.979,1.298-0.94,1.44-1.921   c-6.555-6.244-15.769-9.831-22.56-15.84c0.085-2.154,0.906-3.573,2.4-4.32c8.221,2.18,16.091,4.709,25.44,5.761   c-0.187-2.055-2.193-2.286-4.32-2.4C111.856,99.153,111.009,94.465,112.064,91.68z"/>
	<path fill="#006225" d="M161.984,131.04c2.834,0.846,0.797,6.562,1.92,9.12c-1.355-1.446-3.693-2.363-3.84-4.32   C159.902,133.675,162.025,133.516,161.984,131.04z"/>
</g>
<path fill="#BF311A" stroke="#006225" stroke-width="3" d="M141.338,158.693c-0.193-5.727-3.295-8.545-6.719-11.04  c0.133-0.021-1.48-0.256-2.16-0.59c-2.791-0.273-6.751-2.424-9.84-1.331c-0.883,0.026-1.307,0.322-1.92,0.48  c-4.985-3.045-13.936-3.652-18.72-0.48c-1.473,0.979-2.624,3.21-4.32,4.32c-1.952,1.278-4.178,1.558-5.76,2.88  c-8.033,6.713-7.67,22.34-3.84,31.2c3.552,8.217,13.408,16.718,23.04,18.24c18.95,2.994,35.579-9.906,37.918-24.96  C150.547,167.583,144.924,164.374,141.338,158.693z"/>
<path fill="#EE3224" d="M113.348,156.576c-3.326-0.411-5.704-5.774-10.56-6.24C106.678,148.298,113.76,152.807,113.348,156.576z"/>
<path fill="#EE3224" d="M111.908,150.336c3.409,2.673,6.754,3.111,11.04,2.4c0.153,1.127,0.758,1.802,0.48,3.358  c2.036-2.135,4.203,1.084,2.88,3.36c-2.846-2.341-6.925-5.239-11.52-4.32C114.757,152.608,112.215,152.589,111.908,150.336z"/>
<path fill="#EE3224" d="M113.348,158.496c0.386,0.254,0.779,0.501,1.44,0.479c0.254,2.175-0.706,3.135-2.88,2.881  C111.955,160.303,114.083,160.832,113.348,158.496z"/>
<path fill="#EE3224" d="M128.228,159.456c1.485,0.465,2.351,1.204,1.44,2.88c2.236-1.364,5.504-0.543,7.68-0.96  c-1.463,2.376-6.617,1.063-7.68,3.84c3.119,4.671,8.836,8.934,7.199,16.801c-1.719-7.241-3.467-14.452-12-14.881  c-1.231,0.049-0.771,1.789-1.44,2.4c-1.633-2.847-4.892-4.068-6.24-7.2c3.706,1.733,6.06,3.485,10.08,2.88  C129.191,162.864,125.429,160.15,128.228,159.456z"/>
<path fill="#EE3224" d="M110.468,161.376c-6.702,1.778-10.794,6.166-10.56,14.88c-3.227-4.156,1.312-10.946,3.36-14.398  C106.795,163.134,107.964,157.769,110.468,161.376z"/>
<path fill="#006225" d="M122.468,159.936c-0.09,1.351-0.835,2.046-2.4,1.921C120.157,160.506,120.903,159.811,122.468,159.936z"/>
<path fill="#EE3224" d="M109.508,168.095c3.289,1.672,5.803,4.117,6.72,8.16c-0.71,0.25-1.21,0.711-1.92,0.96  c-2.079-2.081-4.003-4.315-6.24-6.239C108.31,169.779,109.345,169.373,109.508,168.095z"/>
<path fill="#BF311A" d="M141.188,158.016c-0.193-5.727-3.295-8.545-6.719-11.04c0.133-0.021-1.48-0.256-2.16-0.59  c-2.791-0.273-6.752-2.424-9.841-1.331c-0.883,0.026-1.307,0.322-1.92,0.48c-4.985-3.045-13.936-3.652-18.72-0.48  c-1.473,0.979-2.624,3.21-4.32,4.32c-1.952,1.278-4.178,1.558-5.76,2.88c-8.033,6.713-7.67,22.34-3.84,31.2  c3.552,8.217,13.408,16.718,23.04,18.24c18.951,2.994,35.58-9.906,37.919-24.96C150.396,166.906,144.773,163.698,141.188,158.016z   M113.348,156.576c-3.326-0.411-5.704-5.774-10.56-6.24C106.678,148.298,113.76,152.807,113.348,156.576z M113.348,158.496  c0.386,0.254,0.779,0.501,1.44,0.479c0.254,2.175-0.706,3.135-2.88,2.881C111.955,160.303,114.083,160.832,113.348,158.496z   M99.908,176.256c-3.227-4.156,1.312-10.946,3.36-14.398c3.527,1.276,4.696-4.088,7.2-0.48  C103.766,163.155,99.674,167.542,99.908,176.256z M114.308,177.216c-2.079-2.081-4.003-4.315-6.24-6.239  c0.242-1.197,1.277-1.604,1.44-2.881c3.289,1.672,5.803,4.117,6.72,8.16C115.518,176.506,115.018,176.967,114.308,177.216z   M114.788,155.136c-0.031-2.527-2.573-2.547-2.88-4.8c3.409,2.673,6.754,3.111,11.04,2.4c0.153,1.127,0.758,1.802,0.48,3.358  c2.036-2.135,4.203,1.084,2.88,3.36C123.462,157.115,119.383,154.217,114.788,155.136z M122.468,159.936  c-0.09,1.351-0.835,2.046-2.4,1.921C120.157,160.506,120.903,159.811,122.468,159.936z M136.867,182.016  c-1.719-7.241-3.467-14.452-12-14.881c-1.231,0.049-0.771,1.789-1.44,2.4c-1.633-2.847-4.892-4.068-6.24-7.2  c3.706,1.733,6.06,3.485,10.08,2.88c1.923-2.353-1.838-5.065,0.96-5.76c1.484,0.465,2.352,1.204,1.439,2.88  c2.236-1.364,5.506-0.543,7.682-0.96c-1.465,2.376-6.617,1.063-7.682,3.84C132.787,169.887,138.504,174.149,136.867,182.016z"/>
<metadata><rdf:RDF><cc:Work><dc:format>image/svg+xml</dc:format><dc:type rdf:resource="http://purl.org/dc/dcmitype/StillImage"/><cc:license rdf:resource="http://creativecommons.org/licenses/publicdomain/"/><dc:publisher><cc:Agent rdf:about="http://openclipart.org/"><dc:title>Open Clip Art Library</dc:title></cc:Agent></dc:publisher><dc:title>vegetables</dc:title><dc:date>2006-10-11T20:05:08</dc:date><dc:description>a group of vegetables</dc:description><dc:source>http://openclipart.org/detail/516/vegetables-by-johnny_automatic</dc:source><dc:creator><cc:Agent><dc:title>johnny_automatic</dc:title></cc:Agent></dc:creator><dc:subject><rdf:Bag><rdf:li>asparagus</rdf:li><rdf:li>asparagus</rdf:li><rdf:li>carrot</rdf:li><rdf:li>carrot</rdf:li><rdf:li>clip art</rdf:li><rdf:li>clipart</rdf:li><rdf:li>food</rdf:li><rdf:li>food</rdf:li><rdf:li>image</rdf:li><rdf:li>media</rdf:li><rdf:li>pepper</rdf:li><rdf:li>pepper</rdf:li><rdf:li>png</rdf:li><rdf:li>public domain</rdf:li><rdf:li>svg</rdf:li><rdf:li>tomato</rdf:li><rdf:li>tomato</rdf:li><rdf:li>vegetable</rdf:li><rdf:li>vegetable</rdf:li></rdf:Bag></dc:subject></cc:Work><cc:License rdf:about="http://creativecommons.org/licenses/publicdomain/"><cc:permits rdf:resource="http://creativecommons.org/ns#Reproduction"/><cc:permits rdf:resource="http://creativecommons.org/ns#Distribution"/><cc:permits rdf:resource="http://creativecommons.org/ns#DerivativeWorks"/></cc:License></rdf:RDF></metadata></svg>
